<ttFont>
    <TTGlyph name=".notdef" xMin="35" yMin="-299" xMax="314" yMax="1475">
      <contour>
        <pt x="70" y="-197" on="1"/>
        <pt x="280" y="-197" on="1"/>
        <pt x="280" y="1373" on="1"/>
        <pt x="70" y="1373" on="1"/>
      </contour>
      <contour>
        <pt x="35" y="-299" on="1"/>
        <pt x="35" y="1475" on="1"/>
        <pt x="314" y="1475" on="1"/>
        <pt x="314" y="-299" on="1"/>
      </contour>
    </TTGlyph>
    <TTGlyph name="A" xMin="53" yMin="0" xMax="780" yMax="1438">
      <contour>
        <pt x="68" y="0" on="1"/>
        <pt x="53" y="0" on="0"/>
        <pt x="53" y="29" on="1"/>
        <pt x="53" y="46" on="1"/>
        <pt x="53" y="59" on="0"/>
        <pt x="54" y="63" on="1"/>
        <pt x="279" y="1388" on="1"/>
        <pt x="287" y="1436" on="0"/>
        <pt x="316" y="1438" on="1"/>
        <pt x="519" y="1438" on="1"/>
        <pt x="547" y="1436" on="0"/>
        <pt x="555" y="1388" on="1"/>
        <pt x="776" y="63" on="1"/>
        <pt x="776" y="60" on="0"/>
        <pt x="779" y="44" on="0"/>
        <pt x="780" y="32" on="0"/>
        <pt x="780" y="28" on="1"/>
        <pt x="780" y="0" on="0"/>
        <pt x="763" y="0" on="1"/>
        <pt x="598" y="0" on="1"/>
        <pt x="574" y="0" on="0"/>
        <pt x="567" y="41" on="1"/>
        <pt x="530" y="296" on="1"/>
        <pt x="527" y="318" on="0"/>
        <pt x="519" y="318" on="1"/>
        <pt x="277" y="318" on="1"/>
        <pt x="270" y="318" on="0"/>
        <pt x="266" y="295" on="1"/>
        <pt x="224" y="42" on="1"/>
        <pt x="220" y="17" on="0"/>
        <pt x="208" y="0" on="0"/>
        <pt x="196" y="0" on="1"/>
      </contour>
      <contour>
        <pt x="306" y="443" on="1"/>
        <pt x="510" y="443" on="1"/>
        <pt x="517" y="443" on="0"/>
        <pt x="517" y="461" on="1"/>
        <pt x="517" y="467" on="0"/>
        <pt x="515" y="470" on="1"/>
        <pt x="416" y="1241" on="1"/>
        <pt x="415" y="1248" on="0"/>
        <pt x="413" y="1248" on="1"/>
        <pt x="410" y="1248" on="0"/>
        <pt x="409" y="1242" on="1"/>
        <pt x="292" y="471" on="1"/>
        <pt x="291" y="464" on="0"/>
        <pt x="291" y="462" on="1"/>
        <pt x="291" y="443" on="0"/>
      </contour>
    </TTGlyph>
    <TTGlyph name="AE" xMin="52" yMin="0" xMax="972" yMax="1438">
      <contour>
        <pt x="67" y="0" on="1"/>
        <pt x="53" y="0" on="0"/>
        <pt x="53" y="29" on="1"/>
        <pt x="53" y="31" on="0"/>
        <pt x="52" y="43" on="0"/>
        <pt x="52" y="46" on="1"/>
        <pt x="52" y="57" on="0"/>
        <pt x="55" y="63" on="1"/>
        <pt x="389" y="1388" on="1"/>
        <pt x="399" y="1438" on="0"/>
        <pt x="428" y="1438" on="1"/>
        <pt x="929" y="1438" on="1"/>
        <pt x="938" y="1438" on="0"/>
        <pt x="947" y="1434" on="0"/>
        <pt x="954" y="1416" on="0"/>
        <pt x="954" y="1398" on="1"/>
        <pt x="954" y="1319" on="1"/>
        <pt x="954" y="1294" on="0"/>
        <pt x="942" y="1279" on="0"/>
        <pt x="929" y="1279" on="1"/>
        <pt x="735" y="1279" on="1"/>
        <pt x="723" y="1279" on="0"/>
        <pt x="723" y="1246" on="1"/>
        <pt x="723" y="842" on="1"/>
        <pt x="723" y="833" on="0"/>
        <pt x="730" y="815" on="0"/>
        <pt x="733" y="815" on="1"/>
        <pt x="889" y="815" on="1"/>
        <pt x="914" y="815" on="0"/>
        <pt x="914" y="769" on="1"/>
        <pt x="914" y="692" on="1"/>
        <pt x="914" y="646" on="0"/>
        <pt x="889" y="646" on="1"/>
        <pt x="734" y="646" on="1"/>
        <pt x="730" y="646" on="0"/>
        <pt x="723" y="626" on="0"/>
        <pt x="723" y="616" on="1"/>
        <pt x="723" y="159" on="1"/>
        <pt x="946" y="159" on="1"/>
        <pt x="955" y="159" on="0"/>
        <pt x="965" y="155" on="0"/>
        <pt x="972" y="137" on="0"/>
        <pt x="972" y="119" on="1"/>
        <pt x="972" y="40" on="1"/>
        <pt x="972" y="15" on="0"/>
        <pt x="959" y="0" on="0"/>
        <pt x="946" y="0" on="1"/>
        <pt x="551" y="0" on="1"/>
        <pt x="538" y="0" on="0"/>
        <pt x="526" y="15" on="0"/>
        <pt x="526" y="42" on="1"/>
        <pt x="526" y="318" on="1"/>
        <pt x="309" y="318" on="1"/>
        <pt x="303" y="318" on="0"/>
        <pt x="298" y="295" on="1"/>
        <pt x="235" y="42" on="1"/>
        <pt x="231" y="17" on="0"/>
        <pt x="216" y="0" on="0"/>
        <pt x="204" y="0" on="1"/>
      </contour>
      <contour>
        <pt x="348" y="443" on="1"/>
        <pt x="520" y="443" on="1"/>
        <pt x="526" y="443" on="0"/>
        <pt x="526" y="465" on="1"/>
        <pt x="526" y="1256" on="1"/>
        <pt x="526" y="1268" on="0"/>
        <pt x="523" y="1268" on="1"/>
        <pt x="519" y="1268" on="0"/>
        <pt x="519" y="1258" on="1"/>
        <pt x="335" y="471" on="1"/>
        <pt x="333" y="464" on="0"/>
        <pt x="333" y="458" on="1"/>
        <pt x="333" y="443" on="0"/>
      </contour>
    </TTGlyph>
    <TTGlyph name="Aacute" xMin="53" yMin="0" xMax="780" yMax="2021">
      <component glyphName="acute" x="34" y="407" flags="0x1004"/>
      <component glyphName="A" x="0" y="0" flags="0x1204"/>
    </TTGlyph>
    <TTGlyph name="Abreve" xMin="53" yMin="0" xMax="780" yMax="1771">
      <component glyphName="breve" x="-200" y="284" flags="0x1004"/>
      <component glyphName="A" x="0" y="0" flags="0x1204"/>
    </TTGlyph>
    <TTGlyph name="Acircumflex" xMin="53" yMin="0" xMax="780" yMax="1912">
      <component glyphName="circumflex" x="261" y="351" flags="0x1004"/>
      <component glyphName="A" x="0" y="0" flags="0x1204"/>
    </TTGlyph>
    <TTGlyph name="Adieresis" xMin="53" yMin="0" xMax="780" yMax="1772">
      <component glyphName="dieresis" x="221" y="1576" flags="0x1004"/>
      <component glyphName="A" x="0" y="0" flags="0x1204"/>
    </TTGlyph>
    <TTGlyph name="Agrave" xMin="53" yMin="0" xMax="780" yMax="2021">
      <component glyphName="grave" x="-37" y="407" flags="0x1004"/>
      <component glyphName="A" x="0" y="0" flags="0x1204"/>
    </TTGlyph>
    <TTGlyph name="Amacron" xMin="53" yMin="0" xMax="780" yMax="1688">
      <component glyphName="macron" x="-37" y="869" flags="0x1004"/>
      <component glyphName="A" x="0" y="0" flags="0x1204"/>
    </TTGlyph>
    <TTGlyph name="Aogonek" xMin="53" yMin="-349" xMax="816" yMax="1438">
      <component glyphName="ogonek" x="321" y="3" flags="0x1004"/>
      <component glyphName="A" x="0" y="0" flags="0x1004"/>
    </TTGlyph>
    <TTGlyph name="Aring" xMin="53" yMin="0" xMax="780" yMax="1833">
      <component glyphName="ring" x="-233" y="321" flags="0x1004"/>
      <component glyphName="A" x="0" y="0" flags="0x1204"/>
    </TTGlyph>
    <TTGlyph name="Atilde" xMin="53" yMin="0" xMax="780" yMax="1756">
      <component glyphName="tilde" x="43" y="779" flags="0x1004"/>
      <component glyphName="A" x="0" y="0" flags="0x1204"/>
    </TTGlyph>
    <TTGlyph name="B" xMin="116" yMin="0" xMax="831" yMax="1438">
      <contour>
        <pt x="143" y="0" on="1"/>
        <pt x="129" y="0" on="0"/>
        <pt x="116" y="16" on="0"/>
        <pt x="116" y="44" on="1"/>
        <pt x="116" y="1393" on="1"/>
        <pt x="116" y="1422" on="0"/>
        <pt x="129" y="1438" on="0"/>
        <pt x="143" y="1438" on="1"/>
        <pt x="509" y="1438" on="1"/>
        <pt x="794" y="1438" on="0"/>
        <pt x="794" y="1041" on="1"/>
        <pt x="794" y="856" on="0"/>
        <pt x="705" y="782" on="1"/>
        <pt x="696" y="773" on="0"/>
        <pt x="696" y="767" on="0"/>
        <pt x="706" y="757" on="1"/>
        <pt x="831" y="668" on="0"/>
        <pt x="831" y="424" on="1"/>
        <pt x="831" y="304" on="0"/>
        <pt x="782" y="136" on="0"/>
        <pt x="689" y="41" on="0"/>
        <pt x="569" y="0" on="0"/>
        <pt x="490" y="0" on="1"/>
      </contour>
      <contour>
        <pt x="327" y="150" on="1"/>
        <pt x="454" y="150" on="1"/>
        <pt x="542" y="150" on="0"/>
        <pt x="639" y="298" on="0"/>
        <pt x="639" y="425" on="1"/>
        <pt x="639" y="538" on="0"/>
        <pt x="553" y="684" on="0"/>
        <pt x="486" y="684" on="1"/>
        <pt x="327" y="684" on="1"/>
        <pt x="313" y="684" on="0"/>
        <pt x="313" y="660" on="1"/>
        <pt x="313" y="170" on="1"/>
        <pt x="313" y="150" on="0"/>
      </contour>
      <contour>
        <pt x="327" y="833" on="1"/>
        <pt x="493" y="833" on="1"/>
        <pt x="548" y="833" on="0"/>
        <pt x="614" y="942" on="0"/>
        <pt x="614" y="1035" on="1"/>
        <pt x="614" y="1157" on="0"/>
        <pt x="529" y="1282" on="0"/>
        <pt x="455" y="1282" on="1"/>
        <pt x="327" y="1282" on="1"/>
        <pt x="313" y="1282" on="0"/>
        <pt x="313" y="1260" on="1"/>
        <pt x="313" y="853" on="1"/>
        <pt x="313" y="833" on="0"/>
      </contour>
    </TTGlyph>
    <TTGlyph name="C" xMin="87" yMin="-15" xMax="662" yMax="1454">
      <contour>
        <pt x="494" y="-15" on="1"/>
        <pt x="442" y="-15" on="0"/>
        <pt x="365" y="-5" on="0"/>
        <pt x="275" y="30" on="0"/>
        <pt x="212" y="92" on="0"/>
        <pt x="149" y="202" on="0"/>
        <pt x="111" y="355" on="0"/>
        <pt x="87" y="578" on="0"/>
        <pt x="87" y="720" on="1"/>
        <pt x="87" y="912" on="0"/>
        <pt x="134" y="1188" on="0"/>
        <pt x="206" y="1342" on="0"/>
        <pt x="321" y="1430" on="0"/>
        <pt x="426" y="1454" on="0"/>
        <pt x="499" y="1454" on="1"/>
        <pt x="592" y="1454" on="0"/>
        <pt x="652" y="1426" on="1"/>
        <pt x="653" y="1425" on="0"/>
        <pt x="657" y="1422" on="0"/>
        <pt x="660" y="1419" on="0"/>
        <pt x="662" y="1412" on="0"/>
        <pt x="662" y="1407" on="1"/>
        <pt x="662" y="1286" on="1"/>
        <pt x="662" y="1272" on="0"/>
        <pt x="655" y="1272" on="1"/>
        <pt x="654" y="1272" on="0"/>
        <pt x="641" y="1276" on="0"/>
        <pt x="617" y="1282" on="0"/>
        <pt x="589" y="1288" on="0"/>
        <pt x="552" y="1292" on="0"/>
        <pt x="534" y="1292" on="1"/>
        <pt x="487" y="1292" on="0"/>
        <pt x="421" y="1271" on="0"/>
        <pt x="353" y="1202" on="0"/>
        <pt x="311" y="1080" on="0"/>
        <pt x="285" y="868" on="0"/>
        <pt x="285" y="720" on="1"/>
        <pt x="285" y="569" on="0"/>
        <pt x="308" y="357" on="0"/>
        <pt x="344" y="234" on="0"/>
        <pt x="408" y="166" on="0"/>
        <pt x="472" y="146" on="0"/>
        <pt x="520" y="146" on="1"/>
        <pt x="591" y="146" on="0"/>
        <pt x="646" y="165" on="1"/>
        <pt x="647" y="165" on="0"/>
        <pt x="654" y="145" on="0"/>
        <pt x="654" y="144" on="1"/>
        <pt x="654" y="29" on="1"/>
        <pt x="654" y="28" on="0"/>
        <pt x="647" y="9" on="0"/>
        <pt x="646" y="8" on="1"/>
        <pt x="585" y="-15" on="0"/>
      </contour>
    </TTGlyph>
    <TTGlyph name="Cacute" xMin="87" yMin="-15" xMax="662" yMax="2021">
      <component glyphName="acute" x="-8" y="407" flags="0x1004"/>
      <component glyphName="C" x="0" y="0" flags="0x1204"/>
    </TTGlyph>
    <TTGlyph name="Ccaron" xMin="87" yMin="-15" xMax="662" yMax="1912">
      <component glyphName="caron" x="219" y="351" flags="0x1004"/>
      <component glyphName="C" x="0" y="0" flags="0x1204"/>
    </TTGlyph>
    <TTGlyph name="Ccedilla" xMin="87" yMin="-591" xMax="662" yMax="1454">
      <component glyphName="cedilla" x="114" y="0" flags="0x1004"/>
      <component glyphName="C" x="0" y="0" flags="0x1004"/>
    </TTGlyph>
    <TTGlyph name="Ccircumflex" xMin="87" yMin="-15" xMax="662" yMax="1912">
      <component glyphName="circumflex" x="219" y="351" flags="0x1004"/>
      <component glyphName="C" x="0" y="0" flags="0x1204"/>
    </TTGlyph>
    <TTGlyph name="Cdotaccent" xMin="87" yMin="-15" xMax="662" yMax="1815">
      <component glyphName="dotaccent" x="232" y="1533" flags="0x1004"/>
      <component glyphName="C" x="0" y="0" flags="0x1204"/>
    </TTGlyph>
    <TTGlyph name="D" xMin="116" yMin="0" xMax="849" yMax="1438">
      <contour>
        <pt x="326" y="159" on="1"/>
        <pt x="449" y="159" on="1"/>
        <pt x="526" y="159" on="0"/>
        <pt x="610" y="251" on="0"/>
        <pt x="651" y="496" on="0"/>
        <pt x="651" y="726" on="1"/>
        <pt x="651" y="939" on="0"/>
        <pt x="604" y="1187" on="0"/>
        <pt x="522" y="1279" on="0"/>
        <pt x="456" y="1279" on="1"/>
        <pt x="325" y="1279" on="1"/>
        <pt x="313" y="1279" on="0"/>
        <pt x="313" y="1257" on="1"/>
        <pt x="313" y="181" on="1"/>
        <pt x="313" y="159" on="0"/>
      </contour>
      <contour>
        <pt x="141" y="0" on="1"/>
        <pt x="128" y="0" on="0"/>
        <pt x="116" y="16" on="0"/>
        <pt x="116" y="44" on="1"/>
        <pt x="116" y="1398" on="1"/>
        <pt x="116" y="1423" on="0"/>
        <pt x="128" y="1438" on="0"/>
        <pt x="141" y="1438" on="1"/>
        <pt x="485" y="1438" on="1"/>
        <pt x="573" y="1438" on="0"/>
        <pt x="702" y="1368" on="0"/>
        <pt x="800" y="1208" on="0"/>
        <pt x="849" y="929" on="0"/>
        <pt x="849" y="729" on="1"/>
        <pt x="849" y="587" on="0"/>
        <pt x="831" y="370" on="0"/>
        <pt x="802" y="215" on="0"/>
        <pt x="748" y="108" on="0"/>
        <pt x="690" y="45" on="0"/>
        <pt x="602" y="11" on="0"/>
        <pt x="519" y="0" on="0"/>
        <pt x="458" y="0" on="1"/>
      </contour>
    </TTGlyph>
    <TTGlyph name="Dcaron" xMin="116" yMin="0" xMax="849" yMax="1912">
      <component glyphName="caron" x="327" y="351" flags="0x1004"/>
      <component glyphName="D" x="0" y="0" flags="0x1204"/>
    </TTGlyph>
    <TTGlyph name="Dcroat" xMin="5" yMin="0" xMax="849" yMax="1438">
      <contour>
        <pt x="326" y="159" on="1"/>
        <pt x="449" y="159" on="1"/>
        <pt x="526" y="159" on="0"/>
        <pt x="610" y="251" on="0"/>
        <pt x="651" y="496" on="0"/>
        <pt x="651" y="726" on="1"/>
        <pt x="651" y="939" on="0"/>
        <pt x="604" y="1187" on="0"/>
        <pt x="522" y="1279" on="0"/>
        <pt x="456" y="1279" on="1"/>
        <pt x="325" y="1279" on="1"/>
        <pt x="313" y="1279" on="0"/>
        <pt x="313" y="1257" on="1"/>
        <pt x="313" y="777" on="1"/>
        <pt x="455" y="777" on="1"/>
        <pt x="490" y="777" on="0"/>
        <pt x="490" y="738" on="1"/>
        <pt x="490" y="710" on="1"/>
        <pt x="490" y="671" on="0"/>
        <pt x="455" y="671" on="1"/>
        <pt x="313" y="671" on="1"/>
        <pt x="313" y="181" on="1"/>
        <pt x="313" y="159" on="0"/>
      </contour>
      <contour>
        <pt x="141" y="0" on="1"/>
        <pt x="128" y="0" on="0"/>
        <pt x="116" y="16" on="0"/>
        <pt x="116" y="44" on="1"/>
        <pt x="116" y="671" on="1"/>
        <pt x="40" y="671" on="1"/>
        <pt x="5" y="671" on="0"/>
        <pt x="5" y="709" on="1"/>
        <pt x="5" y="738" on="1"/>
        <pt x="5" y="777" on="0"/>
        <pt x="40" y="777" on="1"/>
        <pt x="116" y="777" on="1"/>
        <pt x="116" y="1398" on="1"/>
        <pt x="116" y="1423" on="0"/>
        <pt x="128" y="1438" on="0"/>
        <pt x="141" y="1438" on="1"/>
        <pt x="485" y="1438" on="1"/>
        <pt x="573" y="1438" on="0"/>
        <pt x="702" y="1368" on="0"/>
        <pt x="800" y="1208" on="0"/>
        <pt x="849" y="929" on="0"/>
        <pt x="849" y="729" on="1"/>
        <pt x="849" y="587" on="0"/>
        <pt x="831" y="370" on="0"/>
        <pt x="802" y="215" on="0"/>
        <pt x="748" y="108" on="0"/>
        <pt x="690" y="45" on="0"/>
        <pt x="602" y="11" on="0"/>
        <pt x="519" y="0" on="0"/>
        <pt x="458" y="0" on="1"/>
      </contour>
    </TTGlyph>
    <TTGlyph name="Delta" xMin="84" yMin="247" xMax="741" yMax="1400">
      <contour>
        <pt x="100" y="247" on="1"/>
        <pt x="84" y="247" on="0"/>
        <pt x="84" y="276" on="1"/>
        <pt x="84" y="301" on="0"/>
        <pt x="85" y="311" on="1"/>
        <pt x="281" y="1350" on="1"/>
        <pt x="286" y="1378" on="0"/>
        <pt x="303" y="1398" on="0"/>
        <pt x="317" y="1400" on="1"/>
        <pt x="508" y="1400" on="1"/>
        <pt x="522" y="1398" on="0"/>
        <pt x="539" y="1378" on="0"/>
        <pt x="544" y="1350" on="1"/>
        <pt x="737" y="311" on="1"/>
        <pt x="737" y="309" on="0"/>
        <pt x="741" y="281" on="0"/>
        <pt x="741" y="276" on="1"/>
        <pt x="741" y="247" on="0"/>
        <pt x="724" y="247" on="1"/>
      </contour>
      <contour>
        <pt x="288" y="385" on="1"/>
        <pt x="542" y="385" on="1"/>
        <pt x="548" y="385" on="0"/>
        <pt x="548" y="403" on="1"/>
        <pt x="548" y="405" on="0"/>
        <pt x="547" y="411" on="1"/>
        <pt x="415" y="1229" on="1"/>
        <pt x="414" y="1236" on="0"/>
        <pt x="412" y="1236" on="1"/>
        <pt x="409" y="1236" on="0"/>
        <pt x="408" y="1229" on="1"/>
        <pt x="274" y="413" on="1"/>
        <pt x="273" y="407" on="0"/>
        <pt x="273" y="404" on="1"/>
        <pt x="273" y="385" on="0"/>
      </contour>
    </TTGlyph>
    <TTGlyph name="E" xMin="116" yMin="0" xMax="696" yMax="1438">
      <contour>
        <pt x="141" y="0" on="1"/>
        <pt x="128" y="0" on="0"/>
        <pt x="116" y="15" on="0"/>
        <pt x="116" y="42" on="1"/>
        <pt x="116" y="1396" on="1"/>
        <pt x="116" y="1422" on="0"/>
        <pt x="128" y="1438" on="0"/>
        <pt x="141" y="1438" on="1"/>
        <pt x="667" y="1438" on="1"/>
        <pt x="675" y="1438" on="0"/>
        <pt x="685" y="1434" on="0"/>
        <pt x="692" y="1416" on="0"/>
        <pt x="692" y="1398" on="1"/>
        <pt x="692" y="1319" on="1"/>
        <pt x="692" y="1294" on="0"/>
        <pt x="680" y="1279" on="0"/>
        <pt x="667" y="1279" on="1"/>
        <pt x="325" y="1279" on="1"/>
        <pt x="313" y="1279" on="0"/>
        <pt x="313" y="1246" on="1"/>
        <pt x="313" y="842" on="1"/>
        <pt x="313" y="833" on="0"/>
        <pt x="320" y="815" on="0"/>
        <pt x="323" y="815" on="1"/>
        <pt x="598" y="815" on="1"/>
        <pt x="623" y="815" on="0"/>
        <pt x="623" y="769" on="1"/>
        <pt x="623" y="692" on="1"/>
        <pt x="623" y="646" on="0"/>
        <pt x="598" y="646" on="1"/>
        <pt x="324" y="646" on="1"/>
        <pt x="320" y="646" on="0"/>
        <pt x="313" y="626" on="0"/>
        <pt x="313" y="616" on="1"/>
        <pt x="313" y="159" on="1"/>
        <pt x="670" y="159" on="1"/>
        <pt x="679" y="159" on="0"/>
        <pt x="689" y="155" on="0"/>
        <pt x="696" y="137" on="0"/>
        <pt x="696" y="119" on="1"/>
        <pt x="696" y="40" on="1"/>
        <pt x="696" y="15" on="0"/>
        <pt x="683" y="0" on="0"/>
        <pt x="670" y="0" on="1"/>
      </contour>
    </TTGlyph>
    <TTGlyph name="Eacute" xMin="116" yMin="0" xMax="696" yMax="2021">
      <component glyphName="acute" x="24" y="407" flags="0x1004"/>
      <component glyphName="E" x="0" y="0" flags="0x1204"/>
    </TTGlyph>
    <TTGlyph name="Ebreve" xMin="116" yMin="0" xMax="696" yMax="1771">
      <component glyphName="breve" x="-210" y="284" flags="0x1004"/>
      <component glyphName="E" x="0" y="0" flags="0x1204"/>
    </TTGlyph>
    <TTGlyph name="Ecaron" xMin="116" yMin="0" xMax="696" yMax="1912">
      <component glyphName="caron" x="251" y="351" flags="0x1004"/>
      <component glyphName="E" x="0" y="0" flags="0x1204"/>
    </TTGlyph>
    <TTGlyph name="Ecircumflex" xMin="116" yMin="0" xMax="696" yMax="1912">
      <component glyphName="circumflex" x="250" y="351" flags="0x1004"/>
      <component glyphName="E" x="0" y="0" flags="0x1204"/>
    </TTGlyph>
    <TTGlyph name="Edieresis" xMin="116" yMin="0" xMax="696" yMax="1772">
      <component glyphName="dieresis" x="211" y="1576" flags="0x1004"/>
      <component glyphName="E" x="0" y="0" flags="0x1204"/>
    </TTGlyph>
    <TTGlyph name="Edotaccent" xMin="116" yMin="0" xMax="696" yMax="1815">
      <component glyphName="dotaccent" x="264" y="1533" flags="0x1004"/>
      <component glyphName="E" x="0" y="0" flags="0x1204"/>
    </TTGlyph>
    <TTGlyph name="Egrave" xMin="116" yMin="0" xMax="696" yMax="2021">
      <component glyphName="grave" x="-47" y="407" flags="0x1004"/>
      <component glyphName="E" x="0" y="0" flags="0x1204"/>
    </TTGlyph>
    <TTGlyph name="Emacron" xMin="116" yMin="0" xMax="696" yMax="1688">
      <component glyphName="macron" x="-47" y="869" flags="0x1004"/>
      <component glyphName="E" x="0" y="0" flags="0x1204"/>
    </TTGlyph>
    <TTGlyph name="Eogonek" xMin="116" yMin="-350" xMax="696" yMax="1438">
      <component glyphName="E" x="0" y="0" flags="0x1004"/>
      <component glyphName="ogonek" x="178" y="2" flags="0x1004"/>
    </TTGlyph>
    <TTGlyph name="Eth" xMin="17" yMin="0" xMax="849" yMax="1438">
      <contour>
        <pt x="326" y="159" on="1"/>
        <pt x="449" y="159" on="1"/>
        <pt x="526" y="159" on="0"/>
        <pt x="610" y="251" on="0"/>
        <pt x="651" y="496" on="0"/>
        <pt x="651" y="726" on="1"/>
        <pt x="651" y="939" on="0"/>
        <pt x="604" y="1187" on="0"/>
        <pt x="522" y="1279" on="0"/>
        <pt x="456" y="1279" on="1"/>
        <pt x="325" y="1279" on="1"/>
        <pt x="313" y="1279" on="0"/>
        <pt x="313" y="1257" on="1"/>
        <pt x="313" y="794" on="1"/>
        <pt x="410" y="794" on="1"/>
        <pt x="436" y="794" on="0"/>
        <pt x="459" y="773" on="0"/>
        <pt x="459" y="746" on="1"/>
        <pt x="459" y="697" on="1"/>
        <pt x="458" y="674" on="0"/>
        <pt x="434" y="655" on="0"/>
        <pt x="410" y="655" on="1"/>
        <pt x="313" y="655" on="1"/>
        <pt x="313" y="181" on="1"/>
        <pt x="313" y="159" on="0"/>
      </contour>
      <contour>
        <pt x="141" y="0" on="1"/>
        <pt x="128" y="0" on="0"/>
        <pt x="116" y="16" on="0"/>
        <pt x="116" y="44" on="1"/>
        <pt x="116" y="655" on="1"/>
        <pt x="66" y="655" on="1"/>
        <pt x="40" y="655" on="0"/>
        <pt x="17" y="676" on="0"/>
        <pt x="17" y="703" on="1"/>
        <pt x="17" y="745" on="1"/>
        <pt x="17" y="773" on="0"/>
        <pt x="40" y="794" on="0"/>
        <pt x="66" y="794" on="1"/>
        <pt x="116" y="794" on="1"/>
        <pt x="116" y="1398" on="1"/>
        <pt x="116" y="1423" on="0"/>
        <pt x="128" y="1438" on="0"/>
        <pt x="141" y="1438" on="1"/>
        <pt x="485" y="1438" on="1"/>
        <pt x="573" y="1438" on="0"/>
        <pt x="702" y="1368" on="0"/>
        <pt x="800" y="1208" on="0"/>
        <pt x="849" y="929" on="0"/>
        <pt x="849" y="729" on="1"/>
        <pt x="849" y="587" on="0"/>
        <pt x="831" y="370" on="0"/>
        <pt x="802" y="215" on="0"/>
        <pt x="748" y="108" on="0"/>
        <pt x="690" y="45" on="0"/>
        <pt x="602" y="11" on="0"/>
        <pt x="519" y="0" on="0"/>
        <pt x="458" y="0" on="1"/>
      </contour>
    </TTGlyph>
    <TTGlyph name="Euro" xMin="19" yMin="-18" xMax="662" yMax="1457">
      <contour>
        <pt x="494" y="-18" on="1"/>
        <pt x="449" y="-18" on="0"/>
        <pt x="379" y="-10" on="0"/>
        <pt x="299" y="16" on="0"/>
        <pt x="239" y="61" on="0"/>
        <pt x="178" y="141" on="0"/>
        <pt x="136" y="251" on="0"/>
        <pt x="103" y="411" on="0"/>
        <pt x="95" y="512" on="1"/>
        <pt x="43" y="512" on="1"/>
        <pt x="30" y="512" on="0"/>
        <pt x="19" y="528" on="0"/>
        <pt x="19" y="558" on="1"/>
        <pt x="19" y="599" on="1"/>
        <pt x="19" y="629" on="0"/>
        <pt x="30" y="645" on="0"/>
        <pt x="43" y="645" on="1"/>
        <pt x="88" y="645" on="1"/>
        <pt x="88" y="657" on="0"/>
        <pt x="87" y="707" on="0"/>
        <pt x="87" y="733" on="0"/>
        <pt x="88" y="780" on="0"/>
        <pt x="88" y="792" on="1"/>
        <pt x="43" y="792" on="1"/>
        <pt x="30" y="792" on="0"/>
        <pt x="19" y="807" on="0"/>
        <pt x="19" y="837" on="1"/>
        <pt x="19" y="878" on="1"/>
        <pt x="19" y="908" on="0"/>
        <pt x="30" y="924" on="0"/>
        <pt x="43" y="924" on="1"/>
        <pt x="95" y="924" on="1"/>
        <pt x="103" y="1023" on="0"/>
        <pt x="137" y="1182" on="0"/>
        <pt x="180" y="1292" on="0"/>
        <pt x="242" y="1373" on="0"/>
        <pt x="304" y="1420" on="0"/>
        <pt x="384" y="1448" on="0"/>
        <pt x="455" y="1457" on="0"/>
        <pt x="499" y="1457" on="1"/>
        <pt x="550" y="1457" on="0"/>
        <pt x="649" y="1436" on="0"/>
        <pt x="662" y="1410" on="1"/>
        <pt x="662" y="1290" on="1"/>
        <pt x="662" y="1277" on="0"/>
        <pt x="655" y="1277" on="1"/>
        <pt x="654" y="1277" on="0"/>
        <pt x="641" y="1281" on="0"/>
        <pt x="617" y="1286" on="0"/>
        <pt x="589" y="1290" on="0"/>
        <pt x="552" y="1294" on="0"/>
        <pt x="534" y="1294" on="1"/>
        <pt x="495" y="1294" on="0"/>
        <pt x="437" y="1280" on="0"/>
        <pt x="376" y="1234" on="0"/>
        <pt x="334" y="1154" on="0"/>
        <pt x="301" y="1018" on="0"/>
        <pt x="293" y="924" on="1"/>
        <pt x="460" y="924" on="1"/>
        <pt x="472" y="924" on="0"/>
        <pt x="483" y="908" on="0"/>
        <pt x="483" y="878" on="1"/>
        <pt x="483" y="837" on="1"/>
        <pt x="483" y="808" on="0"/>
        <pt x="472" y="792" on="0"/>
        <pt x="460" y="792" on="1"/>
        <pt x="286" y="792" on="1"/>
        <pt x="285" y="769" on="0"/>
        <pt x="285" y="720" on="1"/>
        <pt x="285" y="668" on="0"/>
        <pt x="286" y="645" on="1"/>
        <pt x="460" y="645" on="1"/>
        <pt x="472" y="645" on="0"/>
        <pt x="483" y="629" on="0"/>
        <pt x="483" y="599" on="1"/>
        <pt x="483" y="558" on="1"/>
        <pt x="483" y="528" on="0"/>
        <pt x="472" y="512" on="0"/>
        <pt x="460" y="512" on="1"/>
        <pt x="292" y="512" on="1"/>
        <pt x="300" y="394" on="0"/>
        <pt x="339" y="242" on="0"/>
        <pt x="402" y="168" on="0"/>
        <pt x="470" y="143" on="0"/>
        <pt x="520" y="143" on="1"/>
        <pt x="591" y="143" on="0"/>
        <pt x="646" y="162" on="1"/>
        <pt x="654" y="160" on="0"/>
        <pt x="654" y="141" on="1"/>
        <pt x="654" y="27" on="1"/>
        <pt x="654" y="7" on="0"/>
        <pt x="642" y="4" on="1"/>
        <pt x="589" y="-18" on="0"/>
      </contour>
    </TTGlyph>
    <TTGlyph name="F" xMin="116" yMin="0" xMax="657" yMax="1438">
      <contour>
        <pt x="141" y="0" on="1"/>
        <pt x="128" y="0" on="0"/>
        <pt x="116" y="15" on="0"/>
        <pt x="116" y="42" on="1"/>
        <pt x="116" y="1396" on="1"/>
        <pt x="116" y="1422" on="0"/>
        <pt x="128" y="1438" on="0"/>
        <pt x="141" y="1438" on="1"/>
        <pt x="632" y="1438" on="1"/>
        <pt x="641" y="1438" on="0"/>
        <pt x="650" y="1434" on="0"/>
        <pt x="657" y="1416" on="0"/>
        <pt x="657" y="1398" on="1"/>
        <pt x="657" y="1319" on="1"/>
        <pt x="657" y="1294" on="0"/>
        <pt x="645" y="1279" on="0"/>
        <pt x="632" y="1279" on="1"/>
        <pt x="325" y="1279" on="1"/>
        <pt x="313" y="1279" on="0"/>
        <pt x="313" y="1253" on="1"/>
        <pt x="313" y="812" on="1"/>
        <pt x="313" y="792" on="0"/>
        <pt x="323" y="792" on="1"/>
        <pt x="573" y="792" on="1"/>
        <pt x="586" y="792" on="0"/>
        <pt x="598" y="778" on="0"/>
        <pt x="598" y="753" on="1"/>
        <pt x="598" y="663" on="1"/>
        <pt x="598" y="638" on="0"/>
        <pt x="586" y="623" on="0"/>
        <pt x="573" y="623" on="1"/>
        <pt x="324" y="623" on="1"/>
        <pt x="320" y="623" on="0"/>
        <pt x="313" y="607" on="0"/>
        <pt x="313" y="598" on="1"/>
        <pt x="313" y="42" on="1"/>
        <pt x="313" y="15" on="0"/>
        <pt x="301" y="0" on="0"/>
        <pt x="288" y="0" on="1"/>
      </contour>
    </TTGlyph>
    <TTGlyph name="G" xMin="92" yMin="-16" xMax="824" yMax="1454">
      <contour>
        <pt x="792" y="-16" on="1"/>
        <pt x="754" y="-16" on="0"/>
        <pt x="742" y="47" on="1"/>
        <pt x="742" y="48" on="0"/>
        <pt x="714" y="203" on="0"/>
        <pt x="714" y="214" on="1"/>
        <pt x="714" y="224" on="0"/>
        <pt x="708" y="224" on="0"/>
        <pt x="705" y="215" on="1"/>
        <pt x="688" y="103" on="0"/>
        <pt x="575" y="-15" on="0"/>
        <pt x="482" y="-15" on="1"/>
        <pt x="437" y="-15" on="0"/>
        <pt x="363" y="-3" on="0"/>
        <pt x="280" y="36" on="0"/>
        <pt x="216" y="100" on="0"/>
        <pt x="155" y="212" on="0"/>
        <pt x="116" y="363" on="0"/>
        <pt x="92" y="583" on="0"/>
        <pt x="92" y="720" on="1"/>
        <pt x="92" y="862" on="0"/>
        <pt x="121" y="1086" on="0"/>
        <pt x="168" y="1238" on="0"/>
        <pt x="242" y="1348" on="0"/>
        <pt x="317" y="1409" on="0"/>
        <pt x="421" y="1444" on="0"/>
        <pt x="507" y="1454" on="0"/>
        <pt x="564" y="1454" on="1"/>
        <pt x="606" y="1454" on="0"/>
        <pt x="705" y="1432" on="0"/>
        <pt x="734" y="1419" on="1"/>
        <pt x="735" y="1418" on="0"/>
        <pt x="742" y="1414" on="0"/>
        <pt x="746" y="1407" on="0"/>
        <pt x="746" y="1400" on="1"/>
        <pt x="746" y="1277" on="1"/>
        <pt x="746" y="1263" on="0"/>
        <pt x="738" y="1263" on="1"/>
        <pt x="737" y="1263" on="0"/>
        <pt x="716" y="1269" on="0"/>
        <pt x="681" y="1278" on="0"/>
        <pt x="640" y="1286" on="0"/>
        <pt x="594" y="1292" on="0"/>
        <pt x="575" y="1292" on="1"/>
        <pt x="522" y="1292" on="0"/>
        <pt x="446" y="1271" on="0"/>
        <pt x="368" y="1202" on="0"/>
        <pt x="320" y="1080" on="0"/>
        <pt x="290" y="868" on="0"/>
        <pt x="290" y="720" on="1"/>
        <pt x="290" y="580" on="0"/>
        <pt x="312" y="373" on="0"/>
        <pt x="348" y="247" on="0"/>
        <pt x="405" y="171" on="0"/>
        <pt x="464" y="144" on="0"/>
        <pt x="503" y="144" on="1"/>
        <pt x="549" y="144" on="0"/>
        <pt x="610" y="198" on="0"/>
        <pt x="641" y="310" on="0"/>
        <pt x="652" y="444" on="0"/>
        <pt x="652" y="544" on="1"/>
        <pt x="652" y="589" on="0"/>
        <pt x="643" y="589" on="1"/>
        <pt x="530" y="589" on="1"/>
        <pt x="521" y="589" on="0"/>
        <pt x="510" y="594" on="0"/>
        <pt x="501" y="614" on="0"/>
        <pt x="501" y="632" on="1"/>
        <pt x="501" y="714" on="1"/>
        <pt x="501" y="741" on="0"/>
        <pt x="516" y="758" on="0"/>
        <pt x="529" y="758" on="1"/>
        <pt x="798" y="758" on="1"/>
        <pt x="824" y="758" on="0"/>
        <pt x="824" y="696" on="1"/>
        <pt x="824" y="51" on="1"/>
        <pt x="824" y="21" on="0"/>
        <pt x="804" y="-16" on="0"/>
      </contour>
    </TTGlyph>
    <TTGlyph name="Gbreve" xMin="92" yMin="-16" xMax="824" yMax="1771">
      <component glyphName="breve" x="-158" y="284" flags="0x1004"/>
      <component glyphName="G" x="0" y="0" flags="0x1204"/>
    </TTGlyph>
    <TTGlyph name="Gcircumflex" xMin="92" yMin="-16" xMax="824" yMax="1912">
      <component glyphName="circumflex" x="302" y="351" flags="0x1004"/>
      <component glyphName="G" x="0" y="0" flags="0x1204"/>
    </TTGlyph>
    <TTGlyph name="Gcommaaccent" xMin="92" yMin="-720" xMax="824" yMax="1454">
      <component glyphName="comma" x="284" y="-402" flags="0x1004"/>
      <component glyphName="G" x="0" y="0" flags="0x1204"/>
    </TTGlyph>
    <TTGlyph name="Gdotaccent" xMin="92" yMin="-16" xMax="824" yMax="1815">
      <component glyphName="dotaccent" x="316" y="1533" flags="0x1004"/>
      <component glyphName="G" x="0" y="0" flags="0x1204"/>
    </TTGlyph>
    <TTGlyph name="H" xMin="116" yMin="0" xMax="832" yMax="1438">
      <contour>
        <pt x="142" y="0" on="1"/>
        <pt x="128" y="0" on="0"/>
        <pt x="116" y="17" on="0"/>
        <pt x="116" y="47" on="1"/>
        <pt x="116" y="1391" on="1"/>
        <pt x="116" y="1421" on="0"/>
        <pt x="128" y="1438" on="0"/>
        <pt x="142" y="1438" on="1"/>
        <pt x="287" y="1438" on="1"/>
        <pt x="301" y="1438" on="0"/>
        <pt x="313" y="1421" on="0"/>
        <pt x="313" y="1391" on="1"/>
        <pt x="313" y="859" on="1"/>
        <pt x="313" y="850" on="0"/>
        <pt x="320" y="836" on="0"/>
        <pt x="323" y="836" on="1"/>
        <pt x="623" y="836" on="1"/>
        <pt x="626" y="836" on="0"/>
        <pt x="634" y="851" on="0"/>
        <pt x="634" y="860" on="1"/>
        <pt x="634" y="1391" on="1"/>
        <pt x="634" y="1420" on="0"/>
        <pt x="647" y="1438" on="0"/>
        <pt x="660" y="1438" on="1"/>
        <pt x="807" y="1438" on="1"/>
        <pt x="820" y="1438" on="0"/>
        <pt x="832" y="1421" on="0"/>
        <pt x="832" y="1391" on="1"/>
        <pt x="832" y="47" on="1"/>
        <pt x="832" y="17" on="0"/>
        <pt x="820" y="0" on="0"/>
        <pt x="807" y="0" on="1"/>
        <pt x="660" y="0" on="1"/>
        <pt x="651" y="0" on="0"/>
        <pt x="641" y="5" on="0"/>
        <pt x="633" y="27" on="0"/>
        <pt x="633" y="47" on="1"/>
        <pt x="633" y="658" on="1"/>
        <pt x="633" y="679" on="0"/>
        <pt x="622" y="679" on="1"/>
        <pt x="325" y="679" on="1"/>
        <pt x="315" y="679" on="0"/>
        <pt x="315" y="658" on="1"/>
        <pt x="315" y="47" on="1"/>
        <pt x="315" y="18" on="0"/>
        <pt x="302" y="0" on="0"/>
        <pt x="289" y="0" on="1"/>
      </contour>
    </TTGlyph>
    <TTGlyph name="Hbar" xMin="19" yMin="0" xMax="928" yMax="1438">
      <contour>
        <pt x="142" y="0" on="1"/>
        <pt x="128" y="0" on="0"/>
        <pt x="116" y="17" on="0"/>
        <pt x="116" y="47" on="1"/>
        <pt x="116" y="1174" on="1"/>
        <pt x="54" y="1174" on="1"/>
        <pt x="19" y="1174" on="0"/>
        <pt x="19" y="1212" on="1"/>
        <pt x="19" y="1241" on="1"/>
        <pt x="19" y="1280" on="0"/>
        <pt x="54" y="1280" on="1"/>
        <pt x="116" y="1280" on="1"/>
        <pt x="116" y="1391" on="1"/>
        <pt x="116" y="1421" on="0"/>
        <pt x="128" y="1438" on="0"/>
        <pt x="142" y="1438" on="1"/>
        <pt x="287" y="1438" on="1"/>
        <pt x="301" y="1438" on="0"/>
        <pt x="313" y="1421" on="0"/>
        <pt x="313" y="1391" on="1"/>
        <pt x="313" y="1280" on="1"/>
        <pt x="634" y="1280" on="1"/>
        <pt x="634" y="1391" on="1"/>
        <pt x="634" y="1420" on="0"/>
        <pt x="647" y="1438" on="0"/>
        <pt x="660" y="1438" on="1"/>
        <pt x="807" y="1438" on="1"/>
        <pt x="820" y="1438" on="0"/>
        <pt x="832" y="1421" on="0"/>
        <pt x="832" y="1391" on="1"/>
        <pt x="832" y="1280" on="1"/>
        <pt x="893" y="1280" on="1"/>
        <pt x="928" y="1280" on="0"/>
        <pt x="928" y="1241" on="1"/>
        <pt x="928" y="1213" on="1"/>
        <pt x="928" y="1174" on="0"/>
        <pt x="893" y="1174" on="1"/>
        <pt x="832" y="1174" on="1"/>
        <pt x="832" y="47" on="1"/>
        <pt x="832" y="17" on="0"/>
        <pt x="820" y="0" on="0"/>
        <pt x="807" y="0" on="1"/>
        <pt x="660" y="0" on="1"/>
        <pt x="651" y="0" on="0"/>
        <pt x="641" y="5" on="0"/>
        <pt x="633" y="27" on="0"/>
        <pt x="633" y="47" on="1"/>
        <pt x="633" y="658" on="1"/>
        <pt x="633" y="679" on="0"/>
        <pt x="622" y="679" on="1"/>
        <pt x="325" y="679" on="1"/>
        <pt x="315" y="679" on="0"/>
        <pt x="315" y="658" on="1"/>
        <pt x="315" y="47" on="1"/>
        <pt x="315" y="18" on="0"/>
        <pt x="302" y="0" on="0"/>
        <pt x="289" y="0" on="1"/>
      </contour>
      <contour>
        <pt x="323" y="836" on="1"/>
        <pt x="623" y="836" on="1"/>
        <pt x="626" y="836" on="0"/>
        <pt x="634" y="851" on="0"/>
        <pt x="634" y="860" on="1"/>
        <pt x="634" y="1174" on="1"/>
        <pt x="313" y="1174" on="1"/>
        <pt x="313" y="859" on="1"/>
        <pt x="313" y="850" on="0"/>
        <pt x="320" y="836" on="0"/>
      </contour>
    </TTGlyph>
    <TTGlyph name="Hcircumflex" xMin="116" yMin="0" xMax="832" yMax="1912">
      <component glyphName="circumflex" x="318" y="351" flags="0x1004"/>
      <component glyphName="H" x="0" y="0" flags="0x1204"/>
    </TTGlyph>
    <TTGlyph name="I" xMin="117" yMin="0" xMax="315" yMax="1438">
      <contour>
        <pt x="143" y="0" on="1"/>
        <pt x="134" y="0" on="0"/>
        <pt x="124" y="5" on="0"/>
        <pt x="117" y="27" on="0"/>
        <pt x="117" y="47" on="1"/>
        <pt x="117" y="1391" on="1"/>
        <pt x="117" y="1420" on="0"/>
        <pt x="130" y="1438" on="0"/>
        <pt x="143" y="1438" on="1"/>
        <pt x="290" y="1438" on="1"/>
        <pt x="298" y="1438" on="0"/>
        <pt x="308" y="1433" on="0"/>
        <pt x="315" y="1411" on="0"/>
        <pt x="315" y="1391" on="1"/>
        <pt x="315" y="47" on="1"/>
        <pt x="315" y="18" on="0"/>
        <pt x="303" y="0" on="0"/>
        <pt x="290" y="0" on="1"/>
      </contour>
    </TTGlyph>
    <TTGlyph name="IJ" xMin="117" yMin="-155" xMax="846" yMax="1438">
      <component glyphName="J" x="430" y="0" flags="0x1004"/>
      <component glyphName="I" x="0" y="0" flags="0x1004"/>
    </TTGlyph>
    <TTGlyph name="Iacute" xMin="117" yMin="0" xMax="321" yMax="2021">
      <component glyphName="acute" x="-166" y="407" flags="0x1004"/>
      <component glyphName="I" x="0" y="0" flags="0x1204"/>
    </TTGlyph>
    <TTGlyph name="Ibreve" xMin="23" yMin="0" xMax="410" yMax="1771">
      <component glyphName="breve" x="-400" y="284" flags="0x1004"/>
      <component glyphName="I" x="0" y="0" flags="0x1204"/>
    </TTGlyph>
    <TTGlyph name="Icircumflex" xMin="75" yMin="0" xMax="356" yMax="1912">
      <component glyphName="circumflex" x="60" y="351" flags="0x1004"/>
      <component glyphName="I" x="0" y="0" flags="0x1204"/>
    </TTGlyph>
    <TTGlyph name="Idieresis" xMin="46" yMin="0" xMax="386" yMax="1772">
      <component glyphName="dieresis" x="21" y="1576" flags="0x1004"/>
      <component glyphName="I" x="0" y="0" flags="0x1204"/>
    </TTGlyph>
    <TTGlyph name="Idotaccent" xMin="117" yMin="0" xMax="315" yMax="1815">
      <component glyphName="dotaccent" x="74" y="1533" flags="0x1004"/>
      <component glyphName="I" x="0" y="0" flags="0x1204"/>
    </TTGlyph>
    <TTGlyph name="Igrave" xMin="111" yMin="0" xMax="315" yMax="2021">
      <component glyphName="grave" x="-237" y="407" flags="0x1004"/>
      <component glyphName="I" x="0" y="0" flags="0x1204"/>
    </TTGlyph>
    <TTGlyph name="Imacron" xMin="1" yMin="0" xMax="431" yMax="1688">
      <component glyphName="macron" x="-237" y="869" flags="0x1004"/>
      <component glyphName="I" x="0" y="0" flags="0x1204"/>
    </TTGlyph>
    <TTGlyph name="Iogonek" xMin="58" yMin="-350" xMax="347" yMax="1438">
      <component glyphName="ogonek" x="-148" y="2" flags="0x1004"/>
      <component glyphName="I" x="0" y="0" flags="0x1204"/>
    </TTGlyph>
    <TTGlyph name="Itilde" xMin="-19" yMin="0" xMax="450" yMax="1756">
      <component glyphName="tilde" x="-158" y="779" flags="0x1004"/>
      <component glyphName="I" x="0" y="0" flags="0x1204"/>
    </TTGlyph>
    <TTGlyph name="J" xMin="50" yMin="-155" xMax="416" yMax="1438">
      <contour>
        <pt x="63" y="-155" on="1"/>
        <pt x="50" y="-155" on="0"/>
        <pt x="50" y="-124" on="1"/>
        <pt x="50" y="5" on="1"/>
        <pt x="50" y="37" on="0"/>
        <pt x="63" y="39" on="1"/>
        <pt x="88" y="40" on="0"/>
        <pt x="114" y="44" on="0"/>
        <pt x="151" y="56" on="0"/>
        <pt x="169" y="79" on="0"/>
        <pt x="193" y="119" on="0"/>
        <pt x="203" y="180" on="0"/>
        <pt x="214" y="268" on="0"/>
        <pt x="218" y="387" on="0"/>
        <pt x="218" y="464" on="1"/>
        <pt x="218" y="1395" on="1"/>
        <pt x="218" y="1438" on="0"/>
        <pt x="234" y="1438" on="1"/>
        <pt x="399" y="1438" on="1"/>
        <pt x="416" y="1438" on="0"/>
        <pt x="416" y="1395" on="1"/>
        <pt x="416" y="412" on="1"/>
        <pt x="416" y="252" on="0"/>
        <pt x="375" y="32" on="0"/>
        <pt x="320" y="-83" on="0"/>
        <pt x="214" y="-144" on="0"/>
        <pt x="133" y="-155" on="0"/>
      </contour>
    </TTGlyph>
    <TTGlyph name="Jcircumflex" xMin="50" yMin="-155" xMax="442" yMax="1912">
      <component glyphName="circumflex" x="146" y="351" flags="0x1004"/>
      <component glyphName="J" x="0" y="0" flags="0x1204"/>
    </TTGlyph>
    <TTGlyph name="K" xMin="116" yMin="0" xMax="784" yMax="1438">
      <contour>
        <pt x="141" y="0" on="1"/>
        <pt x="116" y="0" on="0"/>
        <pt x="116" y="54" on="1"/>
        <pt x="116" y="1384" on="1"/>
        <pt x="116" y="1438" on="0"/>
        <pt x="141" y="1438" on="1"/>
        <pt x="287" y="1438" on="1"/>
        <pt x="313" y="1438" on="0"/>
        <pt x="313" y="1384" on="1"/>
        <pt x="313" y="725" on="1"/>
        <pt x="558" y="1387" on="1"/>
        <pt x="576" y="1438" on="0"/>
        <pt x="601" y="1438" on="1"/>
        <pt x="749" y="1438" on="1"/>
        <pt x="770" y="1438" on="0"/>
        <pt x="770" y="1415" on="1"/>
        <pt x="770" y="1401" on="0"/>
        <pt x="764" y="1386" on="1"/>
        <pt x="522" y="770" on="1"/>
        <pt x="515" y="746" on="0"/>
        <pt x="515" y="720" on="0"/>
        <pt x="519" y="705" on="1"/>
        <pt x="777" y="55" on="1"/>
        <pt x="784" y="37" on="0"/>
        <pt x="784" y="23" on="1"/>
        <pt x="784" y="0" on="0"/>
        <pt x="771" y="0" on="1"/>
        <pt x="625" y="0" on="1"/>
        <pt x="598" y="0" on="0"/>
        <pt x="578" y="52" on="1"/>
        <pt x="314" y="678" on="1"/>
        <pt x="314" y="52" on="1"/>
        <pt x="314" y="0" on="0"/>
        <pt x="287" y="0" on="1"/>
      </contour>
    </TTGlyph>
    <TTGlyph name="Kcommaaccent" xMin="116" yMin="-704" xMax="784" yMax="1438">
      <component glyphName="comma" x="276" y="-386" flags="0x1004"/>
      <component glyphName="K" x="0" y="0" flags="0x1204"/>
    </TTGlyph>
    <TTGlyph name="L" xMin="116" yMin="0" xMax="612" yMax="1438">
      <contour>
        <pt x="141" y="0" on="1"/>
        <pt x="128" y="0" on="0"/>
        <pt x="116" y="17" on="0"/>
        <pt x="116" y="47" on="1"/>
        <pt x="116" y="1391" on="1"/>
        <pt x="116" y="1421" on="0"/>
        <pt x="128" y="1438" on="0"/>
        <pt x="141" y="1438" on="1"/>
        <pt x="288" y="1438" on="1"/>
        <pt x="301" y="1438" on="0"/>
        <pt x="313" y="1421" on="0"/>
        <pt x="313" y="1391" on="1"/>
        <pt x="313" y="181" on="1"/>
        <pt x="313" y="159" on="0"/>
        <pt x="327" y="159" on="1"/>
        <pt x="587" y="159" on="1"/>
        <pt x="600" y="159" on="0"/>
        <pt x="612" y="145" on="0"/>
        <pt x="612" y="120" on="1"/>
        <pt x="612" y="40" on="1"/>
        <pt x="612" y="15" on="0"/>
        <pt x="600" y="0" on="0"/>
        <pt x="587" y="0" on="1"/>
      </contour>
    </TTGlyph>
    <TTGlyph name="Lacute" xMin="116" yMin="0" xMax="612" yMax="2021">
      <component glyphName="acute" x="-18" y="407" flags="0x1004"/>
      <component glyphName="L" x="0" y="0" flags="0x1204"/>
    </TTGlyph>
    <TTGlyph name="Lcaron" xMin="116" yMin="0" xMax="964" yMax="1454">
      <component glyphName="comma" x="705" y="1190" flags="0x1004"/>
      <component glyphName="L" x="0" y="0" flags="0x1004"/>
    </TTGlyph>
    <TTGlyph name="Lcommaaccent" xMin="116" yMin="-704" xMax="612" yMax="1438">
      <component glyphName="comma" x="190" y="-386" flags="0x1004"/>
      <component glyphName="L" x="0" y="0" flags="0x1204"/>
    </TTGlyph>
    <TTGlyph name="Ldot" xMin="116" yMin="0" xMax="738" yMax="1438">
      <component glyphName="dotaccent" x="499" y="690" flags="0x1004"/>
      <component glyphName="L" x="0" y="0" flags="0x1004"/>
    </TTGlyph>
    <TTGlyph name="Lslash" xMin="12" yMin="0" xMax="612" yMax="1438">
      <contour>
        <pt x="587" y="0" on="1"/>
        <pt x="141" y="0" on="1"/>
        <pt x="128" y="0" on="0"/>
        <pt x="116" y="17" on="0"/>
        <pt x="116" y="47" on="1"/>
        <pt x="116" y="653" on="1"/>
        <pt x="38" y="632" on="1"/>
        <pt x="26" y="630" on="0"/>
        <pt x="12" y="647" on="0"/>
        <pt x="12" y="672" on="1"/>
        <pt x="12" y="759" on="1"/>
        <pt x="12" y="776" on="0"/>
        <pt x="21" y="793" on="0"/>
        <pt x="28" y="796" on="0"/>
        <pt x="38" y="798" on="1"/>
        <pt x="116" y="819" on="1"/>
        <pt x="116" y="1391" on="1"/>
        <pt x="116" y="1421" on="0"/>
        <pt x="128" y="1438" on="0"/>
        <pt x="141" y="1438" on="1"/>
        <pt x="288" y="1438" on="1"/>
        <pt x="301" y="1438" on="0"/>
        <pt x="313" y="1421" on="0"/>
        <pt x="313" y="1391" on="1"/>
        <pt x="313" y="869" on="1"/>
        <pt x="479" y="913" on="1"/>
        <pt x="491" y="916" on="0"/>
        <pt x="504" y="899" on="0"/>
        <pt x="504" y="873" on="1"/>
        <pt x="504" y="786" on="1"/>
        <pt x="504" y="769" on="0"/>
        <pt x="496" y="752" on="0"/>
        <pt x="489" y="749" on="0"/>
        <pt x="479" y="747" on="1"/>
        <pt x="313" y="703" on="1"/>
        <pt x="313" y="181" on="1"/>
        <pt x="313" y="159" on="0"/>
        <pt x="327" y="159" on="1"/>
        <pt x="587" y="159" on="1"/>
        <pt x="600" y="159" on="0"/>
        <pt x="612" y="145" on="0"/>
        <pt x="612" y="120" on="1"/>
        <pt x="612" y="40" on="1"/>
        <pt x="612" y="15" on="0"/>
        <pt x="600" y="0" on="0"/>
      </contour>
    </TTGlyph>
    <TTGlyph name="M" xMin="97" yMin="0" xMax="985" yMax="1438">
      <contour>
        <pt x="121" y="0" on="1"/>
        <pt x="97" y="0" on="0"/>
        <pt x="97" y="49" on="1"/>
        <pt x="97" y="54" on="1"/>
        <pt x="142" y="1381" on="1"/>
        <pt x="143" y="1436" on="0"/>
        <pt x="167" y="1438" on="1"/>
        <pt x="325" y="1438" on="1"/>
        <pt x="340" y="1437" on="0"/>
        <pt x="360" y="1419" on="0"/>
        <pt x="365" y="1391" on="1"/>
        <pt x="534" y="445" on="1"/>
        <pt x="535" y="441" on="0"/>
        <pt x="540" y="437" on="0"/>
        <pt x="545" y="441" on="0"/>
        <pt x="545" y="445" on="1"/>
        <pt x="715" y="1388" on="1"/>
        <pt x="724" y="1436" on="0"/>
        <pt x="754" y="1438" on="1"/>
        <pt x="914" y="1438" on="1"/>
        <pt x="938" y="1436" on="0"/>
        <pt x="938" y="1381" on="1"/>
        <pt x="985" y="54" on="1"/>
        <pt x="985" y="48" on="1"/>
        <pt x="985" y="0" on="0"/>
        <pt x="960" y="0" on="1"/>
        <pt x="850" y="0" on="1"/>
        <pt x="826" y="0" on="0"/>
        <pt x="824" y="54" on="1"/>
        <pt x="793" y="1081" on="1"/>
        <pt x="793" y="1087" on="0"/>
        <pt x="790" y="1088" on="1"/>
        <pt x="787" y="1089" on="0"/>
        <pt x="786" y="1085" on="1"/>
        <pt x="604" y="48" on="1"/>
        <pt x="596" y="0" on="0"/>
        <pt x="570" y="0" on="1"/>
        <pt x="505" y="0" on="1"/>
        <pt x="481" y="0" on="0"/>
        <pt x="471" y="48" on="1"/>
        <pt x="294" y="1080" on="1"/>
        <pt x="293" y="1086" on="0"/>
        <pt x="290" y="1082" on="1"/>
        <pt x="289" y="1080" on="0"/>
        <pt x="289" y="1076" on="1"/>
        <pt x="257" y="54" on="1"/>
        <pt x="257" y="0" on="0"/>
        <pt x="234" y="0" on="1"/>
      </contour>
    </TTGlyph>
    <TTGlyph name="N" xMin="116" yMin="-1" xMax="847" yMax="1438">
      <contour>
        <pt x="142" y="0" on="1"/>
        <pt x="129" y="0" on="0"/>
        <pt x="116" y="20" on="0"/>
        <pt x="116" y="50" on="1"/>
        <pt x="116" y="1385" on="1"/>
        <pt x="116" y="1438" on="0"/>
        <pt x="142" y="1438" on="1"/>
        <pt x="294" y="1438" on="1"/>
        <pt x="315" y="1438" on="0"/>
        <pt x="330" y="1399" on="1"/>
        <pt x="669" y="488" on="1"/>
        <pt x="671" y="481" on="0"/>
        <pt x="675" y="492" on="1"/>
        <pt x="676" y="501" on="1"/>
        <pt x="676" y="1385" on="1"/>
        <pt x="676" y="1438" on="0"/>
        <pt x="703" y="1438" on="1"/>
        <pt x="822" y="1438" on="1"/>
        <pt x="847" y="1438" on="0"/>
        <pt x="847" y="1385" on="1"/>
        <pt x="847" y="46" on="1"/>
        <pt x="847" y="16" on="0"/>
        <pt x="835" y="-1" on="0"/>
        <pt x="822" y="-1" on="1"/>
        <pt x="714" y="-1" on="1"/>
        <pt x="704" y="-1" on="0"/>
        <pt x="681" y="23" on="0"/>
        <pt x="674" y="41" on="1"/>
        <pt x="297" y="1025" on="1"/>
        <pt x="293" y="1033" on="0"/>
        <pt x="291" y="1020" on="1"/>
        <pt x="290" y="1017" on="0"/>
        <pt x="290" y="1013" on="1"/>
        <pt x="290" y="50" on="1"/>
        <pt x="290" y="20" on="0"/>
        <pt x="277" y="0" on="0"/>
        <pt x="263" y="0" on="1"/>
      </contour>
    </TTGlyph>
    <TTGlyph name="Nacute" xMin="116" yMin="-1" xMax="847" yMax="2021">
      <component glyphName="acute" x="100" y="407" flags="0x1004"/>
      <component glyphName="N" x="0" y="0" flags="0x1204"/>
    </TTGlyph>
    <TTGlyph name="Ncaron" xMin="116" yMin="-1" xMax="847" yMax="1912">
      <component glyphName="caron" x="326" y="351" flags="0x1004"/>
      <component glyphName="N" x="0" y="0" flags="0x1204"/>
    </TTGlyph>
    <TTGlyph name="Ncommaaccent" xMin="116" yMin="-705" xMax="847" yMax="1438">
      <component glyphName="comma" x="307" y="-387" flags="0x1004"/>
      <component glyphName="N" x="0" y="0" flags="0x1204"/>
    </TTGlyph>
    <TTGlyph name="Ntilde" xMin="116" yMin="-1" xMax="847" yMax="1756">
      <component glyphName="tilde" x="108" y="779" flags="0x1004"/>
      <component glyphName="N" x="0" y="0" flags="0x1204"/>
    </TTGlyph>
    <TTGlyph name="O" xMin="87" yMin="-15" xMax="837" yMax="1454">
      <contour>
        <pt x="461" y="143" on="1"/>
        <pt x="531" y="143" on="0"/>
        <pt x="605" y="238" on="0"/>
        <pt x="639" y="487" on="0"/>
        <pt x="639" y="726" on="1"/>
        <pt x="639" y="957" on="0"/>
        <pt x="607" y="1195" on="0"/>
        <pt x="534" y="1292" on="0"/>
        <pt x="462" y="1292" on="1"/>
        <pt x="392" y="1292" on="0"/>
        <pt x="317" y="1193" on="0"/>
        <pt x="285" y="953" on="0"/>
        <pt x="285" y="726" on="1"/>
        <pt x="285" y="489" on="0"/>
        <pt x="319" y="240" on="0"/>
        <pt x="392" y="143" on="0"/>
      </contour>
      <contour>
        <pt x="462" y="-15" on="1"/>
        <pt x="379" y="-15" on="0"/>
        <pt x="264" y="21" on="0"/>
        <pt x="170" y="116" on="0"/>
        <pt x="116" y="284" on="0"/>
        <pt x="87" y="541" on="0"/>
        <pt x="87" y="726" on="1"/>
        <pt x="87" y="874" on="0"/>
        <pt x="106" y="1098" on="0"/>
        <pt x="149" y="1260" on="0"/>
        <pt x="207" y="1366" on="0"/>
        <pt x="295" y="1429" on="0"/>
        <pt x="395" y="1454" on="0"/>
        <pt x="462" y="1454" on="1"/>
        <pt x="543" y="1454" on="0"/>
        <pt x="658" y="1417" on="0"/>
        <pt x="752" y="1323" on="0"/>
        <pt x="808" y="1158" on="0"/>
        <pt x="837" y="905" on="0"/>
        <pt x="837" y="726" on="1"/>
        <pt x="837" y="540" on="0"/>
        <pt x="809" y="282" on="0"/>
        <pt x="755" y="114" on="0"/>
        <pt x="661" y="21" on="0"/>
        <pt x="546" y="-15" on="0"/>
      </contour>
    </TTGlyph>
    <TTGlyph name="OE" xMin="87" yMin="0" xMax="1118" yMax="1438">
      <contour>
        <pt x="498" y="0" on="1"/>
        <pt x="450" y="0" on="0"/>
        <pt x="370" y="14" on="0"/>
        <pt x="283" y="53" on="0"/>
        <pt x="216" y="119" on="0"/>
        <pt x="153" y="229" on="0"/>
        <pt x="112" y="378" on="0"/>
        <pt x="87" y="591" on="0"/>
        <pt x="87" y="722" on="1"/>
        <pt x="87" y="885" on="0"/>
        <pt x="130" y="1137" on="0"/>
        <pt x="202" y="1296" on="0"/>
        <pt x="305" y="1398" on="0"/>
        <pt x="414" y="1438" on="0"/>
        <pt x="479" y="1438" on="1"/>
        <pt x="1076" y="1438" on="1"/>
        <pt x="1087" y="1438" on="0"/>
        <pt x="1101" y="1405" on="0"/>
        <pt x="1101" y="1379" on="1"/>
        <pt x="1101" y="1339" on="1"/>
        <pt x="1101" y="1279" on="0"/>
        <pt x="1076" y="1279" on="1"/>
        <pt x="789" y="1279" on="1"/>
        <pt x="778" y="1279" on="0"/>
        <pt x="778" y="1246" on="1"/>
        <pt x="778" y="838" on="1"/>
        <pt x="778" y="828" on="0"/>
        <pt x="784" y="811" on="0"/>
        <pt x="787" y="811" on="1"/>
        <pt x="1030" y="811" on="1"/>
        <pt x="1041" y="811" on="0"/>
        <pt x="1056" y="780" on="0"/>
        <pt x="1056" y="753" on="1"/>
        <pt x="1056" y="712" on="1"/>
        <pt x="1056" y="653" on="0"/>
        <pt x="1030" y="653" on="1"/>
        <pt x="788" y="653" on="1"/>
        <pt x="784" y="653" on="0"/>
        <pt x="778" y="633" on="0"/>
        <pt x="778" y="623" on="1"/>
        <pt x="778" y="188" on="1"/>
        <pt x="778" y="159" on="0"/>
        <pt x="786" y="159" on="1"/>
        <pt x="1094" y="159" on="1"/>
        <pt x="1118" y="159" on="0"/>
        <pt x="1118" y="99" on="1"/>
        <pt x="1118" y="60" on="1"/>
        <pt x="1118" y="0" on="0"/>
        <pt x="1094" y="0" on="1"/>
      </contour>
      <contour>
        <pt x="572" y="158" on="1"/>
        <pt x="576" y="158" on="0"/>
        <pt x="576" y="718" on="1"/>
        <pt x="576" y="1279" on="0"/>
        <pt x="572" y="1279" on="1"/>
        <pt x="489" y="1279" on="1"/>
        <pt x="285" y="1279" on="0"/>
        <pt x="285" y="722" on="1"/>
        <pt x="285" y="563" on="0"/>
        <pt x="314" y="340" on="0"/>
        <pt x="369" y="214" on="0"/>
        <pt x="441" y="158" on="0"/>
        <pt x="489" y="158" on="1"/>
      </contour>
    </TTGlyph>
    <TTGlyph name="Oacute" xMin="87" yMin="-15" xMax="837" yMax="2021">
      <component glyphName="acute" x="80" y="407" flags="0x1004"/>
      <component glyphName="O" x="0" y="0" flags="0x1204"/>
    </TTGlyph>
    <TTGlyph name="Obreve" xMin="87" yMin="-15" xMax="837" yMax="1771">
      <component glyphName="breve" x="-154" y="284" flags="0x1004"/>
      <component glyphName="O" x="0" y="0" flags="0x1204"/>
    </TTGlyph>
    <TTGlyph name="Ocircumflex" xMin="87" yMin="-15" xMax="837" yMax="1912">
      <component glyphName="circumflex" x="306" y="351" flags="0x1004"/>
      <component glyphName="O" x="0" y="0" flags="0x1204"/>
    </TTGlyph>
    <TTGlyph name="Odieresis" xMin="87" yMin="-15" xMax="837" yMax="1772">
      <component glyphName="dieresis" x="267" y="1576" flags="0x1004"/>
      <component glyphName="O" x="0" y="0" flags="0x1204"/>
    </TTGlyph>
    <TTGlyph name="Ograve" xMin="87" yMin="-15" xMax="837" yMax="2021">
      <component glyphName="grave" x="9" y="407" flags="0x1004"/>
      <component glyphName="O" x="0" y="0" flags="0x1204"/>
    </TTGlyph>
    <TTGlyph name="Ohungarumlaut" xMin="87" yMin="-15" xMax="837" yMax="2021">
      <component glyphName="hungarumlaut" x="165" y="407" flags="0x1004"/>
      <component glyphName="O" x="0" y="0" flags="0x1204"/>
    </TTGlyph>
    <TTGlyph name="Omacron" xMin="87" yMin="-15" xMax="837" yMax="1688">
      <component glyphName="macron" x="9" y="869" flags="0x1004"/>
      <component glyphName="O" x="0" y="0" flags="0x1204"/>
    </TTGlyph>
    <TTGlyph name="Oslash" xMin="87" yMin="-206" xMax="837" yMax="1647">
      <contour>
        <pt x="304" y="-205" on="1"/>
        <pt x="301" y="-205" on="0"/>
        <pt x="297" y="-177" on="0"/>
        <pt x="298" y="-172" on="1"/>
        <pt x="323" y="2" on="1"/>
        <pt x="239" y="29" on="0"/>
        <pt x="138" y="180" on="0"/>
        <pt x="87" y="483" on="0"/>
        <pt x="87" y="728" on="1"/>
        <pt x="87" y="906" on="0"/>
        <pt x="117" y="1159" on="0"/>
        <pt x="172" y="1325" on="0"/>
        <pt x="267" y="1421" on="0"/>
        <pt x="381" y="1459" on="0"/>
        <pt x="462" y="1459" on="1"/>
        <pt x="495" y="1459" on="0"/>
        <pt x="528" y="1454" on="1"/>
        <pt x="551" y="1614" on="1"/>
        <pt x="556" y="1647" on="0"/>
        <pt x="566" y="1647" on="1"/>
        <pt x="641" y="1647" on="1"/>
        <pt x="645" y="1647" on="0"/>
        <pt x="649" y="1625" on="0"/>
        <pt x="647" y="1614" on="1"/>
        <pt x="621" y="1433" on="1"/>
        <pt x="735" y="1385" on="0"/>
        <pt x="837" y="1064" on="0"/>
        <pt x="837" y="728" on="1"/>
        <pt x="837" y="542" on="0"/>
        <pt x="809" y="283" on="0"/>
        <pt x="755" y="114" on="0"/>
        <pt x="661" y="20" on="0"/>
        <pt x="546" y="-16" on="0"/>
        <pt x="462" y="-16" on="1"/>
        <pt x="446" y="-16" on="0"/>
        <pt x="416" y="-14" on="1"/>
        <pt x="394" y="-173" on="1"/>
        <pt x="391" y="-206" on="0"/>
        <pt x="379" y="-206" on="1"/>
      </contour>
      <contour>
        <pt x="354" y="225" on="1"/>
        <pt x="505" y="1291" on="1"/>
        <pt x="483" y="1296" on="0"/>
        <pt x="462" y="1296" on="1"/>
        <pt x="392" y="1296" on="0"/>
        <pt x="317" y="1196" on="0"/>
        <pt x="285" y="955" on="0"/>
        <pt x="285" y="728" on="1"/>
        <pt x="285" y="513" on="0"/>
        <pt x="317" y="278" on="0"/>
      </contour>
      <contour>
        <pt x="461" y="145" on="1"/>
        <pt x="531" y="145" on="0"/>
        <pt x="605" y="240" on="0"/>
        <pt x="639" y="488" on="0"/>
        <pt x="639" y="728" on="1"/>
        <pt x="639" y="1079" on="0"/>
        <pt x="586" y="1184" on="1"/>
        <pt x="440" y="147" on="1"/>
        <pt x="454" y="145" on="0"/>
      </contour>
    </TTGlyph>
    <TTGlyph name="Otilde" xMin="87" yMin="-15" xMax="837" yMax="1756">
      <component glyphName="tilde" x="88" y="779" flags="0x1004"/>
      <component glyphName="O" x="0" y="0" flags="0x1204"/>
    </TTGlyph>
    <TTGlyph name="P" xMin="116" yMin="0" xMax="807" yMax="1438">
      <contour>
        <pt x="141" y="0" on="1"/>
        <pt x="116" y="0" on="0"/>
        <pt x="116" y="52" on="1"/>
        <pt x="116" y="1391" on="1"/>
        <pt x="116" y="1420" on="0"/>
        <pt x="128" y="1438" on="0"/>
        <pt x="141" y="1438" on="1"/>
        <pt x="435" y="1438" on="1"/>
        <pt x="481" y="1438" on="0"/>
        <pt x="548" y="1432" on="0"/>
        <pt x="631" y="1410" on="0"/>
        <pt x="689" y="1371" on="0"/>
        <pt x="748" y="1300" on="0"/>
        <pt x="784" y="1202" on="0"/>
        <pt x="807" y="1057" on="0"/>
        <pt x="807" y="965" on="1"/>
        <pt x="807" y="845" on="0"/>
        <pt x="768" y="671" on="0"/>
        <pt x="708" y="573" on="0"/>
        <pt x="613" y="516" on="0"/>
        <pt x="525" y="500" on="0"/>
        <pt x="466" y="500" on="1"/>
        <pt x="324" y="500" on="1"/>
        <pt x="313" y="500" on="0"/>
        <pt x="313" y="482" on="1"/>
        <pt x="313" y="52" on="1"/>
        <pt x="313" y="0" on="0"/>
        <pt x="288" y="0" on="1"/>
      </contour>
      <contour>
        <pt x="323" y="660" on="1"/>
        <pt x="443" y="660" on="1"/>
        <pt x="484" y="660" on="0"/>
        <pt x="536" y="673" on="0"/>
        <pt x="578" y="709" on="0"/>
        <pt x="599" y="779" on="0"/>
        <pt x="610" y="884" on="0"/>
        <pt x="610" y="964" on="1"/>
        <pt x="610" y="1050" on="0"/>
        <pt x="591" y="1169" on="0"/>
        <pt x="563" y="1235" on="0"/>
        <pt x="510" y="1270" on="0"/>
        <pt x="462" y="1279" on="0"/>
        <pt x="424" y="1279" on="1"/>
        <pt x="323" y="1279" on="1"/>
        <pt x="313" y="1279" on="0"/>
        <pt x="313" y="1259" on="1"/>
        <pt x="313" y="678" on="1"/>
        <pt x="313" y="660" on="0"/>
      </contour>
    </TTGlyph>
    <TTGlyph name="Q" xMin="87" yMin="-399" xMax="865" yMax="1454">
      <contour>
        <pt x="542" y="-346" on="1"/>
        <pt x="468" y="-15" on="1"/>
        <pt x="447" y="-17" on="0"/>
        <pt x="430" y="-16" on="1"/>
        <pt x="356" y="-11" on="0"/>
        <pt x="253" y="31" on="0"/>
        <pt x="166" y="129" on="0"/>
        <pt x="115" y="294" on="0"/>
        <pt x="87" y="546" on="0"/>
        <pt x="87" y="722" on="1"/>
        <pt x="87" y="903" on="0"/>
        <pt x="120" y="1160" on="0"/>
        <pt x="179" y="1324" on="0"/>
        <pt x="278" y="1419" on="0"/>
        <pt x="394" y="1454" on="0"/>
        <pt x="558" y="1454" on="0"/>
        <pt x="674" y="1419" on="0"/>
        <pt x="774" y="1326" on="0"/>
        <pt x="832" y="1162" on="0"/>
        <pt x="865" y="904" on="0"/>
        <pt x="865" y="722" on="1"/>
        <pt x="865" y="472" on="0"/>
        <pt x="810" y="168" on="0"/>
        <pt x="705" y="25" on="0"/>
        <pt x="617" y="-1" on="1"/>
        <pt x="622" y="-28" on="0"/>
        <pt x="658" y="-189" on="0"/>
        <pt x="686" y="-322" on="0"/>
        <pt x="686" y="-333" on="1"/>
        <pt x="689" y="-352" on="0"/>
        <pt x="683" y="-374" on="0"/>
        <pt x="669" y="-379" on="1"/>
        <pt x="662" y="-381" on="0"/>
        <pt x="588" y="-399" on="0"/>
        <pt x="581" y="-399" on="1"/>
        <pt x="554" y="-399" on="0"/>
      </contour>
      <contour>
        <pt x="475" y="143" on="1"/>
        <pt x="547" y="143" on="0"/>
        <pt x="625" y="228" on="0"/>
        <pt x="667" y="481" on="0"/>
        <pt x="667" y="722" on="1"/>
        <pt x="667" y="955" on="0"/>
        <pt x="628" y="1202" on="0"/>
        <pt x="549" y="1292" on="0"/>
        <pt x="476" y="1292" on="1"/>
        <pt x="404" y="1292" on="0"/>
        <pt x="325" y="1199" on="0"/>
        <pt x="285" y="951" on="0"/>
        <pt x="285" y="722" on="1"/>
        <pt x="285" y="542" on="0"/>
        <pt x="306" y="314" on="0"/>
        <pt x="355" y="188" on="0"/>
        <pt x="422" y="143" on="0"/>
      </contour>
    </TTGlyph>
    <TTGlyph name="R" xMin="116" yMin="-1" xMax="822" yMax="1438">
      <contour>
        <pt x="141" y="0" on="1"/>
        <pt x="128" y="0" on="0"/>
        <pt x="116" y="17" on="0"/>
        <pt x="116" y="45" on="1"/>
        <pt x="116" y="1392" on="1"/>
        <pt x="116" y="1422" on="0"/>
        <pt x="128" y="1438" on="0"/>
        <pt x="141" y="1438" on="1"/>
        <pt x="477" y="1438" on="1"/>
        <pt x="540" y="1438" on="0"/>
        <pt x="629" y="1424" on="0"/>
        <pt x="723" y="1378" on="0"/>
        <pt x="780" y="1296" on="0"/>
        <pt x="817" y="1154" on="0"/>
        <pt x="817" y="1054" on="1"/>
        <pt x="817" y="979" on="0"/>
        <pt x="795" y="868" on="0"/>
        <pt x="751" y="799" on="0"/>
        <pt x="700" y="759" on="0"/>
        <pt x="664" y="745" on="1"/>
        <pt x="661" y="742" on="0"/>
        <pt x="661" y="736" on="0"/>
        <pt x="664" y="734" on="1"/>
        <pt x="700" y="717" on="0"/>
        <pt x="745" y="681" on="0"/>
        <pt x="791" y="612" on="0"/>
        <pt x="815" y="494" on="0"/>
        <pt x="818" y="408" on="1"/>
        <pt x="822" y="330" on="0"/>
        <pt x="822" y="50" on="1"/>
        <pt x="822" y="0" on="0"/>
        <pt x="804" y="0" on="1"/>
        <pt x="649" y="-1" on="0"/>
        <pt x="645" y="-1" on="1"/>
        <pt x="629" y="-1" on="0"/>
        <pt x="628" y="44" on="1"/>
        <pt x="628" y="51" on="0"/>
        <pt x="616" y="485" on="0"/>
        <pt x="609" y="518" on="1"/>
        <pt x="606" y="559" on="0"/>
        <pt x="579" y="614" on="0"/>
        <pt x="536" y="639" on="0"/>
        <pt x="494" y="648" on="0"/>
        <pt x="467" y="648" on="1"/>
        <pt x="324" y="648" on="1"/>
        <pt x="313" y="648" on="0"/>
        <pt x="313" y="626" on="1"/>
        <pt x="313" y="45" on="1"/>
        <pt x="313" y="17" on="0"/>
        <pt x="301" y="0" on="0"/>
        <pt x="288" y="0" on="1"/>
      </contour>
      <contour>
        <pt x="323" y="804" on="1"/>
        <pt x="452" y="804" on="1"/>
        <pt x="619" y="804" on="0"/>
        <pt x="619" y="1047" on="1"/>
        <pt x="619" y="1176" on="0"/>
        <pt x="528" y="1279" on="0"/>
        <pt x="421" y="1279" on="1"/>
        <pt x="324" y="1279" on="1"/>
        <pt x="313" y="1279" on="0"/>
        <pt x="313" y="1259" on="1"/>
        <pt x="313" y="831" on="1"/>
        <pt x="313" y="804" on="0"/>
      </contour>
    </TTGlyph>
    <TTGlyph name="Racute" xMin="116" yMin="-1" xMax="822" yMax="2021">
      <component glyphName="acute" x="87" y="407" flags="0x1004"/>
      <component glyphName="R" x="0" y="0" flags="0x1204"/>
    </TTGlyph>
    <TTGlyph name="Rcaron" xMin="116" yMin="-1" xMax="822" yMax="1912">
      <component glyphName="caron" x="314" y="351" flags="0x1004"/>
      <component glyphName="R" x="0" y="0" flags="0x1204"/>
    </TTGlyph>
    <TTGlyph name="Rcommaaccent" xMin="116" yMin="-705" xMax="822" yMax="1438">
      <component glyphName="comma" x="294" y="-387" flags="0x1004"/>
      <component glyphName="R" x="0" y="0" flags="0x1204"/>
    </TTGlyph>
    <TTGlyph name="S" xMin="41" yMin="-15" xMax="724" yMax="1454">
      <contour>
        <pt x="407" y="1454" on="1"/>
        <pt x="595" y="1454" on="0"/>
        <pt x="700" y="1317" on="1"/>
        <pt x="710" y="1304" on="0"/>
        <pt x="710" y="1286" on="1"/>
        <pt x="710" y="1251" on="0"/>
        <pt x="651" y="1173" on="0"/>
        <pt x="631" y="1173" on="1"/>
        <pt x="625" y="1173" on="0"/>
        <pt x="622" y="1177" on="1"/>
        <pt x="533" y="1285" on="0"/>
        <pt x="410" y="1285" on="1"/>
        <pt x="341" y="1285" on="0"/>
        <pt x="257" y="1168" on="0"/>
        <pt x="257" y="1084" on="1"/>
        <pt x="257" y="1005" on="0"/>
        <pt x="329" y="905" on="0"/>
        <pt x="396" y="862" on="1"/>
        <pt x="523" y="780" on="1"/>
        <pt x="724" y="650" on="0"/>
        <pt x="724" y="400" on="1"/>
        <pt x="724" y="217" on="0"/>
        <pt x="538" y="-15" on="0"/>
        <pt x="381" y="-15" on="1"/>
        <pt x="169" y="-15" on="0"/>
        <pt x="47" y="168" on="1"/>
        <pt x="41" y="177" on="0"/>
        <pt x="41" y="191" on="1"/>
        <pt x="41" y="226" on="0"/>
        <pt x="98" y="309" on="0"/>
        <pt x="124" y="309" on="1"/>
        <pt x="134" y="309" on="0"/>
        <pt x="142" y="300" on="1"/>
        <pt x="254" y="157" on="0"/>
        <pt x="381" y="157" on="1"/>
        <pt x="459" y="157" on="0"/>
        <pt x="547" y="278" on="0"/>
        <pt x="547" y="371" on="1"/>
        <pt x="547" y="455" on="0"/>
        <pt x="477" y="560" on="0"/>
        <pt x="405" y="607" on="1"/>
        <pt x="277" y="693" on="1"/>
        <pt x="235" y="721" on="0"/>
        <pt x="173" y="781" on="0"/>
        <pt x="116" y="866" on="0"/>
        <pt x="85" y="981" on="0"/>
        <pt x="85" y="1050" on="1"/>
        <pt x="85" y="1230" on="0"/>
        <pt x="260" y="1454" on="0"/>
      </contour>
    </TTGlyph>
    <TTGlyph name="Sacute" xMin="41" yMin="-15" xMax="724" yMax="2021">
      <component glyphName="acute" x="1" y="407" flags="0x1004"/>
      <component glyphName="S" x="0" y="0" flags="0x1204"/>
    </TTGlyph>
    <TTGlyph name="Scaron" xMin="41" yMin="-15" xMax="724" yMax="1912">
      <component glyphName="caron" x="227" y="351" flags="0x1004"/>
      <component glyphName="S" x="0" y="0" flags="0x1204"/>
    </TTGlyph>
    <TTGlyph name="Scedilla" xMin="41" yMin="-591" xMax="724" yMax="1454">
      <component glyphName="cedilla" x="74" y="0" flags="0x1004"/>
      <component glyphName="S" x="0" y="0" flags="0x1004"/>
    </TTGlyph>
    <TTGlyph name="Scircumflex" xMin="41" yMin="-15" xMax="724" yMax="1912">
      <component glyphName="circumflex" x="227" y="351" flags="0x1004"/>
      <component glyphName="S" x="0" y="0" flags="0x1204"/>
    </TTGlyph>
    <TTGlyph name="Scommaaccent" xMin="41" yMin="-719" xMax="724" yMax="1454">
      <component glyphName="comma" x="208" y="-401" flags="0x1004"/>
      <component glyphName="S" x="0" y="0" flags="0x1204"/>
    </TTGlyph>
    <TTGlyph name="T" xMin="24" yMin="0" xMax="640" yMax="1438">
      <contour>
        <pt x="260" y="0" on="1"/>
        <pt x="248" y="0" on="0"/>
        <pt x="235" y="19" on="0"/>
        <pt x="235" y="48" on="1"/>
        <pt x="235" y="1252" on="1"/>
        <pt x="235" y="1277" on="0"/>
        <pt x="224" y="1277" on="1"/>
        <pt x="50" y="1277" on="1"/>
        <pt x="40" y="1277" on="0"/>
        <pt x="31" y="1280" on="0"/>
        <pt x="24" y="1297" on="0"/>
        <pt x="24" y="1315" on="1"/>
        <pt x="24" y="1394" on="1"/>
        <pt x="24" y="1421" on="0"/>
        <pt x="36" y="1438" on="0"/>
        <pt x="50" y="1438" on="1"/>
        <pt x="615" y="1438" on="1"/>
        <pt x="628" y="1438" on="0"/>
        <pt x="640" y="1421" on="0"/>
        <pt x="640" y="1394" on="1"/>
        <pt x="640" y="1315" on="1"/>
        <pt x="640" y="1290" on="0"/>
        <pt x="629" y="1277" on="0"/>
        <pt x="615" y="1277" on="1"/>
        <pt x="444" y="1277" on="1"/>
        <pt x="433" y="1277" on="0"/>
        <pt x="433" y="1252" on="1"/>
        <pt x="433" y="48" on="1"/>
        <pt x="433" y="18" on="0"/>
        <pt x="420" y="0" on="0"/>
        <pt x="407" y="0" on="1"/>
      </contour>
    </TTGlyph>
    <TTGlyph name="Tcaron" xMin="24" yMin="0" xMax="640" yMax="1912">
      <component glyphName="caron" x="177" y="351" flags="0x1004"/>
      <component glyphName="T" x="0" y="0" flags="0x1204"/>
    </TTGlyph>
    <TTGlyph name="Thorn" xMin="116" yMin="0" xMax="807" yMax="1437">
      <contour>
        <pt x="141" y="0" on="1"/>
        <pt x="116" y="0" on="0"/>
        <pt x="116" y="52" on="1"/>
        <pt x="116" y="1385" on="1"/>
        <pt x="116" y="1437" on="0"/>
        <pt x="141" y="1437" on="1"/>
        <pt x="288" y="1437" on="1"/>
        <pt x="313" y="1437" on="0"/>
        <pt x="313" y="1385" on="1"/>
        <pt x="313" y="1216" on="1"/>
        <pt x="435" y="1216" on="1"/>
        <pt x="471" y="1216" on="0"/>
        <pt x="523" y="1214" on="0"/>
        <pt x="590" y="1204" on="0"/>
        <pt x="638" y="1186" on="0"/>
        <pt x="694" y="1154" on="0"/>
        <pt x="733" y="1109" on="0"/>
        <pt x="771" y="1042" on="0"/>
        <pt x="793" y="957" on="0"/>
        <pt x="807" y="843" on="0"/>
        <pt x="807" y="774" on="1"/>
        <pt x="807" y="692" on="0"/>
        <pt x="787" y="561" on="0"/>
        <pt x="754" y="471" on="0"/>
        <pt x="701" y="407" on="0"/>
        <pt x="647" y="370" on="0"/>
        <pt x="572" y="349" on="0"/>
        <pt x="508" y="343" on="0"/>
        <pt x="466" y="343" on="1"/>
        <pt x="324" y="343" on="1"/>
        <pt x="313" y="343" on="0"/>
        <pt x="313" y="324" on="1"/>
        <pt x="313" y="52" on="1"/>
        <pt x="313" y="0" on="0"/>
        <pt x="288" y="0" on="1"/>
      </contour>
      <contour>
        <pt x="323" y="502" on="1"/>
        <pt x="443" y="502" on="1"/>
        <pt x="496" y="502" on="0"/>
        <pt x="552" y="517" on="0"/>
        <pt x="596" y="574" on="0"/>
        <pt x="610" y="680" on="0"/>
        <pt x="610" y="773" on="1"/>
        <pt x="610" y="832" on="0"/>
        <pt x="600" y="921" on="0"/>
        <pt x="586" y="981" on="0"/>
        <pt x="556" y="1022" on="0"/>
        <pt x="531" y="1044" on="0"/>
        <pt x="486" y="1055" on="0"/>
        <pt x="453" y="1057" on="0"/>
        <pt x="424" y="1057" on="1"/>
        <pt x="323" y="1057" on="1"/>
        <pt x="313" y="1057" on="0"/>
        <pt x="313" y="1037" on="1"/>
        <pt x="313" y="521" on="1"/>
        <pt x="313" y="502" on="0"/>
      </contour>
    </TTGlyph>
    <TTGlyph name="U" xMin="100" yMin="-15" xMax="852" yMax="1438">
      <contour>
        <pt x="480" y="-15" on="1"/>
        <pt x="426" y="-15" on="0"/>
        <pt x="348" y="-6" on="0"/>
        <pt x="264" y="23" on="0"/>
        <pt x="206" y="75" on="0"/>
        <pt x="151" y="164" on="0"/>
        <pt x="119" y="290" on="0"/>
        <pt x="100" y="468" on="0"/>
        <pt x="100" y="583" on="1"/>
        <pt x="100" y="1391" on="1"/>
        <pt x="100" y="1420" on="0"/>
        <pt x="113" y="1438" on="0"/>
        <pt x="126" y="1438" on="1"/>
        <pt x="273" y="1438" on="1"/>
        <pt x="281" y="1438" on="0"/>
        <pt x="291" y="1433" on="0"/>
        <pt x="298" y="1411" on="0"/>
        <pt x="298" y="1391" on="1"/>
        <pt x="298" y="589" on="1"/>
        <pt x="298" y="471" on="0"/>
        <pt x="312" y="311" on="0"/>
        <pt x="338" y="213" on="0"/>
        <pt x="385" y="162" on="0"/>
        <pt x="437" y="145" on="0"/>
        <pt x="479" y="145" on="1"/>
        <pt x="532" y="145" on="0"/>
        <pt x="590" y="169" on="0"/>
        <pt x="638" y="259" on="0"/>
        <pt x="655" y="437" on="0"/>
        <pt x="655" y="589" on="1"/>
        <pt x="655" y="1391" on="1"/>
        <pt x="655" y="1421" on="0"/>
        <pt x="667" y="1438" on="0"/>
        <pt x="680" y="1438" on="1"/>
        <pt x="828" y="1438" on="1"/>
        <pt x="836" y="1438" on="0"/>
        <pt x="845" y="1433" on="0"/>
        <pt x="852" y="1411" on="0"/>
        <pt x="852" y="1391" on="1"/>
        <pt x="852" y="583" on="1"/>
        <pt x="852" y="467" on="0"/>
        <pt x="833" y="286" on="0"/>
        <pt x="801" y="161" on="0"/>
        <pt x="746" y="73" on="0"/>
        <pt x="689" y="22" on="0"/>
        <pt x="606" y="-7" on="0"/>
        <pt x="532" y="-15" on="0"/>
      </contour>
    </TTGlyph>
    <TTGlyph name="Uacute" xMin="100" yMin="-15" xMax="852" yMax="2021">
      <component glyphName="acute" x="94" y="407" flags="0x1004"/>
      <component glyphName="U" x="0" y="0" flags="0x1204"/>
    </TTGlyph>
    <TTGlyph name="Ubreve" xMin="100" yMin="-15" xMax="852" yMax="1771">
      <component glyphName="breve" x="-140" y="284" flags="0x1004"/>
      <component glyphName="U" x="0" y="0" flags="0x1204"/>
    </TTGlyph>
    <TTGlyph name="Ucircumflex" xMin="100" yMin="-15" xMax="852" yMax="1912">
      <component glyphName="circumflex" x="320" y="351" flags="0x1004"/>
      <component glyphName="U" x="0" y="0" flags="0x1204"/>
    </TTGlyph>
    <TTGlyph name="Udieresis" xMin="100" yMin="-15" xMax="852" yMax="1772">
      <component glyphName="dieresis" x="281" y="1576" flags="0x1004"/>
      <component glyphName="U" x="0" y="0" flags="0x1204"/>
    </TTGlyph>
    <TTGlyph name="Ugrave" xMin="100" yMin="-15" xMax="852" yMax="2021">
      <component glyphName="grave" x="23" y="407" flags="0x1004"/>
      <component glyphName="U" x="0" y="0" flags="0x1204"/>
    </TTGlyph>
    <TTGlyph name="Uhungarumlaut" xMin="100" yMin="-15" xMax="852" yMax="2021">
      <component glyphName="hungarumlaut" x="179" y="407" flags="0x1004"/>
      <component glyphName="U" x="0" y="0" flags="0x1204"/>
    </TTGlyph>
    <TTGlyph name="Umacron" xMin="100" yMin="-15" xMax="852" yMax="1688">
      <component glyphName="macron" x="23" y="869" flags="0x1004"/>
      <component glyphName="U" x="0" y="0" flags="0x1204"/>
    </TTGlyph>
    <TTGlyph name="Uogonek" xMin="100" yMin="-356" xMax="852" yMax="1438">
      <component glyphName="ogonek" x="166" y="-4" flags="0x1004"/>
      <component glyphName="U" x="0" y="0" flags="0x1204"/>
    </TTGlyph>
    <TTGlyph name="Uring" xMin="100" yMin="-15" xMax="852" yMax="1968">
      <component glyphName="ring" x="-174" y="456" flags="0x1004"/>
      <component glyphName="U" x="0" y="0" flags="0x1204"/>
    </TTGlyph>
    <TTGlyph name="Utilde" xMin="100" yMin="-15" xMax="852" yMax="1756">
      <component glyphName="tilde" x="102" y="779" flags="0x1004"/>
      <component glyphName="U" x="0" y="0" flags="0x1204"/>
    </TTGlyph>
    <TTGlyph name="V" xMin="43" yMin="0" xMax="757" yMax="1438">
      <contour>
        <pt x="332" y="0" on="1"/>
        <pt x="307" y="2" on="0"/>
        <pt x="295" y="64" on="1"/>
        <pt x="45" y="1371" on="1"/>
        <pt x="43" y="1389" on="0"/>
        <pt x="43" y="1396" on="1"/>
        <pt x="43" y="1438" on="0"/>
        <pt x="59" y="1438" on="1"/>
        <pt x="206" y="1438" on="1"/>
        <pt x="232" y="1438" on="0"/>
        <pt x="243" y="1373" on="1"/>
        <pt x="416" y="326" on="1"/>
        <pt x="584" y="1373" on="1"/>
        <pt x="594" y="1438" on="0"/>
        <pt x="621" y="1438" on="1"/>
        <pt x="742" y="1438" on="1"/>
        <pt x="757" y="1438" on="0"/>
        <pt x="757" y="1399" on="1"/>
        <pt x="757" y="1381" on="0"/>
        <pt x="755" y="1371" on="1"/>
        <pt x="516" y="64" on="1"/>
        <pt x="505" y="2" on="0"/>
        <pt x="479" y="0" on="1"/>
      </contour>
    </TTGlyph>
    <TTGlyph name="W" xMin="53" yMin="0" xMax="1081" yMax="1438">
      <contour>
        <pt x="272" y="0" on="1"/>
        <pt x="246" y="2" on="0"/>
        <pt x="236" y="69" on="1"/>
        <pt x="55" y="1369" on="1"/>
        <pt x="53" y="1379" on="0"/>
        <pt x="53" y="1397" on="1"/>
        <pt x="53" y="1438" on="0"/>
        <pt x="69" y="1438" on="1"/>
        <pt x="200" y="1438" on="1"/>
        <pt x="212" y="1438" on="0"/>
        <pt x="232" y="1400" on="0"/>
        <pt x="236" y="1368" on="1"/>
        <pt x="347" y="419" on="1"/>
        <pt x="482" y="1365" on="1"/>
        <pt x="486" y="1396" on="0"/>
        <pt x="507" y="1429" on="0"/>
        <pt x="519" y="1429" on="1"/>
        <pt x="627" y="1429" on="1"/>
        <pt x="653" y="1426" on="0"/>
        <pt x="662" y="1365" on="1"/>
        <pt x="805" y="399" on="1"/>
        <pt x="917" y="1369" on="1"/>
        <pt x="921" y="1400" on="0"/>
        <pt x="940" y="1438" on="0"/>
        <pt x="952" y="1438" on="1"/>
        <pt x="1065" y="1438" on="1"/>
        <pt x="1081" y="1438" on="0"/>
        <pt x="1081" y="1397" on="1"/>
        <pt x="1081" y="1384" on="0"/>
        <pt x="1078" y="1369" on="1"/>
        <pt x="901" y="69" on="1"/>
        <pt x="891" y="2" on="0"/>
        <pt x="867" y="0" on="1"/>
        <pt x="745" y="0" on="1"/>
        <pt x="719" y="2" on="0"/>
        <pt x="709" y="70" on="1"/>
        <pt x="559" y="1003" on="1"/>
        <pt x="414" y="69" on="1"/>
        <pt x="406" y="5" on="0"/>
        <pt x="382" y="0" on="1"/>
      </contour>
    </TTGlyph>
    <TTGlyph name="Wacute" xMin="53" yMin="0" xMax="1081" yMax="2021">
      <component glyphName="acute" x="185" y="407" flags="0x1004"/>
      <component glyphName="W" x="0" y="0" flags="0x1204"/>
    </TTGlyph>
    <TTGlyph name="Wcircumflex" xMin="53" yMin="0" xMax="1081" yMax="1912">
      <component glyphName="circumflex" x="411" y="351" flags="0x1004"/>
      <component glyphName="W" x="0" y="0" flags="0x1204"/>
    </TTGlyph>
    <TTGlyph name="Wdieresis" xMin="53" yMin="0" xMax="1081" yMax="1772">
      <component glyphName="dieresis" x="372" y="1576" flags="0x1004"/>
      <component glyphName="W" x="0" y="0" flags="0x1204"/>
    </TTGlyph>
    <TTGlyph name="Wgrave" xMin="53" yMin="0" xMax="1081" yMax="2021">
      <component glyphName="grave" x="114" y="407" flags="0x1004"/>
      <component glyphName="W" x="0" y="0" flags="0x1204"/>
    </TTGlyph>
    <TTGlyph name="X" xMin="50" yMin="0" xMax="774" yMax="1438">
      <contour>
        <pt x="61" y="0" on="1"/>
        <pt x="50" y="0" on="0"/>
        <pt x="50" y="27" on="1"/>
        <pt x="50" y="40" on="0"/>
        <pt x="56" y="57" on="1"/>
        <pt x="305" y="698" on="1"/>
        <pt x="66" y="1379" on="1"/>
        <pt x="60" y="1403" on="0"/>
        <pt x="60" y="1411" on="1"/>
        <pt x="60" y="1438" on="0"/>
        <pt x="71" y="1438" on="1"/>
        <pt x="264" y="1438" on="1"/>
        <pt x="291" y="1438" on="0"/>
        <pt x="310" y="1385" on="1"/>
        <pt x="438" y="1019" on="1"/>
        <pt x="578" y="1388" on="1"/>
        <pt x="597" y="1438" on="0"/>
        <pt x="625" y="1438" on="1"/>
        <pt x="744" y="1438" on="1"/>
        <pt x="757" y="1438" on="0"/>
        <pt x="757" y="1411" on="1"/>
        <pt x="757" y="1396" on="0"/>
        <pt x="752" y="1386" on="1"/>
        <pt x="520" y="793" on="1"/>
        <pt x="769" y="59" on="1"/>
        <pt x="774" y="47" on="0"/>
        <pt x="774" y="30" on="1"/>
        <pt x="774" y="0" on="0"/>
        <pt x="761" y="0" on="1"/>
        <pt x="582" y="0" on="1"/>
        <pt x="555" y="0" on="0"/>
        <pt x="537" y="52" on="1"/>
        <pt x="389" y="476" on="1"/>
        <pt x="223" y="50" on="1"/>
        <pt x="203" y="0" on="0"/>
        <pt x="178" y="0" on="1"/>
      </contour>
    </TTGlyph>
    <TTGlyph name="Y" xMin="34" yMin="0" xMax="700" yMax="1438">
      <contour>
        <pt x="295" y="0" on="1"/>
        <pt x="282" y="0" on="0"/>
        <pt x="270" y="21" on="0"/>
        <pt x="270" y="51" on="1"/>
        <pt x="270" y="478" on="1"/>
        <pt x="39" y="1378" on="1"/>
        <pt x="34" y="1393" on="0"/>
        <pt x="34" y="1407" on="1"/>
        <pt x="34" y="1438" on="0"/>
        <pt x="50" y="1438" on="1"/>
        <pt x="198" y="1438" on="1"/>
        <pt x="226" y="1438" on="0"/>
        <pt x="240" y="1385" on="1"/>
        <pt x="381" y="820" on="1"/>
        <pt x="519" y="1384" on="1"/>
        <pt x="525" y="1408" on="0"/>
        <pt x="547" y="1438" on="0"/>
        <pt x="559" y="1438" on="1"/>
        <pt x="684" y="1438" on="1"/>
        <pt x="700" y="1438" on="0"/>
        <pt x="700" y="1406" on="1"/>
        <pt x="700" y="1393" on="0"/>
        <pt x="696" y="1378" on="1"/>
        <pt x="468" y="481" on="1"/>
        <pt x="468" y="51" on="1"/>
        <pt x="468" y="0" on="0"/>
        <pt x="443" y="0" on="1"/>
      </contour>
    </TTGlyph>
    <TTGlyph name="Yacute" xMin="34" yMin="0" xMax="700" yMax="2021">
      <component glyphName="acute" x="-15" y="407" flags="0x1004"/>
      <component glyphName="Y" x="0" y="0" flags="0x1204"/>
    </TTGlyph>
    <TTGlyph name="Ycircumflex" xMin="34" yMin="0" xMax="700" yMax="1912">
      <component glyphName="circumflex" x="211" y="351" flags="0x1004"/>
      <component glyphName="Y" x="0" y="0" flags="0x1204"/>
    </TTGlyph>
    <TTGlyph name="Ydieresis" xMin="34" yMin="0" xMax="700" yMax="1772">
      <component glyphName="dieresis" x="172" y="1576" flags="0x1004"/>
      <component glyphName="Y" x="0" y="0" flags="0x1204"/>
    </TTGlyph>
    <TTGlyph name="Ygrave" xMin="34" yMin="0" xMax="700" yMax="2021">
      <component glyphName="grave" x="-86" y="407" flags="0x1004"/>
      <component glyphName="Y" x="0" y="0" flags="0x1204"/>
    </TTGlyph>
    <TTGlyph name="Z" xMin="83" yMin="0" xMax="662" yMax="1438">
      <contour>
        <pt x="108" y="0" on="1"/>
        <pt x="100" y="0" on="0"/>
        <pt x="90" y="4" on="0"/>
        <pt x="83" y="22" on="0"/>
        <pt x="83" y="40" on="1"/>
        <pt x="83" y="100" on="1"/>
        <pt x="83" y="135" on="0"/>
        <pt x="99" y="185" on="1"/>
        <pt x="411" y="1245" on="1"/>
        <pt x="415" y="1253" on="0"/>
        <pt x="415" y="1263" on="1"/>
        <pt x="415" y="1279" on="0"/>
        <pt x="408" y="1279" on="1"/>
        <pt x="117" y="1279" on="1"/>
        <pt x="108" y="1279" on="0"/>
        <pt x="99" y="1283" on="0"/>
        <pt x="92" y="1301" on="0"/>
        <pt x="92" y="1319" on="1"/>
        <pt x="92" y="1398" on="1"/>
        <pt x="92" y="1423" on="0"/>
        <pt x="104" y="1438" on="0"/>
        <pt x="117" y="1438" on="1"/>
        <pt x="624" y="1438" on="1"/>
        <pt x="632" y="1438" on="0"/>
        <pt x="642" y="1434" on="0"/>
        <pt x="649" y="1416" on="0"/>
        <pt x="649" y="1398" on="1"/>
        <pt x="649" y="1353" on="1"/>
        <pt x="649" y="1312" on="0"/>
        <pt x="632" y="1251" on="1"/>
        <pt x="316" y="189" on="1"/>
        <pt x="314" y="179" on="0"/>
        <pt x="314" y="173" on="1"/>
        <pt x="314" y="159" on="0"/>
        <pt x="320" y="159" on="1"/>
        <pt x="636" y="159" on="1"/>
        <pt x="637" y="159" on="0"/>
        <pt x="640" y="159" on="1"/>
        <pt x="648" y="159" on="0"/>
        <pt x="655" y="157" on="0"/>
        <pt x="662" y="141" on="0"/>
        <pt x="662" y="125" on="1"/>
        <pt x="662" y="40" on="1"/>
        <pt x="662" y="15" on="0"/>
        <pt x="649" y="0" on="0"/>
        <pt x="636" y="0" on="1"/>
      </contour>
    </TTGlyph>
    <TTGlyph name="Zacute" xMin="83" yMin="0" xMax="662" yMax="2021">
      <component glyphName="acute" x="-10" y="407" flags="0x1004"/>
      <component glyphName="Z" x="0" y="0" flags="0x1204"/>
    </TTGlyph>
    <TTGlyph name="Zcaron" xMin="83" yMin="0" xMax="662" yMax="1912">
      <component glyphName="caron" x="217" y="351" flags="0x1004"/>
      <component glyphName="Z" x="0" y="0" flags="0x1204"/>
    </TTGlyph>
    <TTGlyph name="Zdotaccent" xMin="83" yMin="0" xMax="662" yMax="1815">
      <component glyphName="dotaccent" x="230" y="1533" flags="0x1004"/>
      <component glyphName="Z" x="0" y="0" flags="0x1204"/>
    </TTGlyph>
    <TTGlyph name="a" xMin="78" yMin="-12" xMax="635" yMax="1017">
      <contour>
        <pt x="286" y="-12" on="1"/>
        <pt x="187" y="-12" on="0"/>
        <pt x="78" y="116" on="0"/>
        <pt x="78" y="238" on="1"/>
        <pt x="78" y="329" on="0"/>
        <pt x="133" y="465" on="0"/>
        <pt x="216" y="535" on="0"/>
        <pt x="316" y="581" on="0"/>
        <pt x="402" y="595" on="0"/>
        <pt x="467" y="608" on="0"/>
        <pt x="472" y="615" on="1"/>
        <pt x="472" y="668" on="1"/>
        <pt x="472" y="775" on="0"/>
        <pt x="425" y="882" on="0"/>
        <pt x="363" y="882" on="1"/>
        <pt x="311" y="882" on="0"/>
        <pt x="256" y="817" on="0"/>
        <pt x="237" y="750" on="1"/>
        <pt x="228" y="722" on="0"/>
        <pt x="213" y="724" on="1"/>
        <pt x="108" y="750" on="0"/>
        <pt x="107" y="758" on="1"/>
        <pt x="101" y="761" on="0"/>
        <pt x="100" y="801" on="0"/>
        <pt x="105" y="818" on="1"/>
        <pt x="131" y="916" on="0"/>
        <pt x="257" y="1017" on="0"/>
        <pt x="374" y="1017" on="1"/>
        <pt x="437" y="1017" on="0"/>
        <pt x="530" y="976" on="0"/>
        <pt x="600" y="882" on="0"/>
        <pt x="635" y="721" on="0"/>
        <pt x="635" y="605" on="1"/>
        <pt x="635" y="50" on="1"/>
        <pt x="635" y="-1" on="0"/>
        <pt x="614" y="-1" on="1"/>
        <pt x="582" y="-1" on="1"/>
        <pt x="564" y="-1" on="0"/>
        <pt x="550" y="43" on="1"/>
        <pt x="548" y="53" on="0"/>
        <pt x="513" y="163" on="0"/>
        <pt x="511" y="174" on="1"/>
        <pt x="510" y="177" on="0"/>
        <pt x="507" y="179" on="0"/>
        <pt x="503" y="177" on="0"/>
        <pt x="503" y="174" on="1"/>
        <pt x="476" y="82" on="0"/>
        <pt x="375" y="-12" on="0"/>
      </contour>
      <contour>
        <pt x="321" y="116" on="1"/>
        <pt x="391" y="116" on="0"/>
        <pt x="476" y="300" on="0"/>
        <pt x="476" y="428" on="1"/>
        <pt x="476" y="504" on="0"/>
        <pt x="467" y="504" on="1"/>
        <pt x="449" y="504" on="0"/>
        <pt x="437" y="498" on="1"/>
        <pt x="329" y="471" on="0"/>
        <pt x="228" y="349" on="0"/>
        <pt x="228" y="251" on="1"/>
        <pt x="228" y="116" on="0"/>
      </contour>
    </TTGlyph>
    <TTGlyph name="aacute" xMin="78" yMin="-12" xMax="635" yMax="1585">
      <component glyphName="acute" x="-26" y="-29" flags="0x1004"/>
      <component glyphName="a" x="0" y="0" flags="0x1204"/>
    </TTGlyph>
    <TTGlyph name="abreve" xMin="78" yMin="-12" xMax="635" yMax="1335">
      <component glyphName="breve" x="-260" y="-152" flags="0x1004"/>
      <component glyphName="a" x="0" y="0" flags="0x1204"/>
    </TTGlyph>
    <TTGlyph name="acircumflex" xMin="78" yMin="-12" xMax="635" yMax="1476">
      <component glyphName="circumflex" x="201" y="-85" flags="0x1004"/>
      <component glyphName="a" x="0" y="0" flags="0x1204"/>
    </TTGlyph>
    <TTGlyph name="acute" xMin="348" yMin="1169" xMax="487" yMax="1614">
      <contour>
        <pt x="363" y="1169" on="1"/>
        <pt x="348" y="1169" on="0"/>
        <pt x="348" y="1201" on="1"/>
        <pt x="348" y="1208" on="0"/>
        <pt x="350" y="1236" on="1"/>
        <pt x="370" y="1559" on="1"/>
        <pt x="374" y="1614" on="0"/>
        <pt x="396" y="1614" on="1"/>
        <pt x="477" y="1614" on="1"/>
        <pt x="487" y="1614" on="0"/>
        <pt x="487" y="1586" on="1"/>
        <pt x="487" y="1573" on="0"/>
        <pt x="483" y="1549" on="1"/>
        <pt x="420" y="1208" on="1"/>
        <pt x="413" y="1169" on="0"/>
        <pt x="401" y="1169" on="1"/>
      </contour>
    </TTGlyph>
    <TTGlyph name="adieresis" xMin="78" yMin="-12" xMax="635" yMax="1336">
      <component glyphName="dieresis" x="162" y="1140" flags="0x1004"/>
      <component glyphName="a" x="0" y="0" flags="0x1204"/>
    </TTGlyph>
    <TTGlyph name="ae" xMin="78" yMin="-12" xMax="978" yMax="1018">
      <contour>
        <pt x="970" y="242" on="1"/>
        <pt x="970" y="128" on="0"/>
        <pt x="865" y="-11" on="0"/>
        <pt x="749" y="-11" on="1"/>
        <pt x="673" y="-11" on="0"/>
        <pt x="560" y="110" on="0"/>
        <pt x="534" y="223" on="1"/>
        <pt x="500" y="110" on="0"/>
        <pt x="373" y="-12" on="0"/>
        <pt x="282" y="-12" on="1"/>
        <pt x="183" y="-12" on="0"/>
        <pt x="78" y="115" on="0"/>
        <pt x="78" y="238" on="1"/>
        <pt x="78" y="329" on="0"/>
        <pt x="131" y="465" on="0"/>
        <pt x="211" y="535" on="0"/>
        <pt x="307" y="581" on="0"/>
        <pt x="390" y="595" on="0"/>
        <pt x="453" y="608" on="0"/>
        <pt x="458" y="615" on="1"/>
        <pt x="458" y="662" on="1"/>
        <pt x="458" y="716" on="0"/>
        <pt x="450" y="789" on="0"/>
        <pt x="429" y="852" on="0"/>
        <pt x="388" y="882" on="0"/>
        <pt x="356" y="882" on="1"/>
        <pt x="267" y="882" on="0"/>
        <pt x="237" y="750" on="1"/>
        <pt x="229" y="722" on="0"/>
        <pt x="213" y="724" on="1"/>
        <pt x="110" y="750" on="0"/>
        <pt x="108" y="757" on="1"/>
        <pt x="93" y="765" on="0"/>
        <pt x="105" y="818" on="1"/>
        <pt x="126" y="903" on="0"/>
        <pt x="258" y="1017" on="0"/>
        <pt x="356" y="1017" on="1"/>
        <pt x="510" y="1017" on="0"/>
        <pt x="555" y="855" on="1"/>
        <pt x="580" y="935" on="0"/>
        <pt x="681" y="1018" on="0"/>
        <pt x="737" y="1018" on="1"/>
        <pt x="791" y="1018" on="0"/>
        <pt x="873" y="972" on="0"/>
        <pt x="939" y="867" on="0"/>
        <pt x="976" y="681" on="0"/>
        <pt x="978" y="550" on="1"/>
        <pt x="978" y="466" on="0"/>
        <pt x="953" y="466" on="1"/>
        <pt x="630" y="466" on="1"/>
        <pt x="622" y="466" on="0"/>
        <pt x="622" y="441" on="1"/>
        <pt x="622" y="125" on="0"/>
        <pt x="755" y="125" on="1"/>
        <pt x="782" y="125" on="0"/>
        <pt x="821" y="149" on="0"/>
        <pt x="841" y="177" on="0"/>
        <pt x="855" y="232" on="0"/>
        <pt x="858" y="259" on="0"/>
        <pt x="861" y="288" on="1"/>
        <pt x="864" y="310" on="0"/>
        <pt x="878" y="310" on="1"/>
        <pt x="947" y="310" on="1"/>
        <pt x="970" y="310" on="0"/>
        <pt x="970" y="258" on="1"/>
      </contour>
      <contour>
        <pt x="312" y="111" on="1"/>
        <pt x="381" y="111" on="0"/>
        <pt x="462" y="299" on="0"/>
        <pt x="462" y="428" on="1"/>
        <pt x="462" y="504" on="0"/>
        <pt x="453" y="504" on="1"/>
        <pt x="435" y="504" on="0"/>
        <pt x="423" y="498" on="1"/>
        <pt x="226" y="442" on="0"/>
        <pt x="226" y="250" on="1"/>
        <pt x="226" y="111" on="0"/>
      </contour>
      <contour>
        <pt x="626" y="572" on="1"/>
        <pt x="842" y="572" on="1"/>
        <pt x="845" y="572" on="0"/>
        <pt x="845" y="597" on="1"/>
        <pt x="837" y="883" on="0"/>
        <pt x="736" y="883" on="1"/>
        <pt x="689" y="883" on="0"/>
        <pt x="626" y="750" on="0"/>
        <pt x="622" y="622" on="1"/>
        <pt x="622" y="572" on="0"/>
      </contour>
    </TTGlyph>
    <TTGlyph name="agrave" xMin="78" yMin="-12" xMax="635" yMax="1585">
      <component glyphName="grave" x="-96" y="-29" flags="0x1004"/>
      <component glyphName="a" x="0" y="0" flags="0x1204"/>
    </TTGlyph>
    <TTGlyph name="amacron" xMin="78" yMin="-12" xMax="635" yMax="1252">
      <component glyphName="macron" x="-96" y="433" flags="0x1004"/>
      <component glyphName="a" x="0" y="0" flags="0x1204"/>
    </TTGlyph>
    <TTGlyph name="ampersand" xMin="110" yMin="-18" xMax="1146" yMax="1459">
      <contour>
        <pt x="478" y="-18" on="1"/>
        <pt x="398" y="-18" on="0"/>
        <pt x="270" y="27" on="0"/>
        <pt x="168" y="123" on="0"/>
        <pt x="112" y="290" on="0"/>
        <pt x="112" y="405" on="1"/>
        <pt x="112" y="536" on="0"/>
        <pt x="227" y="723" on="0"/>
        <pt x="299" y="745" on="1"/>
        <pt x="227" y="764" on="0"/>
        <pt x="110" y="925" on="0"/>
        <pt x="110" y="1058" on="1"/>
        <pt x="110" y="1259" on="0"/>
        <pt x="286" y="1459" on="0"/>
        <pt x="437" y="1459" on="1"/>
        <pt x="535" y="1459" on="0"/>
        <pt x="586" y="1430" on="1"/>
        <pt x="611" y="1416" on="0"/>
        <pt x="611" y="1389" on="1"/>
        <pt x="611" y="1380" on="0"/>
        <pt x="610" y="1375" on="1"/>
        <pt x="604" y="1296" on="1"/>
        <pt x="603" y="1251" on="0"/>
        <pt x="577" y="1264" on="1"/>
        <pt x="575" y="1264" on="0"/>
        <pt x="559" y="1272" on="0"/>
        <pt x="541" y="1279" on="0"/>
        <pt x="501" y="1285" on="0"/>
        <pt x="475" y="1285" on="1"/>
        <pt x="409" y="1285" on="0"/>
        <pt x="309" y="1185" on="0"/>
        <pt x="308" y="1072" on="1"/>
        <pt x="308" y="975" on="0"/>
        <pt x="389" y="835" on="0"/>
        <pt x="463" y="835" on="1"/>
        <pt x="708" y="835" on="1"/>
        <pt x="723" y="835" on="0"/>
        <pt x="723" y="865" on="1"/>
        <pt x="730" y="1354" on="1"/>
        <pt x="731" y="1408" on="0"/>
        <pt x="761" y="1408" on="1"/>
        <pt x="891" y="1408" on="1"/>
        <pt x="920" y="1408" on="0"/>
        <pt x="920" y="1354" on="1"/>
        <pt x="920" y="865" on="1"/>
        <pt x="920" y="835" on="0"/>
        <pt x="934" y="835" on="1"/>
        <pt x="1083" y="835" on="1"/>
        <pt x="1114" y="835" on="0"/>
        <pt x="1114" y="776" on="1"/>
        <pt x="1114" y="731" on="1"/>
        <pt x="1114" y="669" on="0"/>
        <pt x="1083" y="669" on="1"/>
        <pt x="934" y="669" on="1"/>
        <pt x="920" y="669" on="0"/>
        <pt x="920" y="640" on="1"/>
        <pt x="920" y="365" on="1"/>
        <pt x="920" y="157" on="0"/>
        <pt x="1024" y="157" on="1"/>
        <pt x="1066" y="157" on="0"/>
        <pt x="1114" y="189" on="1"/>
        <pt x="1126" y="196" on="0"/>
        <pt x="1143" y="174" on="0"/>
        <pt x="1145" y="150" on="1"/>
        <pt x="1146" y="91" on="1"/>
        <pt x="1146" y="81" on="1"/>
        <pt x="1146" y="35" on="0"/>
        <pt x="1123" y="20" on="1"/>
        <pt x="1059" y="-18" on="0"/>
        <pt x="993" y="-18" on="1"/>
        <pt x="925" y="-18" on="0"/>
        <pt x="791" y="55" on="0"/>
        <pt x="764" y="125" on="1"/>
        <pt x="763" y="124" on="0"/>
        <pt x="733" y="89" on="0"/>
        <pt x="722" y="78" on="0"/>
        <pt x="686" y="44" on="0"/>
        <pt x="660" y="29" on="0"/>
        <pt x="614" y="3" on="0"/>
        <pt x="571" y="-8" on="0"/>
        <pt x="510" y="-18" on="0"/>
      </contour>
      <contour>
        <pt x="507" y="144" on="1"/>
        <pt x="539" y="144" on="0"/>
        <pt x="594" y="155" on="0"/>
        <pt x="633" y="170" on="0"/>
        <pt x="668" y="195" on="0"/>
        <pt x="689" y="215" on="0"/>
        <pt x="709" y="244" on="0"/>
        <pt x="717" y="260" on="0"/>
        <pt x="727" y="282" on="0"/>
        <pt x="727" y="283" on="1"/>
        <pt x="723" y="641" on="1"/>
        <pt x="723" y="669" on="0"/>
        <pt x="708" y="669" on="1"/>
        <pt x="473" y="669" on="1"/>
        <pt x="404" y="668" on="0"/>
        <pt x="310" y="518" on="0"/>
        <pt x="310" y="407" on="1"/>
        <pt x="310" y="348" on="0"/>
        <pt x="336" y="254" on="0"/>
        <pt x="376" y="196" on="0"/>
        <pt x="430" y="159" on="0"/>
        <pt x="481" y="144" on="0"/>
      </contour>
    </TTGlyph>
    <TTGlyph name="aogonek" xMin="78" yMin="-351" xMax="676" yMax="1017">
      <component glyphName="ogonek" x="181" y="1" flags="0x1004"/>
      <component glyphName="a" x="0" y="0" flags="0x1004"/>
    </TTGlyph>
    <TTGlyph name="approxequal" xMin="79" yMin="351" xMax="870" yMax="924">
      <contour>
        <pt x="656" y="351" on="1"/>
        <pt x="611" y="351" on="0"/>
        <pt x="500" y="391" on="0"/>
        <pt x="414" y="440" on="0"/>
        <pt x="312" y="480" on="0"/>
        <pt x="275" y="480" on="1"/>
        <pt x="242" y="480" on="0"/>
        <pt x="198" y="445" on="0"/>
        <pt x="165" y="400" on="1"/>
        <pt x="153" y="382" on="0"/>
        <pt x="138" y="382" on="1"/>
        <pt x="117" y="382" on="0"/>
        <pt x="79" y="447" on="0"/>
        <pt x="79" y="475" on="1"/>
        <pt x="79" y="491" on="0"/>
        <pt x="86" y="502" on="1"/>
        <pt x="162" y="623" on="0"/>
        <pt x="289" y="623" on="1"/>
        <pt x="343" y="623" on="0"/>
        <pt x="480" y="559" on="0"/>
        <pt x="611" y="494" on="0"/>
        <pt x="656" y="494" on="1"/>
        <pt x="700" y="494" on="0"/>
        <pt x="754" y="530" on="0"/>
        <pt x="784" y="586" on="1"/>
        <pt x="792" y="603" on="0"/>
        <pt x="808" y="603" on="1"/>
        <pt x="825" y="603" on="0"/>
        <pt x="870" y="530" on="0"/>
        <pt x="870" y="510" on="1"/>
        <pt x="870" y="494" on="0"/>
        <pt x="857" y="472" on="1"/>
        <pt x="821" y="410" on="0"/>
        <pt x="728" y="351" on="0"/>
      </contour>
      <contour>
        <pt x="656" y="652" on="1"/>
        <pt x="611" y="652" on="0"/>
        <pt x="500" y="692" on="0"/>
        <pt x="414" y="741" on="0"/>
        <pt x="312" y="781" on="0"/>
        <pt x="275" y="781" on="1"/>
        <pt x="242" y="781" on="0"/>
        <pt x="198" y="746" on="0"/>
        <pt x="165" y="701" on="1"/>
        <pt x="153" y="683" on="0"/>
        <pt x="138" y="683" on="1"/>
        <pt x="117" y="683" on="0"/>
        <pt x="79" y="748" on="0"/>
        <pt x="79" y="776" on="1"/>
        <pt x="79" y="792" on="0"/>
        <pt x="86" y="803" on="1"/>
        <pt x="162" y="924" on="0"/>
        <pt x="289" y="924" on="1"/>
        <pt x="343" y="924" on="0"/>
        <pt x="480" y="860" on="0"/>
        <pt x="611" y="795" on="0"/>
        <pt x="656" y="795" on="1"/>
        <pt x="700" y="795" on="0"/>
        <pt x="754" y="831" on="0"/>
        <pt x="784" y="887" on="1"/>
        <pt x="792" y="904" on="0"/>
        <pt x="808" y="904" on="1"/>
        <pt x="825" y="904" on="0"/>
        <pt x="870" y="831" on="0"/>
        <pt x="870" y="811" on="1"/>
        <pt x="870" y="795" on="0"/>
        <pt x="857" y="773" on="1"/>
        <pt x="821" y="711" on="0"/>
        <pt x="728" y="652" on="0"/>
      </contour>
    </TTGlyph>
    <TTGlyph name="aring" xMin="78" yMin="-12" xMax="635" yMax="1532">
      <component glyphName="ring" x="-293" y="20" flags="0x1004"/>
      <component glyphName="a" x="0" y="0" flags="0x1204"/>
    </TTGlyph>
    <TTGlyph name="asciicircum" xMin="90" yMin="351" xMax="941" yMax="1357">
      <contour>
        <pt x="118" y="351" on="1"/>
        <pt x="90" y="351" on="0"/>
        <pt x="90" y="380" on="1"/>
        <pt x="90" y="397" on="0"/>
        <pt x="98" y="418" on="1"/>
        <pt x="409" y="1290" on="1"/>
        <pt x="423" y="1326" on="0"/>
        <pt x="455" y="1357" on="0"/>
        <pt x="488" y="1357" on="1"/>
        <pt x="539" y="1357" on="1"/>
        <pt x="571" y="1357" on="0"/>
        <pt x="600" y="1327" on="0"/>
        <pt x="616" y="1289" on="1"/>
        <pt x="933" y="419" on="1"/>
        <pt x="941" y="395" on="0"/>
        <pt x="941" y="382" on="1"/>
        <pt x="941" y="351" on="0"/>
        <pt x="912" y="351" on="1"/>
        <pt x="834" y="351" on="1"/>
        <pt x="813" y="351" on="0"/>
        <pt x="784" y="381" on="0"/>
        <pt x="772" y="420" on="1"/>
        <pt x="534" y="1100" on="1"/>
        <pt x="528" y="1119" on="0"/>
        <pt x="520" y="1131" on="0"/>
        <pt x="506" y="1131" on="0"/>
        <pt x="498" y="1119" on="0"/>
        <pt x="492" y="1100" on="1"/>
        <pt x="263" y="420" on="1"/>
        <pt x="250" y="379" on="0"/>
        <pt x="222" y="351" on="0"/>
        <pt x="195" y="351" on="1"/>
      </contour>
    </TTGlyph>
    <TTGlyph name="asciitilde" xMin="79" yMin="532" xMax="870" yMax="804">
      <contour>
        <pt x="293" y="532" on="1"/>
        <pt x="221" y="532" on="0"/>
        <pt x="128" y="591" on="0"/>
        <pt x="92" y="653" on="1"/>
        <pt x="79" y="675" on="0"/>
        <pt x="79" y="691" on="1"/>
        <pt x="79" y="711" on="0"/>
        <pt x="124" y="784" on="0"/>
        <pt x="141" y="784" on="1"/>
        <pt x="156" y="784" on="0"/>
        <pt x="165" y="767" on="1"/>
        <pt x="195" y="711" on="0"/>
        <pt x="249" y="675" on="0"/>
        <pt x="293" y="675" on="1"/>
        <pt x="338" y="675" on="0"/>
        <pt x="469" y="740" on="0"/>
        <pt x="606" y="804" on="0"/>
        <pt x="660" y="804" on="1"/>
        <pt x="787" y="804" on="0"/>
        <pt x="863" y="683" on="1"/>
        <pt x="870" y="672" on="0"/>
        <pt x="870" y="656" on="1"/>
        <pt x="870" y="628" on="0"/>
        <pt x="832" y="563" on="0"/>
        <pt x="811" y="563" on="1"/>
        <pt x="796" y="563" on="0"/>
        <pt x="784" y="581" on="1"/>
        <pt x="751" y="626" on="0"/>
        <pt x="707" y="661" on="0"/>
        <pt x="674" y="661" on="1"/>
        <pt x="637" y="661" on="0"/>
        <pt x="535" y="621" on="0"/>
        <pt x="449" y="572" on="0"/>
        <pt x="338" y="532" on="0"/>
      </contour>
    </TTGlyph>
    <TTGlyph name="asterisk" xMin="99" yMin="422" xMax="604" yMax="1046">
      <contour>
        <pt x="247" y="422" on="1"/>
        <pt x="225" y="422" on="0"/>
        <pt x="184" y="443" on="0"/>
        <pt x="184" y="460" on="1"/>
        <pt x="184" y="478" on="0"/>
        <pt x="222" y="553" on="0"/>
        <pt x="262" y="614" on="0"/>
        <pt x="318" y="694" on="0"/>
        <pt x="321" y="698" on="1"/>
        <pt x="135" y="753" on="1"/>
        <pt x="119" y="758" on="0"/>
        <pt x="99" y="791" on="0"/>
        <pt x="99" y="813" on="1"/>
        <pt x="99" y="839" on="0"/>
        <pt x="122" y="878" on="0"/>
        <pt x="141" y="878" on="1"/>
        <pt x="154" y="878" on="0"/>
        <pt x="234" y="822" on="0"/>
        <pt x="326" y="750" on="0"/>
        <pt x="336" y="743" on="1"/>
        <pt x="333" y="768" on="0"/>
        <pt x="317" y="877" on="0"/>
        <pt x="309" y="958" on="0"/>
        <pt x="309" y="997" on="1"/>
        <pt x="309" y="1021" on="0"/>
        <pt x="335" y="1046" on="0"/>
        <pt x="355" y="1046" on="1"/>
        <pt x="400" y="1046" on="0"/>
        <pt x="400" y="1001" on="1"/>
        <pt x="379" y="743" on="1"/>
        <pt x="537" y="843" on="1"/>
        <pt x="547" y="848" on="0"/>
        <pt x="555" y="848" on="1"/>
        <pt x="575" y="848" on="0"/>
        <pt x="604" y="812" on="0"/>
        <pt x="604" y="790" on="1"/>
        <pt x="604" y="753" on="0"/>
        <pt x="564" y="743" on="1"/>
        <pt x="388" y="698" on="1"/>
        <pt x="524" y="548" on="0"/>
        <pt x="549" y="517" on="1"/>
        <pt x="558" y="506" on="0"/>
        <pt x="558" y="494" on="1"/>
        <pt x="558" y="476" on="0"/>
        <pt x="525" y="447" on="0"/>
        <pt x="506" y="447" on="1"/>
        <pt x="485" y="447" on="0"/>
        <pt x="472" y="467" on="1"/>
        <pt x="353" y="667" on="1"/>
        <pt x="269" y="431" on="1"/>
        <pt x="266" y="422" on="0"/>
      </contour>
    </TTGlyph>
    <TTGlyph name="at" xMin="88" yMin="-157" xMax="1310" yMax="1504">
      <contour>
        <pt x="721" y="-157" on="1"/>
        <pt x="566" y="-157" on="0"/>
        <pt x="321" y="-26" on="0"/>
        <pt x="168" y="201" on="0"/>
        <pt x="88" y="497" on="0"/>
        <pt x="88" y="668" on="1"/>
        <pt x="88" y="807" on="0"/>
        <pt x="135" y="1055" on="0"/>
        <pt x="235" y="1265" on="0"/>
        <pt x="379" y="1418" on="0"/>
        <pt x="584" y="1504" on="0"/>
        <pt x="707" y="1504" on="1"/>
        <pt x="836" y="1504" on="0"/>
        <pt x="1041" y="1422" on="0"/>
        <pt x="1178" y="1280" on="0"/>
        <pt x="1269" y="1076" on="0"/>
        <pt x="1310" y="842" on="0"/>
        <pt x="1310" y="705" on="1"/>
        <pt x="1310" y="467" on="0"/>
        <pt x="1184" y="230" on="0"/>
        <pt x="1097" y="230" on="1"/>
        <pt x="1031" y="230" on="0"/>
        <pt x="952" y="328" on="0"/>
        <pt x="946" y="413" on="1"/>
        <pt x="942" y="450" on="0"/>
        <pt x="935" y="450" on="1"/>
        <pt x="930" y="450" on="0"/>
        <pt x="924" y="423" on="1"/>
        <pt x="892" y="317" on="0"/>
        <pt x="778" y="207" on="0"/>
        <pt x="679" y="207" on="1"/>
        <pt x="550" y="207" on="0"/>
        <pt x="387" y="442" on="0"/>
        <pt x="387" y="661" on="1"/>
        <pt x="387" y="873" on="0"/>
        <pt x="543" y="1105" on="0"/>
        <pt x="670" y="1105" on="1"/>
        <pt x="853" y="1105" on="0"/>
        <pt x="914" y="883" on="1"/>
        <pt x="918" y="868" on="0"/>
        <pt x="926" y="868" on="0"/>
        <pt x="926" y="880" on="1"/>
        <pt x="938" y="1011" on="1"/>
        <pt x="945" y="1060" on="0"/>
        <pt x="981" y="1060" on="1"/>
        <pt x="989" y="1060" on="1"/>
        <pt x="1005" y="1060" on="0"/>
        <pt x="1024" y="1028" on="0"/>
        <pt x="1024" y="1003" on="1"/>
        <pt x="1024" y="487" on="1"/>
        <pt x="1024" y="399" on="0"/>
        <pt x="1061" y="331" on="0"/>
        <pt x="1095" y="331" on="1"/>
        <pt x="1109" y="331" on="0"/>
        <pt x="1134" y="350" on="0"/>
        <pt x="1159" y="403" on="0"/>
        <pt x="1178" y="484" on="0"/>
        <pt x="1189" y="618" on="0"/>
        <pt x="1189" y="705" on="1"/>
        <pt x="1189" y="824" on="0"/>
        <pt x="1158" y="1024" on="0"/>
        <pt x="1087" y="1197" on="0"/>
        <pt x="978" y="1318" on="0"/>
        <pt x="814" y="1386" on="0"/>
        <pt x="710" y="1386" on="1"/>
        <pt x="609" y="1386" on="0"/>
        <pt x="442" y="1306" on="0"/>
        <pt x="330" y="1170" on="0"/>
        <pt x="253" y="984" on="0"/>
        <pt x="218" y="777" on="0"/>
        <pt x="218" y="664" on="1"/>
        <pt x="218" y="553" on="0"/>
        <pt x="250" y="355" on="0"/>
        <pt x="325" y="169" on="0"/>
        <pt x="440" y="36" on="0"/>
        <pt x="618" y="-45" on="0"/>
        <pt x="730" y="-45" on="1"/>
        <pt x="848" y="-45" on="0"/>
        <pt x="974" y="15" on="1"/>
        <pt x="975" y="16" on="1"/>
        <pt x="976" y="16" on="0"/>
        <pt x="977" y="16" on="1"/>
        <pt x="989" y="16" on="0"/>
        <pt x="1019" y="-44" on="0"/>
        <pt x="1019" y="-67" on="1"/>
        <pt x="1019" y="-81" on="0"/>
        <pt x="1011" y="-86" on="1"/>
        <pt x="956" y="-117" on="0"/>
        <pt x="796" y="-157" on="0"/>
      </contour>
      <contour>
        <pt x="697" y="327" on="1"/>
        <pt x="783" y="327" on="0"/>
        <pt x="888" y="493" on="0"/>
        <pt x="888" y="652" on="1"/>
        <pt x="888" y="807" on="0"/>
        <pt x="783" y="977" on="0"/>
        <pt x="698" y="977" on="1"/>
        <pt x="605" y="977" on="0"/>
        <pt x="515" y="801" on="0"/>
        <pt x="515" y="503" on="0"/>
        <pt x="607" y="327" on="0"/>
      </contour>
    </TTGlyph>
    <TTGlyph name="atilde" xMin="78" yMin="-12" xMax="635" yMax="1320">
      <component glyphName="tilde" x="-17" y="343" flags="0x1004"/>
      <component glyphName="a" x="0" y="0" flags="0x1204"/>
    </TTGlyph>
    <TTGlyph name="b" xMin="104" yMin="-11" xMax="685" yMax="1428">
      <contour>
        <pt x="433" y="-11" on="1"/>
        <pt x="273" y="-11" on="0"/>
        <pt x="215" y="193" on="1"/>
        <pt x="213" y="198" on="0"/>
        <pt x="211" y="198" on="1"/>
        <pt x="207" y="198" on="0"/>
        <pt x="191" y="99" on="0"/>
        <pt x="166" y="0" on="0"/>
        <pt x="152" y="0" on="1"/>
        <pt x="124" y="0" on="1"/>
        <pt x="104" y="0" on="0"/>
        <pt x="104" y="62" on="1"/>
        <pt x="104" y="1355" on="1"/>
        <pt x="104" y="1387" on="0"/>
        <pt x="118" y="1428" on="0"/>
        <pt x="129" y="1428" on="1"/>
        <pt x="240" y="1428" on="1"/>
        <pt x="251" y="1428" on="0"/>
        <pt x="265" y="1387" on="0"/>
        <pt x="265" y="1355" on="1"/>
        <pt x="265" y="884" on="1"/>
        <pt x="265" y="869" on="0"/>
        <pt x="275" y="869" on="0"/>
        <pt x="277" y="876" on="1"/>
        <pt x="305" y="947" on="0"/>
        <pt x="394" y="1018" on="0"/>
        <pt x="446" y="1018" on="1"/>
        <pt x="493" y="1018" on="0"/>
        <pt x="575" y="965" on="0"/>
        <pt x="645" y="851" on="0"/>
        <pt x="685" y="642" on="0"/>
        <pt x="685" y="500" on="1"/>
        <pt x="685" y="365" on="0"/>
        <pt x="642" y="160" on="0"/>
        <pt x="568" y="45" on="0"/>
        <pt x="481" y="-11" on="0"/>
      </contour>
      <contour>
        <pt x="399" y="125" on="1"/>
        <pt x="518" y="125" on="0"/>
        <pt x="518" y="511" on="1"/>
        <pt x="518" y="689" on="0"/>
        <pt x="454" y="882" on="0"/>
        <pt x="398" y="882" on="1"/>
        <pt x="340" y="882" on="0"/>
        <pt x="265" y="677" on="0"/>
        <pt x="265" y="345" on="0"/>
        <pt x="340" y="125" on="0"/>
      </contour>
    </TTGlyph>
    <TTGlyph name="backslash" xMin="93" yMin="-206" xMax="492" yMax="1647">
      <contour>
        <pt x="345" y="-206" on="1"/>
        <pt x="334" y="-206" on="0"/>
        <pt x="329" y="-171" on="1"/>
        <pt x="94" y="1612" on="1"/>
        <pt x="94" y="1613" on="0"/>
        <pt x="93" y="1619" on="0"/>
        <pt x="93" y="1621" on="1"/>
        <pt x="93" y="1647" on="0"/>
        <pt x="102" y="1647" on="1"/>
        <pt x="241" y="1647" on="1"/>
        <pt x="254" y="1647" on="0"/>
        <pt x="257" y="1612" on="1"/>
        <pt x="491" y="-170" on="1"/>
        <pt x="492" y="-174" on="0"/>
        <pt x="492" y="-181" on="1"/>
        <pt x="492" y="-205" on="0"/>
        <pt x="484" y="-205" on="1"/>
      </contour>
    </TTGlyph>
    <TTGlyph name="bar" xMin="116" yMin="-150" xMax="212" yMax="1555">
      <contour>
        <pt x="143" y="-150" on="1"/>
        <pt x="131" y="-150" on="0"/>
        <pt x="116" y="-112" on="0"/>
        <pt x="116" y="-80" on="1"/>
        <pt x="116" y="1485" on="1"/>
        <pt x="116" y="1517" on="0"/>
        <pt x="131" y="1555" on="0"/>
        <pt x="143" y="1555" on="1"/>
        <pt x="185" y="1555" on="1"/>
        <pt x="197" y="1555" on="0"/>
        <pt x="212" y="1517" on="0"/>
        <pt x="212" y="1485" on="1"/>
        <pt x="212" y="-80" on="1"/>
        <pt x="212" y="-112" on="0"/>
        <pt x="197" y="-150" on="0"/>
        <pt x="185" y="-150" on="1"/>
      </contour>
    </TTGlyph>
    <TTGlyph name="braceleft" xMin="90" yMin="-103" xMax="453" yMax="1543">
      <contour>
        <pt x="427" y="1543" on="1"/>
        <pt x="438" y="1543" on="0"/>
        <pt x="453" y="1508" on="0"/>
        <pt x="453" y="1482" on="1"/>
        <pt x="453" y="1456" on="1"/>
        <pt x="453" y="1424" on="0"/>
        <pt x="437" y="1393" on="0"/>
        <pt x="416" y="1393" on="1"/>
        <pt x="381" y="1393" on="0"/>
        <pt x="364" y="1312" on="0"/>
        <pt x="363" y="1161" on="1"/>
        <pt x="363" y="1005" on="1"/>
        <pt x="362" y="881" on="0"/>
        <pt x="335" y="747" on="0"/>
        <pt x="293" y="731" on="1"/>
        <pt x="289" y="729" on="0"/>
        <pt x="289" y="713" on="0"/>
        <pt x="293" y="711" on="1"/>
        <pt x="334" y="695" on="0"/>
        <pt x="360" y="572" on="0"/>
        <pt x="360" y="456" on="1"/>
        <pt x="360" y="302" on="1"/>
        <pt x="361" y="140" on="0"/>
        <pt x="379" y="47" on="0"/>
        <pt x="416" y="47" on="1"/>
        <pt x="437" y="47" on="0"/>
        <pt x="453" y="17" on="0"/>
        <pt x="453" y="-16" on="1"/>
        <pt x="453" y="-42" on="1"/>
        <pt x="453" y="-68" on="0"/>
        <pt x="438" y="-103" on="0"/>
        <pt x="427" y="-103" on="1"/>
        <pt x="345" y="-103" on="1"/>
        <pt x="268" y="-103" on="0"/>
        <pt x="200" y="71" on="0"/>
        <pt x="198" y="290" on="1"/>
        <pt x="198" y="423" on="1"/>
        <pt x="197" y="534" on="0"/>
        <pt x="167" y="619" on="0"/>
        <pt x="130" y="620" on="1"/>
        <pt x="107" y="621" on="0"/>
        <pt x="90" y="654" on="0"/>
        <pt x="90" y="696" on="1"/>
        <pt x="90" y="751" on="1"/>
        <pt x="90" y="789" on="0"/>
        <pt x="107" y="817" on="0"/>
        <pt x="130" y="818" on="1"/>
        <pt x="166" y="819" on="0"/>
        <pt x="196" y="917" on="0"/>
        <pt x="198" y="1029" on="1"/>
        <pt x="198" y="1035" on="0"/>
        <pt x="199" y="1165" on="0"/>
        <pt x="199" y="1168" on="1"/>
        <pt x="200" y="1315" on="0"/>
        <pt x="234" y="1481" on="0"/>
        <pt x="294" y="1543" on="0"/>
        <pt x="345" y="1543" on="1"/>
      </contour>
    </TTGlyph>
    <TTGlyph name="braceright" xMin="90" yMin="-103" xMax="453" yMax="1543">
      <contour>
        <pt x="116" y="-103" on="1"/>
        <pt x="105" y="-103" on="0"/>
        <pt x="90" y="-68" on="0"/>
        <pt x="90" y="-42" on="1"/>
        <pt x="90" y="-16" on="1"/>
        <pt x="90" y="17" on="0"/>
        <pt x="106" y="47" on="0"/>
        <pt x="127" y="47" on="1"/>
        <pt x="162" y="47" on="0"/>
        <pt x="179" y="128" on="0"/>
        <pt x="180" y="279" on="1"/>
        <pt x="180" y="435" on="1"/>
        <pt x="181" y="560" on="0"/>
        <pt x="208" y="693" on="0"/>
        <pt x="250" y="709" on="1"/>
        <pt x="254" y="711" on="0"/>
        <pt x="254" y="728" on="0"/>
        <pt x="250" y="730" on="1"/>
        <pt x="209" y="745" on="0"/>
        <pt x="184" y="867" on="0"/>
        <pt x="183" y="984" on="1"/>
        <pt x="183" y="1138" on="1"/>
        <pt x="182" y="1300" on="0"/>
        <pt x="164" y="1393" on="0"/>
        <pt x="127" y="1393" on="1"/>
        <pt x="106" y="1393" on="0"/>
        <pt x="90" y="1424" on="0"/>
        <pt x="90" y="1456" on="1"/>
        <pt x="90" y="1482" on="1"/>
        <pt x="90" y="1508" on="0"/>
        <pt x="105" y="1543" on="0"/>
        <pt x="116" y="1543" on="1"/>
        <pt x="198" y="1543" on="1"/>
        <pt x="275" y="1543" on="0"/>
        <pt x="343" y="1370" on="0"/>
        <pt x="345" y="1151" on="1"/>
        <pt x="345" y="1018" on="1"/>
        <pt x="347" y="907" on="0"/>
        <pt x="377" y="821" on="0"/>
        <pt x="413" y="820" on="1"/>
        <pt x="436" y="819" on="0"/>
        <pt x="453" y="787" on="0"/>
        <pt x="453" y="745" on="1"/>
        <pt x="453" y="690" on="1"/>
        <pt x="453" y="651" on="0"/>
        <pt x="436" y="623" on="0"/>
        <pt x="413" y="623" on="1"/>
        <pt x="377" y="622" on="0"/>
        <pt x="348" y="523" on="0"/>
        <pt x="346" y="412" on="1"/>
        <pt x="344" y="390" on="0"/>
        <pt x="344" y="273" on="1"/>
        <pt x="343" y="125" on="0"/>
        <pt x="309" y="-40" on="0"/>
        <pt x="249" y="-103" on="0"/>
        <pt x="198" y="-103" on="1"/>
      </contour>
    </TTGlyph>
    <TTGlyph name="bracketleft" xMin="117" yMin="-125" xMax="481" yMax="1466">
      <contour>
        <pt x="144" y="-125" on="1"/>
        <pt x="116" y="-125" on="0"/>
        <pt x="117" y="-64" on="1"/>
        <pt x="117" y="1408" on="1"/>
        <pt x="116" y="1466" on="0"/>
        <pt x="144" y="1466" on="1"/>
        <pt x="455" y="1466" on="1"/>
        <pt x="481" y="1466" on="0"/>
        <pt x="481" y="1415" on="1"/>
        <pt x="481" y="1307" on="1"/>
        <pt x="481" y="1256" on="0"/>
        <pt x="456" y="1256" on="1"/>
        <pt x="326" y="1256" on="1"/>
        <pt x="314" y="1256" on="0"/>
        <pt x="314" y="1223" on="1"/>
        <pt x="314" y="112" on="1"/>
        <pt x="314" y="80" on="0"/>
        <pt x="326" y="80" on="1"/>
        <pt x="455" y="80" on="1"/>
        <pt x="481" y="80" on="0"/>
        <pt x="481" y="22" on="1"/>
        <pt x="481" y="-71" on="1"/>
        <pt x="481" y="-125" on="0"/>
        <pt x="455" y="-125" on="1"/>
      </contour>
    </TTGlyph>
    <TTGlyph name="bracketright" xMin="103" yMin="-128" xMax="467" yMax="1466">
      <contour>
        <pt x="129" y="-128" on="1"/>
        <pt x="116" y="-128" on="0"/>
        <pt x="103" y="-108" on="0"/>
        <pt x="103" y="-78" on="1"/>
        <pt x="103" y="48" on="1"/>
        <pt x="103" y="99" on="0"/>
        <pt x="129" y="99" on="1"/>
        <pt x="258" y="99" on="1"/>
        <pt x="269" y="99" on="0"/>
        <pt x="269" y="132" on="1"/>
        <pt x="269" y="1210" on="1"/>
        <pt x="269" y="1242" on="0"/>
        <pt x="258" y="1242" on="1"/>
        <pt x="129" y="1242" on="1"/>
        <pt x="103" y="1242" on="0"/>
        <pt x="103" y="1301" on="1"/>
        <pt x="103" y="1409" on="1"/>
        <pt x="103" y="1466" on="0"/>
        <pt x="129" y="1466" on="1"/>
        <pt x="441" y="1466" on="1"/>
        <pt x="452" y="1466" on="0"/>
        <pt x="468" y="1433" on="0"/>
        <pt x="467" y="1402" on="1"/>
        <pt x="467" y="-71" on="1"/>
        <pt x="468" y="-128" on="0"/>
        <pt x="441" y="-128" on="1"/>
      </contour>
    </TTGlyph>
    <TTGlyph name="breve" xMin="423" yMin="1292" xMax="810" yMax="1487">
      <contour>
        <pt x="696" y="1292" on="0"/>
        <pt x="536" y="1292" on="0"/>
        <pt x="424" y="1390" on="0"/>
        <pt x="423" y="1487" on="1"/>
        <pt x="510" y="1487" on="1"/>
        <pt x="510" y="1436" on="0"/>
        <pt x="572" y="1387" on="0"/>
        <pt x="618" y="1387" on="1"/>
        <pt x="663" y="1387" on="0"/>
        <pt x="725" y="1435" on="0"/>
        <pt x="725" y="1487" on="1"/>
        <pt x="810" y="1487" on="1"/>
        <pt x="809" y="1391" on="0"/>
      </contour>
    </TTGlyph>
    <TTGlyph name="brokenbar" xMin="144" yMin="-123" xMax="243" yMax="1542">
      <contour>
        <pt x="170" y="-123" on="1"/>
        <pt x="145" y="-123" on="0"/>
        <pt x="145" y="-63" on="1"/>
        <pt x="145" y="506" on="1"/>
        <pt x="145" y="566" on="0"/>
        <pt x="170" y="566" on="1"/>
        <pt x="218" y="566" on="1"/>
        <pt x="243" y="566" on="0"/>
        <pt x="243" y="506" on="1"/>
        <pt x="243" y="-63" on="1"/>
        <pt x="243" y="-123" on="0"/>
        <pt x="218" y="-123" on="1"/>
      </contour>
      <contour>
        <pt x="170" y="852" on="1"/>
        <pt x="144" y="852" on="0"/>
        <pt x="144" y="912" on="1"/>
        <pt x="144" y="1482" on="1"/>
        <pt x="144" y="1542" on="0"/>
        <pt x="170" y="1542" on="1"/>
        <pt x="217" y="1542" on="1"/>
        <pt x="243" y="1542" on="0"/>
        <pt x="243" y="1482" on="1"/>
        <pt x="243" y="912" on="1"/>
        <pt x="243" y="852" on="0"/>
        <pt x="217" y="852" on="1"/>
      </contour>
    </TTGlyph>
    <TTGlyph name="bullet" xMin="236" yMin="616" xMax="956" yMax="1339">
      <contour>
        <pt x="672" y="616" on="0"/>
        <pt x="520" y="616" on="0"/>
        <pt x="396" y="659" on="0"/>
        <pt x="315" y="730" on="0"/>
        <pt x="260" y="825" on="0"/>
        <pt x="236" y="924" on="0"/>
        <pt x="236" y="976" on="1"/>
        <pt x="236" y="1045" on="0"/>
        <pt x="276" y="1170" on="0"/>
        <pt x="358" y="1276" on="0"/>
        <pt x="502" y="1339" on="0"/>
        <pt x="690" y="1339" on="0"/>
        <pt x="834" y="1276" on="0"/>
        <pt x="916" y="1170" on="0"/>
        <pt x="956" y="1045" on="0"/>
        <pt x="956" y="976" on="1"/>
        <pt x="956" y="924" on="0"/>
        <pt x="932" y="825" on="0"/>
        <pt x="877" y="730" on="0"/>
        <pt x="796" y="659" on="0"/>
      </contour>
    </TTGlyph>
    <TTGlyph name="c" xMin="81" yMin="-11" xMax="524" yMax="1018">
      <contour>
        <pt x="395" y="-11" on="1"/>
        <pt x="359" y="-11" on="0"/>
        <pt x="300" y="-3" on="0"/>
        <pt x="233" y="24" on="0"/>
        <pt x="182" y="69" on="0"/>
        <pt x="132" y="148" on="0"/>
        <pt x="100" y="256" on="0"/>
        <pt x="81" y="412" on="0"/>
        <pt x="81" y="509" on="1"/>
        <pt x="81" y="634" on="0"/>
        <pt x="115" y="821" on="0"/>
        <pt x="170" y="930" on="0"/>
        <pt x="251" y="996" on="0"/>
        <pt x="329" y="1018" on="0"/>
        <pt x="377" y="1018" on="1"/>
        <pt x="438" y="1018" on="0"/>
        <pt x="511" y="995" on="1"/>
        <pt x="515" y="994" on="0"/>
        <pt x="523" y="984" on="0"/>
        <pt x="523" y="980" on="1"/>
        <pt x="523" y="874" on="1"/>
        <pt x="524" y="867" on="0"/>
        <pt x="516" y="856" on="0"/>
        <pt x="511" y="858" on="1"/>
        <pt x="450" y="876" on="0"/>
        <pt x="419" y="876" on="1"/>
        <pt x="390" y="876" on="0"/>
        <pt x="350" y="866" on="0"/>
        <pt x="303" y="825" on="0"/>
        <pt x="274" y="749" on="0"/>
        <pt x="255" y="608" on="0"/>
        <pt x="255" y="509" on="1"/>
        <pt x="255" y="405" on="0"/>
        <pt x="273" y="260" on="0"/>
        <pt x="299" y="182" on="0"/>
        <pt x="346" y="141" on="0"/>
        <pt x="386" y="132" on="0"/>
        <pt x="419" y="132" on="1"/>
        <pt x="459" y="132" on="0"/>
        <pt x="511" y="148" on="1"/>
        <pt x="515" y="147" on="0"/>
        <pt x="524" y="133" on="0"/>
        <pt x="524" y="127" on="1"/>
        <pt x="524" y="28" on="1"/>
        <pt x="524" y="11" on="0"/>
        <pt x="511" y="7" on="1"/>
        <pt x="456" y="-10" on="0"/>
      </contour>
    </TTGlyph>
    <TTGlyph name="cacute" xMin="81" yMin="-11" xMax="524" yMax="1585">
      <component glyphName="acute" x="-80" y="-29" flags="0x1004"/>
      <component glyphName="c" x="0" y="0" flags="0x1204"/>
    </TTGlyph>
    <TTGlyph name="caron" xMin="15" yMin="1225" xMax="296" yMax="1561">
      <contour>
        <pt x="143" y="1225" on="1"/>
        <pt x="115" y="1225" on="0"/>
        <pt x="91" y="1301" on="1"/>
        <pt x="19" y="1499" on="1"/>
        <pt x="15" y="1517" on="0"/>
        <pt x="15" y="1529" on="1"/>
        <pt x="15" y="1552" on="0"/>
        <pt x="30" y="1553" on="1"/>
        <pt x="30" y="1561" on="0"/>
        <pt x="61" y="1561" on="1"/>
        <pt x="80" y="1561" on="0"/>
        <pt x="98" y="1521" on="1"/>
        <pt x="145" y="1402" on="1"/>
        <pt x="149" y="1386" on="0"/>
        <pt x="156" y="1386" on="1"/>
        <pt x="160" y="1386" on="0"/>
        <pt x="166" y="1402" on="1"/>
        <pt x="213" y="1521" on="1"/>
        <pt x="229" y="1561" on="0"/>
        <pt x="249" y="1561" on="1"/>
        <pt x="280" y="1561" on="0"/>
        <pt x="280" y="1553" on="1"/>
        <pt x="296" y="1552" on="0"/>
        <pt x="296" y="1526" on="1"/>
        <pt x="296" y="1515" on="0"/>
        <pt x="292" y="1499" on="1"/>
        <pt x="220" y="1301" on="1"/>
        <pt x="196" y="1225" on="0"/>
        <pt x="168" y="1225" on="1"/>
      </contour>
    </TTGlyph>
    <TTGlyph name="ccaron" xMin="81" yMin="-11" xMax="524" yMax="1476">
      <component glyphName="caron" x="147" y="-85" flags="0x1004"/>
      <component glyphName="c" x="0" y="0" flags="0x1204"/>
    </TTGlyph>
    <TTGlyph name="ccedilla" xMin="81" yMin="-570" xMax="524" yMax="1018">
      <component glyphName="cedilla" x="27" y="21" flags="0x1004"/>
      <component glyphName="c" x="0" y="0" flags="0x1004"/>
    </TTGlyph>
    <TTGlyph name="ccircumflex" xMin="81" yMin="-11" xMax="524" yMax="1476">
      <component glyphName="circumflex" x="147" y="-85" flags="0x1004"/>
      <component glyphName="c" x="0" y="0" flags="0x1204"/>
    </TTGlyph>
    <TTGlyph name="cdotaccent" xMin="81" yMin="-11" xMax="524" yMax="1379">
      <component glyphName="dotaccent" x="160" y="1097" flags="0x1004"/>
      <component glyphName="c" x="0" y="0" flags="0x1204"/>
    </TTGlyph>
    <TTGlyph name="cedilla" xMin="149" yMin="-591" xMax="482" yMax="-116">
      <contour>
        <pt x="310" y="-591" on="1"/>
        <pt x="239" y="-591" on="0"/>
        <pt x="149" y="-503" on="0"/>
        <pt x="149" y="-424" on="1"/>
        <pt x="149" y="-333" on="0"/>
        <pt x="179" y="-333" on="1"/>
        <pt x="230" y="-333" on="1"/>
        <pt x="253" y="-333" on="0"/>
        <pt x="253" y="-367" on="1"/>
        <pt x="253" y="-376" on="0"/>
        <pt x="249" y="-411" on="0"/>
        <pt x="249" y="-418" on="1"/>
        <pt x="249" y="-459" on="0"/>
        <pt x="283" y="-511" on="0"/>
        <pt x="349" y="-511" on="0"/>
        <pt x="382" y="-444" on="0"/>
        <pt x="382" y="-367" on="1"/>
        <pt x="382" y="-308" on="0"/>
        <pt x="337" y="-203" on="0"/>
        <pt x="309" y="-203" on="1"/>
        <pt x="279" y="-203" on="1"/>
        <pt x="267" y="-204" on="0"/>
        <pt x="267" y="-193" on="1"/>
        <pt x="267" y="-133" on="1"/>
        <pt x="267" y="-116" on="0"/>
        <pt x="279" y="-116" on="1"/>
        <pt x="343" y="-116" on="1"/>
        <pt x="403" y="-116" on="0"/>
        <pt x="482" y="-257" on="0"/>
        <pt x="482" y="-345" on="1"/>
        <pt x="482" y="-471" on="0"/>
        <pt x="400" y="-591" on="0"/>
      </contour>
    </TTGlyph>
    <TTGlyph name="cent" xMin="81" yMin="-181" xMax="524" yMax="1230">
      <contour>
        <pt x="523" y="980" on="1"/>
        <pt x="523" y="874" on="1"/>
        <pt x="524" y="868" on="0"/>
        <pt x="516" y="858" on="0"/>
        <pt x="512" y="858" on="1"/>
        <pt x="502" y="859" on="0"/>
        <pt x="457" y="872" on="0"/>
        <pt x="446" y="873" on="1"/>
        <pt x="446" y="133" on="1"/>
        <pt x="476" y="137" on="0"/>
        <pt x="511" y="148" on="1"/>
        <pt x="515" y="147" on="0"/>
        <pt x="524" y="133" on="0"/>
        <pt x="524" y="127" on="1"/>
        <pt x="524" y="28" on="1"/>
        <pt x="524" y="22" on="0"/>
        <pt x="519" y="11" on="0"/>
        <pt x="507" y="5" on="0"/>
        <pt x="496" y="0" on="0"/>
        <pt x="478" y="-3" on="0"/>
        <pt x="468" y="-5" on="0"/>
        <pt x="448" y="-7" on="0"/>
        <pt x="446" y="-7" on="1"/>
        <pt x="446" y="-127" on="1"/>
        <pt x="446" y="-181" on="0"/>
        <pt x="422" y="-181" on="1"/>
        <pt x="396" y="-181" on="1"/>
        <pt x="372" y="-181" on="0"/>
        <pt x="372" y="-127" on="1"/>
        <pt x="372" y="-11" on="1"/>
        <pt x="323" y="-9" on="0"/>
        <pt x="248" y="14" on="0"/>
        <pt x="167" y="81" on="0"/>
        <pt x="115" y="191" on="0"/>
        <pt x="81" y="381" on="0"/>
        <pt x="81" y="509" on="1"/>
        <pt x="81" y="632" on="0"/>
        <pt x="115" y="816" on="0"/>
        <pt x="168" y="925" on="0"/>
        <pt x="247" y="993" on="0"/>
        <pt x="325" y="1017" on="0"/>
        <pt x="372" y="1017" on="1"/>
        <pt x="372" y="1177" on="1"/>
        <pt x="372" y="1230" on="0"/>
        <pt x="396" y="1230" on="1"/>
        <pt x="422" y="1230" on="1"/>
        <pt x="446" y="1230" on="0"/>
        <pt x="446" y="1177" on="1"/>
        <pt x="446" y="1010" on="1"/>
        <pt x="447" y="1010" on="0"/>
        <pt x="473" y="1006" on="0"/>
        <pt x="489" y="1003" on="0"/>
        <pt x="511" y="996" on="0"/>
        <pt x="523" y="986" on="0"/>
      </contour>
      <contour>
        <pt x="372" y="136" on="1"/>
        <pt x="372" y="871" on="1"/>
        <pt x="337" y="861" on="0"/>
        <pt x="290" y="803" on="0"/>
        <pt x="255" y="641" on="0"/>
        <pt x="255" y="509" on="1"/>
        <pt x="255" y="402" on="0"/>
        <pt x="272" y="256" on="0"/>
        <pt x="306" y="177" on="0"/>
        <pt x="345" y="141" on="0"/>
      </contour>
    </TTGlyph>
    <TTGlyph name="circumflex" xMin="15" yMin="1225" xMax="296" yMax="1561">
      <contour>
        <pt x="62" y="1225" on="1"/>
        <pt x="31" y="1225" on="0"/>
        <pt x="31" y="1233" on="1"/>
        <pt x="15" y="1234" on="0"/>
        <pt x="15" y="1260" on="1"/>
        <pt x="15" y="1271" on="0"/>
        <pt x="19" y="1287" on="1"/>
        <pt x="91" y="1486" on="1"/>
        <pt x="115" y="1561" on="0"/>
        <pt x="143" y="1561" on="1"/>
        <pt x="168" y="1561" on="1"/>
        <pt x="196" y="1561" on="0"/>
        <pt x="220" y="1486" on="1"/>
        <pt x="292" y="1287" on="1"/>
        <pt x="296" y="1269" on="0"/>
        <pt x="296" y="1256" on="1"/>
        <pt x="296" y="1234" on="0"/>
        <pt x="281" y="1233" on="1"/>
        <pt x="281" y="1225" on="0"/>
        <pt x="250" y="1225" on="1"/>
        <pt x="229" y="1225" on="0"/>
        <pt x="213" y="1266" on="1"/>
        <pt x="166" y="1384" on="1"/>
        <pt x="160" y="1401" on="0"/>
        <pt x="150" y="1401" on="0"/>
        <pt x="145" y="1384" on="1"/>
        <pt x="98" y="1266" on="1"/>
        <pt x="80" y="1225" on="0"/>
      </contour>
    </TTGlyph>
    <TTGlyph name="colon" xMin="99" yMin="0" xMax="241" yMax="1022">
      <contour>
        <pt x="126" y="0" on="1"/>
        <pt x="99" y="0" on="0"/>
        <pt x="99" y="64" on="1"/>
        <pt x="99" y="268" on="1"/>
        <pt x="99" y="332" on="0"/>
        <pt x="126" y="332" on="1"/>
        <pt x="214" y="332" on="1"/>
        <pt x="241" y="332" on="0"/>
        <pt x="241" y="268" on="1"/>
        <pt x="241" y="64" on="1"/>
        <pt x="241" y="0" on="0"/>
        <pt x="214" y="0" on="1"/>
      </contour>
      <contour>
        <pt x="126" y="690" on="1"/>
        <pt x="99" y="690" on="0"/>
        <pt x="99" y="754" on="1"/>
        <pt x="99" y="958" on="1"/>
        <pt x="99" y="1022" on="0"/>
        <pt x="126" y="1022" on="1"/>
        <pt x="214" y="1022" on="1"/>
        <pt x="241" y="1022" on="0"/>
        <pt x="241" y="958" on="1"/>
        <pt x="241" y="754" on="1"/>
        <pt x="241" y="690" on="0"/>
        <pt x="214" y="690" on="1"/>
      </contour>
    </TTGlyph>
    <TTGlyph name="comma" xMin="90" yMin="-318" xMax="259" yMax="264">
      <contour>
        <pt x="117" y="-316" on="1"/>
        <pt x="113" y="-318" on="0"/>
        <pt x="111" y="-318" on="1"/>
        <pt x="92" y="-318" on="0"/>
        <pt x="92" y="-275" on="1"/>
        <pt x="92" y="-257" on="1"/>
        <pt x="92" y="-226" on="0"/>
        <pt x="98" y="-210" on="0"/>
        <pt x="115" y="-191" on="1"/>
        <pt x="137" y="-164" on="0"/>
        <pt x="162" y="-68" on="0"/>
        <pt x="162" y="-27" on="1"/>
        <pt x="162" y="0" on="0"/>
        <pt x="156" y="0" on="1"/>
        <pt x="111" y="0" on="1"/>
        <pt x="90" y="0" on="0"/>
        <pt x="90" y="57" on="1"/>
        <pt x="90" y="204" on="1"/>
        <pt x="90" y="264" on="0"/>
        <pt x="117" y="264" on="1"/>
        <pt x="233" y="264" on="1"/>
        <pt x="259" y="264" on="0"/>
        <pt x="259" y="200" on="1"/>
        <pt x="259" y="50" on="1"/>
        <pt x="259" y="-34" on="0"/>
        <pt x="229" y="-173" on="0"/>
        <pt x="182" y="-257" on="0"/>
        <pt x="138" y="-306" on="0"/>
      </contour>
    </TTGlyph>
    <TTGlyph name="copyright" xMin="94" yMin="-16" xMax="1349" yMax="1458">
      <contour>
        <pt x="736" y="337" on="1"/>
        <pt x="676" y="337" on="0"/>
        <pt x="570" y="383" on="0"/>
        <pt x="484" y="475" on="0"/>
        <pt x="433" y="630" on="0"/>
        <pt x="433" y="729" on="1"/>
        <pt x="433" y="830" on="0"/>
        <pt x="485" y="984" on="0"/>
        <pt x="571" y="1072" on="0"/>
        <pt x="671" y="1115" on="0"/>
        <pt x="725" y="1115" on="1"/>
        <pt x="836" y="1115" on="0"/>
        <pt x="911" y="1056" on="1"/>
        <pt x="922" y="1046" on="0"/>
        <pt x="922" y="1021" on="1"/>
        <pt x="922" y="999" on="0"/>
        <pt x="904" y="959" on="0"/>
        <pt x="892" y="959" on="1"/>
        <pt x="890" y="959" on="0"/>
        <pt x="885" y="962" on="1"/>
        <pt x="810" y="1012" on="0"/>
        <pt x="747" y="1012" on="1"/>
        <pt x="654" y="1012" on="0"/>
        <pt x="547" y="866" on="0"/>
        <pt x="547" y="728" on="1"/>
        <pt x="547" y="579" on="0"/>
        <pt x="661" y="442" on="0"/>
        <pt x="748" y="442" on="1"/>
        <pt x="774" y="442" on="0"/>
        <pt x="820" y="451" on="0"/>
        <pt x="836" y="456" on="0"/>
        <pt x="881" y="480" on="0"/>
        <pt x="883" y="481" on="1"/>
        <pt x="884" y="481" on="0"/>
        <pt x="886" y="482" on="1"/>
        <pt x="888" y="482" on="1"/>
        <pt x="901" y="482" on="0"/>
        <pt x="923" y="439" on="0"/>
        <pt x="923" y="416" on="1"/>
        <pt x="923" y="391" on="0"/>
        <pt x="908" y="384" on="1"/>
        <pt x="861" y="358" on="0"/>
        <pt x="787" y="337" on="0"/>
      </contour>
      <contour>
        <pt x="724" y="93" on="1"/>
        <pt x="832" y="93" on="0"/>
        <pt x="1008" y="167" on="0"/>
        <pt x="1123" y="288" on="0"/>
        <pt x="1201" y="452" on="0"/>
        <pt x="1235" y="625" on="0"/>
        <pt x="1235" y="717" on="1"/>
        <pt x="1235" y="812" on="0"/>
        <pt x="1201" y="988" on="0"/>
        <pt x="1123" y="1152" on="0"/>
        <pt x="1008" y="1273" on="0"/>
        <pt x="832" y="1346" on="0"/>
        <pt x="724" y="1346" on="1"/>
        <pt x="615" y="1346" on="0"/>
        <pt x="439" y="1273" on="0"/>
        <pt x="324" y="1152" on="0"/>
        <pt x="246" y="988" on="0"/>
        <pt x="213" y="812" on="0"/>
        <pt x="213" y="717" on="1"/>
        <pt x="213" y="625" on="0"/>
        <pt x="246" y="452" on="0"/>
        <pt x="324" y="288" on="0"/>
        <pt x="439" y="167" on="0"/>
        <pt x="615" y="93" on="0"/>
      </contour>
      <contour>
        <pt x="721" y="-16" on="1"/>
        <pt x="597" y="-16" on="0"/>
        <pt x="389" y="63" on="0"/>
        <pt x="243" y="200" on="0"/>
        <pt x="142" y="387" on="0"/>
        <pt x="94" y="603" on="0"/>
        <pt x="94" y="839" on="0"/>
        <pt x="142" y="1054" on="0"/>
        <pt x="243" y="1242" on="0"/>
        <pt x="389" y="1379" on="0"/>
        <pt x="597" y="1458" on="0"/>
        <pt x="721" y="1458" on="1"/>
        <pt x="876" y="1458" on="0"/>
        <pt x="1121" y="1338" on="0"/>
        <pt x="1271" y="1131" on="0"/>
        <pt x="1349" y="870" on="0"/>
        <pt x="1349" y="572" on="0"/>
        <pt x="1271" y="310" on="0"/>
        <pt x="1121" y="104" on="0"/>
        <pt x="876" y="-16" on="0"/>
      </contour>
    </TTGlyph>
    <TTGlyph name="currency" xMin="119" yMin="515" xMax="1073" yMax="1444">
      <contour>
        <pt x="596" y="515" on="1"/>
        <pt x="508" y="515" on="0"/>
        <pt x="379" y="555" on="0"/>
        <pt x="316" y="596" on="1"/>
        <pt x="288" y="568" on="1"/>
        <pt x="254" y="532" on="0"/>
        <pt x="236" y="532" on="1"/>
        <pt x="223" y="532" on="0"/>
        <pt x="213" y="543" on="1"/>
        <pt x="183" y="572" on="1"/>
        <pt x="170" y="586" on="0"/>
        <pt x="170" y="599" on="1"/>
        <pt x="170" y="616" on="0"/>
        <pt x="204" y="650" on="1"/>
        <pt x="227" y="673" on="1"/>
        <pt x="119" y="798" on="0"/>
        <pt x="119" y="977" on="1"/>
        <pt x="119" y="1159" on="0"/>
        <pt x="229" y="1286" on="1"/>
        <pt x="204" y="1311" on="1"/>
        <pt x="168" y="1347" on="0"/>
        <pt x="168" y="1363" on="1"/>
        <pt x="168" y="1376" on="0"/>
        <pt x="180" y="1386" on="1"/>
        <pt x="210" y="1415" on="1"/>
        <pt x="222" y="1428" on="0"/>
        <pt x="237" y="1428" on="1"/>
        <pt x="254" y="1428" on="0"/>
        <pt x="288" y="1394" on="1"/>
        <pt x="319" y="1363" on="1"/>
        <pt x="382" y="1404" on="0"/>
        <pt x="510" y="1444" on="0"/>
        <pt x="596" y="1444" on="1"/>
        <pt x="750" y="1444" on="0"/>
        <pt x="874" y="1363" on="1"/>
        <pt x="904" y="1393" on="1"/>
        <pt x="939" y="1428" on="0"/>
        <pt x="957" y="1428" on="1"/>
        <pt x="970" y="1428" on="0"/>
        <pt x="982" y="1415" on="1"/>
        <pt x="1013" y="1386" on="1"/>
        <pt x="1024" y="1373" on="0"/>
        <pt x="1024" y="1363" on="1"/>
        <pt x="1024" y="1347" on="0"/>
        <pt x="988" y="1311" on="1"/>
        <pt x="963" y="1286" on="1"/>
        <pt x="1073" y="1161" on="0"/>
        <pt x="1073" y="977" on="1"/>
        <pt x="1073" y="798" on="0"/>
        <pt x="966" y="673" on="1"/>
        <pt x="988" y="651" on="1"/>
        <pt x="1023" y="616" on="0"/>
        <pt x="1023" y="599" on="1"/>
        <pt x="1023" y="586" on="0"/>
        <pt x="1010" y="573" on="1"/>
        <pt x="980" y="543" on="1"/>
        <pt x="967" y="532" on="0"/>
        <pt x="958" y="532" on="1"/>
        <pt x="939" y="532" on="0"/>
        <pt x="905" y="568" on="1"/>
        <pt x="877" y="596" on="1"/>
        <pt x="752" y="515" on="0"/>
      </contour>
      <contour>
        <pt x="520" y="616" on="0"/>
        <pt x="672" y="616" on="0"/>
        <pt x="796" y="659" on="0"/>
        <pt x="877" y="730" on="0"/>
        <pt x="932" y="825" on="0"/>
        <pt x="956" y="924" on="0"/>
        <pt x="956" y="976" on="1"/>
        <pt x="956" y="1045" on="0"/>
        <pt x="916" y="1170" on="0"/>
        <pt x="834" y="1276" on="0"/>
        <pt x="690" y="1339" on="0"/>
        <pt x="502" y="1339" on="0"/>
        <pt x="358" y="1276" on="0"/>
        <pt x="276" y="1170" on="0"/>
        <pt x="236" y="1045" on="0"/>
        <pt x="236" y="976" on="1"/>
        <pt x="236" y="924" on="0"/>
        <pt x="260" y="825" on="0"/>
        <pt x="315" y="730" on="0"/>
        <pt x="396" y="659" on="0"/>
      </contour>
    </TTGlyph>
    <TTGlyph name="d" xMin="79" yMin="-11" xMax="685" yMax="1428">
      <contour>
        <pt x="342" y="-11" on="1"/>
        <pt x="79" y="-11" on="0"/>
        <pt x="79" y="500" on="1"/>
        <pt x="79" y="1018" on="0"/>
        <pt x="335" y="1018" on="1"/>
        <pt x="446" y="1018" on="0"/>
        <pt x="499" y="878" on="1"/>
        <pt x="506" y="868" on="0"/>
        <pt x="507" y="868" on="1"/>
        <pt x="511" y="868" on="0"/>
        <pt x="511" y="881" on="1"/>
        <pt x="511" y="1368" on="1"/>
        <pt x="511" y="1428" on="0"/>
        <pt x="536" y="1428" on="1"/>
        <pt x="660" y="1428" on="1"/>
        <pt x="685" y="1428" on="0"/>
        <pt x="685" y="1368" on="1"/>
        <pt x="685" y="67" on="1"/>
        <pt x="685" y="0" on="0"/>
        <pt x="661" y="0" on="1"/>
        <pt x="632" y="0" on="1"/>
        <pt x="610" y="0" on="0"/>
        <pt x="598" y="60" on="1"/>
        <pt x="571" y="214" on="0"/>
        <pt x="566" y="216" on="1"/>
        <pt x="563" y="213" on="0"/>
        <pt x="559" y="204" on="1"/>
        <pt x="532" y="80" on="0"/>
        <pt x="422" y="-11" on="0"/>
      </contour>
      <contour>
        <pt x="510" y="511" on="1"/>
        <pt x="510" y="700" on="0"/>
        <pt x="442" y="882" on="0"/>
        <pt x="381" y="882" on="1"/>
        <pt x="351" y="882" on="0"/>
        <pt x="308" y="851" on="0"/>
        <pt x="272" y="773" on="0"/>
        <pt x="254" y="622" on="0"/>
        <pt x="254" y="511" on="1"/>
        <pt x="254" y="356" on="0"/>
        <pt x="286" y="182" on="0"/>
        <pt x="338" y="125" on="0"/>
        <pt x="380" y="125" on="1"/>
        <pt x="510" y="125" on="0"/>
      </contour>
    </TTGlyph>
    <TTGlyph name="dagger" xMin="-128" yMin="0" xMax="651" yMax="1462">
      <contour>
        <pt x="215" y="0" on="1"/>
        <pt x="190" y="0" on="0"/>
        <pt x="190" y="54" on="1"/>
        <pt x="190" y="898" on="1"/>
        <pt x="-76" y="898" on="1"/>
        <pt x="-128" y="898" on="0"/>
        <pt x="-128" y="923" on="1"/>
        <pt x="-128" y="1034" on="1"/>
        <pt x="-128" y="1061" on="0"/>
        <pt x="-76" y="1061" on="1"/>
        <pt x="190" y="1061" on="1"/>
        <pt x="190" y="1402" on="1"/>
        <pt x="190" y="1462" on="0"/>
        <pt x="215" y="1462" on="1"/>
        <pt x="327" y="1462" on="1"/>
        <pt x="352" y="1462" on="0"/>
        <pt x="352" y="1402" on="1"/>
        <pt x="352" y="1061" on="1"/>
        <pt x="594" y="1061" on="1"/>
        <pt x="651" y="1061" on="0"/>
        <pt x="651" y="1034" on="1"/>
        <pt x="651" y="923" on="1"/>
        <pt x="651" y="898" on="0"/>
        <pt x="594" y="898" on="1"/>
        <pt x="352" y="898" on="1"/>
        <pt x="352" y="54" on="1"/>
        <pt x="352" y="0" on="0"/>
        <pt x="327" y="0" on="1"/>
      </contour>
    </TTGlyph>
    <TTGlyph name="daggerdbl" xMin="-128" yMin="0" xMax="651" yMax="1462">
      <contour>
        <pt x="215" y="0" on="1"/>
        <pt x="190" y="0" on="0"/>
        <pt x="190" y="54" on="1"/>
        <pt x="190" y="367" on="1"/>
        <pt x="-76" y="367" on="1"/>
        <pt x="-128" y="367" on="0"/>
        <pt x="-128" y="391" on="1"/>
        <pt x="-128" y="503" on="1"/>
        <pt x="-128" y="529" on="0"/>
        <pt x="-76" y="529" on="1"/>
        <pt x="190" y="529" on="1"/>
        <pt x="190" y="934" on="1"/>
        <pt x="-76" y="934" on="1"/>
        <pt x="-128" y="934" on="0"/>
        <pt x="-128" y="959" on="1"/>
        <pt x="-128" y="1070" on="1"/>
        <pt x="-128" y="1097" on="0"/>
        <pt x="-76" y="1097" on="1"/>
        <pt x="190" y="1097" on="1"/>
        <pt x="190" y="1402" on="1"/>
        <pt x="190" y="1462" on="0"/>
        <pt x="215" y="1462" on="1"/>
        <pt x="327" y="1462" on="1"/>
        <pt x="352" y="1462" on="0"/>
        <pt x="352" y="1402" on="1"/>
        <pt x="352" y="1097" on="1"/>
        <pt x="594" y="1097" on="1"/>
        <pt x="651" y="1097" on="0"/>
        <pt x="651" y="1070" on="1"/>
        <pt x="651" y="959" on="1"/>
        <pt x="651" y="934" on="0"/>
        <pt x="594" y="934" on="1"/>
        <pt x="352" y="934" on="1"/>
        <pt x="352" y="529" on="1"/>
        <pt x="594" y="529" on="1"/>
        <pt x="651" y="529" on="0"/>
        <pt x="651" y="503" on="1"/>
        <pt x="651" y="391" on="1"/>
        <pt x="651" y="367" on="0"/>
        <pt x="594" y="367" on="1"/>
        <pt x="352" y="367" on="1"/>
        <pt x="352" y="54" on="1"/>
        <pt x="352" y="0" on="0"/>
        <pt x="327" y="0" on="1"/>
      </contour>
    </TTGlyph>
    <TTGlyph name="dcaron" xMin="79" yMin="-11" xMax="1037" yMax="1428">
      <component glyphName="comma" x="778" y="1164" flags="0x1004"/>
      <component glyphName="d" x="0" y="0" flags="0x1004"/>
    </TTGlyph>
    <TTGlyph name="dcroat" xMin="79" yMin="-11" xMax="787" yMax="1428">
      <contour>
        <pt x="342" y="-11" on="1"/>
        <pt x="79" y="-11" on="0"/>
        <pt x="79" y="500" on="1"/>
        <pt x="79" y="1018" on="0"/>
        <pt x="335" y="1018" on="1"/>
        <pt x="446" y="1018" on="0"/>
        <pt x="499" y="878" on="1"/>
        <pt x="506" y="868" on="0"/>
        <pt x="507" y="868" on="1"/>
        <pt x="511" y="868" on="0"/>
        <pt x="511" y="885" on="1"/>
        <pt x="511" y="1174" on="1"/>
        <pt x="337" y="1174" on="1"/>
        <pt x="303" y="1174" on="0"/>
        <pt x="303" y="1212" on="1"/>
        <pt x="303" y="1241" on="1"/>
        <pt x="303" y="1280" on="0"/>
        <pt x="337" y="1280" on="1"/>
        <pt x="511" y="1280" on="1"/>
        <pt x="511" y="1368" on="1"/>
        <pt x="511" y="1428" on="0"/>
        <pt x="536" y="1428" on="1"/>
        <pt x="660" y="1428" on="1"/>
        <pt x="685" y="1428" on="0"/>
        <pt x="685" y="1368" on="1"/>
        <pt x="685" y="1280" on="1"/>
        <pt x="752" y="1280" on="1"/>
        <pt x="787" y="1280" on="0"/>
        <pt x="787" y="1241" on="1"/>
        <pt x="787" y="1213" on="1"/>
        <pt x="787" y="1174" on="0"/>
        <pt x="752" y="1174" on="1"/>
        <pt x="685" y="1174" on="1"/>
        <pt x="685" y="67" on="1"/>
        <pt x="685" y="0" on="0"/>
        <pt x="661" y="0" on="1"/>
        <pt x="629" y="1" on="0"/>
        <pt x="628" y="3" on="1"/>
        <pt x="607" y="10" on="0"/>
        <pt x="597" y="63" on="1"/>
        <pt x="572" y="194" on="0"/>
        <pt x="572" y="199" on="1"/>
        <pt x="571" y="214" on="0"/>
        <pt x="566" y="216" on="1"/>
        <pt x="563" y="213" on="0"/>
        <pt x="559" y="204" on="1"/>
        <pt x="532" y="80" on="0"/>
        <pt x="422" y="-11" on="0"/>
      </contour>
      <contour>
        <pt x="510" y="511" on="1"/>
        <pt x="510" y="700" on="0"/>
        <pt x="442" y="882" on="0"/>
        <pt x="381" y="882" on="1"/>
        <pt x="351" y="882" on="0"/>
        <pt x="308" y="851" on="0"/>
        <pt x="272" y="773" on="0"/>
        <pt x="254" y="622" on="0"/>
        <pt x="254" y="511" on="1"/>
        <pt x="254" y="356" on="0"/>
        <pt x="286" y="182" on="0"/>
        <pt x="338" y="125" on="0"/>
        <pt x="380" y="125" on="1"/>
        <pt x="510" y="125" on="0"/>
      </contour>
    </TTGlyph>
    <TTGlyph name="degree" xMin="444" yMin="1245" xMax="855" yMax="1637">
      <contour>
        <pt x="651" y="1318" on="1"/>
        <pt x="699" y="1318" on="0"/>
        <pt x="767" y="1379" on="0"/>
        <pt x="767" y="1441" on="1"/>
        <pt x="767" y="1506" on="0"/>
        <pt x="698" y="1563" on="0"/>
        <pt x="651" y="1563" on="1"/>
        <pt x="601" y="1563" on="0"/>
        <pt x="531" y="1506" on="0"/>
        <pt x="532" y="1441" on="1"/>
        <pt x="531" y="1379" on="0"/>
        <pt x="601" y="1318" on="0"/>
      </contour>
      <contour>
        <pt x="651" y="1245" on="1"/>
        <pt x="617" y="1245" on="0"/>
        <pt x="549" y="1265" on="0"/>
        <pt x="484" y="1308" on="0"/>
        <pt x="444" y="1388" on="0"/>
        <pt x="444" y="1441" on="1"/>
        <pt x="444" y="1496" on="0"/>
        <pt x="482" y="1576" on="0"/>
        <pt x="545" y="1618" on="0"/>
        <pt x="613" y="1637" on="0"/>
        <pt x="651" y="1637" on="1"/>
        <pt x="680" y="1637" on="0"/>
        <pt x="734" y="1626" on="0"/>
        <pt x="789" y="1598" on="0"/>
        <pt x="830" y="1555" on="0"/>
        <pt x="855" y="1485" on="0"/>
        <pt x="855" y="1441" on="1"/>
        <pt x="855" y="1388" on="0"/>
        <pt x="815" y="1308" on="0"/>
        <pt x="751" y="1265" on="0"/>
        <pt x="684" y="1245" on="0"/>
      </contour>
    </TTGlyph>
    <TTGlyph name="dieresis" xMin="25" yMin="0" xMax="365" yMax="196">
      <contour>
        <pt x="52" y="0" on="1"/>
        <pt x="25" y="0" on="0"/>
        <pt x="25" y="57" on="1"/>
        <pt x="25" y="139" on="1"/>
        <pt x="25" y="196" on="0"/>
        <pt x="52" y="196" on="1"/>
        <pt x="112" y="196" on="1"/>
        <pt x="139" y="196" on="0"/>
        <pt x="139" y="139" on="1"/>
        <pt x="139" y="57" on="1"/>
        <pt x="139" y="0" on="0"/>
        <pt x="112" y="0" on="1"/>
      </contour>
      <contour>
        <pt x="278" y="0" on="1"/>
        <pt x="252" y="0" on="0"/>
        <pt x="252" y="57" on="1"/>
        <pt x="252" y="139" on="1"/>
        <pt x="252" y="196" on="0"/>
        <pt x="278" y="196" on="1"/>
        <pt x="339" y="196" on="1"/>
        <pt x="365" y="196" on="0"/>
        <pt x="365" y="139" on="1"/>
        <pt x="365" y="57" on="1"/>
        <pt x="365" y="0" on="0"/>
        <pt x="339" y="0" on="1"/>
      </contour>
    </TTGlyph>
    <TTGlyph name="divide" xMin="95" yMin="195" xMax="772" yMax="1177">
      <contour>
        <pt x="772" y="638" on="1"/>
        <pt x="772" y="612" on="0"/>
        <pt x="714" y="612" on="1"/>
        <pt x="151" y="612" on="1"/>
        <pt x="95" y="612" on="0"/>
        <pt x="95" y="638" on="1"/>
        <pt x="95" y="750" on="1"/>
        <pt x="95" y="774" on="0"/>
        <pt x="151" y="774" on="1"/>
        <pt x="714" y="774" on="1"/>
        <pt x="772" y="774" on="0"/>
        <pt x="772" y="750" on="1"/>
      </contour>
      <contour>
        <pt x="378" y="941" on="1"/>
        <pt x="353" y="941" on="0"/>
        <pt x="353" y="995" on="1"/>
        <pt x="353" y="1124" on="1"/>
        <pt x="353" y="1177" on="0"/>
        <pt x="378" y="1177" on="1"/>
        <pt x="497" y="1177" on="1"/>
        <pt x="522" y="1177" on="0"/>
        <pt x="522" y="1124" on="1"/>
        <pt x="522" y="995" on="1"/>
        <pt x="522" y="941" on="0"/>
        <pt x="497" y="941" on="1"/>
      </contour>
      <contour>
        <pt x="378" y="195" on="1"/>
        <pt x="353" y="195" on="0"/>
        <pt x="353" y="249" on="1"/>
        <pt x="353" y="378" on="1"/>
        <pt x="353" y="431" on="0"/>
        <pt x="378" y="431" on="1"/>
        <pt x="497" y="431" on="1"/>
        <pt x="522" y="431" on="0"/>
        <pt x="522" y="378" on="1"/>
        <pt x="522" y="249" on="1"/>
        <pt x="522" y="195" on="0"/>
        <pt x="497" y="195" on="1"/>
      </contour>
    </TTGlyph>
    <TTGlyph name="dollar" xMin="41" yMin="-198" xMax="724" yMax="1643">
      <contour>
        <pt x="388" y="1283" on="1"/>
        <pt x="329" y="1273" on="0"/>
        <pt x="257" y="1161" on="0"/>
        <pt x="257" y="1084" on="1"/>
        <pt x="257" y="1008" on="0"/>
        <pt x="325" y="908" on="0"/>
        <pt x="388" y="867" on="1"/>
      </contour>
      <contour>
        <pt x="439" y="168" on="1"/>
        <pt x="491" y="189" on="0"/>
        <pt x="547" y="298" on="0"/>
        <pt x="547" y="444" on="0"/>
        <pt x="493" y="542" on="0"/>
        <pt x="439" y="583" on="1"/>
      </contour>
      <contour>
        <pt x="403" y="-198" on="1"/>
        <pt x="388" y="-198" on="0"/>
        <pt x="388" y="-132" on="1"/>
        <pt x="388" y="-15" on="1"/>
        <pt x="381" y="-15" on="1"/>
        <pt x="169" y="-15" on="0"/>
        <pt x="47" y="168" on="1"/>
        <pt x="41" y="177" on="0"/>
        <pt x="41" y="191" on="1"/>
        <pt x="41" y="226" on="0"/>
        <pt x="98" y="309" on="0"/>
        <pt x="124" y="309" on="1"/>
        <pt x="134" y="309" on="0"/>
        <pt x="142" y="300" on="1"/>
        <pt x="254" y="157" on="0"/>
        <pt x="381" y="157" on="1"/>
        <pt x="388" y="157" on="1"/>
        <pt x="388" y="618" on="1"/>
        <pt x="277" y="693" on="1"/>
        <pt x="235" y="721" on="0"/>
        <pt x="173" y="781" on="0"/>
        <pt x="116" y="866" on="0"/>
        <pt x="85" y="981" on="0"/>
        <pt x="85" y="1050" on="1"/>
        <pt x="85" y="1223" on="0"/>
        <pt x="250" y="1449" on="0"/>
        <pt x="388" y="1454" on="1"/>
        <pt x="388" y="1578" on="1"/>
        <pt x="388" y="1643" on="0"/>
        <pt x="403" y="1643" on="1"/>
        <pt x="425" y="1643" on="1"/>
        <pt x="439" y="1643" on="0"/>
        <pt x="439" y="1578" on="1"/>
        <pt x="439" y="1453" on="1"/>
        <pt x="604" y="1443" on="0"/>
        <pt x="700" y="1317" on="1"/>
        <pt x="710" y="1304" on="0"/>
        <pt x="710" y="1286" on="1"/>
        <pt x="710" y="1251" on="0"/>
        <pt x="651" y="1173" on="0"/>
        <pt x="631" y="1173" on="1"/>
        <pt x="625" y="1173" on="0"/>
        <pt x="622" y="1177" on="1"/>
        <pt x="544" y="1271" on="0"/>
        <pt x="439" y="1283" on="1"/>
        <pt x="439" y="834" on="1"/>
        <pt x="523" y="780" on="1"/>
        <pt x="724" y="650" on="0"/>
        <pt x="724" y="400" on="1"/>
        <pt x="724" y="236" on="0"/>
        <pt x="571" y="11" on="0"/>
        <pt x="439" y="-10" on="1"/>
        <pt x="439" y="-132" on="1"/>
        <pt x="439" y="-198" on="0"/>
        <pt x="425" y="-198" on="1"/>
      </contour>
    </TTGlyph>
    <TTGlyph name="dotaccent" xMin="45" yMin="43" xMax="239" yMax="282">
      <contour>
        <pt x="72" y="43" on="1"/>
        <pt x="45" y="43" on="0"/>
        <pt x="45" y="93" on="1"/>
        <pt x="45" y="232" on="1"/>
        <pt x="45" y="282" on="0"/>
        <pt x="72" y="282" on="1"/>
        <pt x="212" y="282" on="1"/>
        <pt x="239" y="282" on="0"/>
        <pt x="239" y="232" on="1"/>
        <pt x="239" y="93" on="1"/>
        <pt x="239" y="43" on="0"/>
        <pt x="212" y="43" on="1"/>
      </contour>
    </TTGlyph>
    <TTGlyph name="dotlessi" xMin="108" yMin="0" xMax="269" yMax="1006">
      <contour>
        <pt x="133" y="0" on="1"/>
        <pt x="108" y="0" on="0"/>
        <pt x="108" y="67" on="1"/>
        <pt x="108" y="940" on="1"/>
        <pt x="108" y="1006" on="0"/>
        <pt x="133" y="1006" on="1"/>
        <pt x="245" y="1006" on="1"/>
        <pt x="269" y="1006" on="0"/>
        <pt x="269" y="940" on="1"/>
        <pt x="269" y="67" on="1"/>
        <pt x="269" y="0" on="0"/>
        <pt x="245" y="0" on="1"/>
      </contour>
    </TTGlyph>
    <TTGlyph name="e" xMin="81" yMin="-11" xMax="631" yMax="1018">
      <contour>
        <pt x="623" y="242" on="1"/>
        <pt x="623" y="131" on="0"/>
        <pt x="503" y="-11" on="0"/>
        <pt x="385" y="-11" on="1"/>
        <pt x="338" y="-11" on="0"/>
        <pt x="260" y="10" on="0"/>
        <pt x="176" y="76" on="0"/>
        <pt x="118" y="185" on="0"/>
        <pt x="81" y="376" on="0"/>
        <pt x="81" y="504" on="1"/>
        <pt x="81" y="633" on="0"/>
        <pt x="117" y="824" on="0"/>
        <pt x="173" y="933" on="0"/>
        <pt x="254" y="998" on="0"/>
        <pt x="328" y="1018" on="0"/>
        <pt x="373" y="1018" on="1"/>
        <pt x="631" y="1018" on="0"/>
        <pt x="631" y="536" on="1"/>
        <pt x="631" y="466" on="0"/>
        <pt x="606" y="466" on="1"/>
        <pt x="258" y="466" on="1"/>
        <pt x="250" y="466" on="0"/>
        <pt x="250" y="441" on="1"/>
        <pt x="251" y="289" on="0"/>
        <pt x="322" y="125" on="0"/>
        <pt x="390" y="125" on="1"/>
        <pt x="423" y="125" on="0"/>
        <pt x="468" y="155" on="0"/>
        <pt x="490" y="213" on="0"/>
        <pt x="499" y="256" on="0"/>
        <pt x="502" y="288" on="1"/>
        <pt x="505" y="310" on="0"/>
        <pt x="519" y="310" on="1"/>
        <pt x="600" y="310" on="1"/>
        <pt x="623" y="310" on="0"/>
        <pt x="623" y="258" on="1"/>
      </contour>
      <contour>
        <pt x="255" y="572" on="1"/>
        <pt x="484" y="572" on="1"/>
        <pt x="486" y="572" on="0"/>
        <pt x="486" y="597" on="1"/>
        <pt x="478" y="883" on="0"/>
        <pt x="372" y="883" on="1"/>
        <pt x="323" y="883" on="0"/>
        <pt x="257" y="757" on="0"/>
        <pt x="251" y="622" on="1"/>
        <pt x="251" y="572" on="0"/>
      </contour>
    </TTGlyph>
    <TTGlyph name="eacute" xMin="81" yMin="-11" xMax="631" yMax="1585">
      <component glyphName="acute" x="-26" y="-29" flags="0x1004"/>
      <component glyphName="e" x="0" y="0" flags="0x1204"/>
    </TTGlyph>
    <TTGlyph name="ebreve" xMin="81" yMin="-11" xMax="631" yMax="1335">
      <component glyphName="breve" x="-260" y="-152" flags="0x1004"/>
      <component glyphName="e" x="0" y="0" flags="0x1204"/>
    </TTGlyph>
    <TTGlyph name="ecaron" xMin="81" yMin="-11" xMax="631" yMax="1476">
      <component glyphName="caron" x="201" y="-85" flags="0x1004"/>
      <component glyphName="e" x="0" y="0" flags="0x1204"/>
    </TTGlyph>
    <TTGlyph name="ecircumflex" xMin="81" yMin="-11" xMax="631" yMax="1476">
      <component glyphName="circumflex" x="200" y="-85" flags="0x1004"/>
      <component glyphName="e" x="0" y="0" flags="0x1204"/>
    </TTGlyph>
    <TTGlyph name="edieresis" xMin="81" yMin="-11" xMax="631" yMax="1336">
      <component glyphName="dieresis" x="161" y="1140" flags="0x1004"/>
      <component glyphName="e" x="0" y="0" flags="0x1204"/>
    </TTGlyph>
    <TTGlyph name="edotaccent" xMin="81" yMin="-11" xMax="631" yMax="1379">
      <component glyphName="dotaccent" x="214" y="1097" flags="0x1004"/>
      <component glyphName="e" x="0" y="0" flags="0x1204"/>
    </TTGlyph>
    <TTGlyph name="egrave" xMin="81" yMin="-11" xMax="631" yMax="1585">
      <component glyphName="grave" x="-97" y="-29" flags="0x1004"/>
      <component glyphName="e" x="0" y="0" flags="0x1204"/>
    </TTGlyph>
    <TTGlyph name="eight" xMin="106" yMin="-15" xMax="744" yMax="1454">
      <contour>
        <pt x="525" y="826" on="1"/>
        <pt x="537" y="840" on="0"/>
        <pt x="563" y="991" on="0"/>
        <pt x="563" y="1057" on="1"/>
        <pt x="563" y="1301" on="0"/>
        <pt x="289" y="1301" on="0"/>
        <pt x="289" y="1071" on="1"/>
        <pt x="289" y="942" on="0"/>
        <pt x="390" y="843" on="0"/>
      </contour>
      <contour>
        <pt x="426" y="-15" on="1"/>
        <pt x="381" y="-15" on="0"/>
        <pt x="309" y="-2" on="0"/>
        <pt x="232" y="32" on="0"/>
        <pt x="176" y="97" on="0"/>
        <pt x="130" y="193" on="0"/>
        <pt x="106" y="338" on="0"/>
        <pt x="106" y="431" on="1"/>
        <pt x="106" y="557" on="0"/>
        <pt x="173" y="754" on="0"/>
        <pt x="217" y="794" on="1"/>
        <pt x="135" y="880" on="0"/>
        <pt x="135" y="1068" on="1"/>
        <pt x="135" y="1454" on="0"/>
        <pt x="426" y="1454" on="1"/>
        <pt x="474" y="1454" on="0"/>
        <pt x="554" y="1434" on="0"/>
        <pt x="629" y="1380" on="0"/>
        <pt x="681" y="1294" on="0"/>
        <pt x="712" y="1155" on="0"/>
        <pt x="712" y="1064" on="1"/>
        <pt x="712" y="969" on="0"/>
        <pt x="665" y="805" on="0"/>
        <pt x="633" y="767" on="1"/>
        <pt x="689" y="719" on="0"/>
        <pt x="744" y="557" on="0"/>
        <pt x="744" y="425" on="1"/>
        <pt x="744" y="320" on="0"/>
        <pt x="709" y="161" on="0"/>
        <pt x="651" y="66" on="0"/>
        <pt x="566" y="6" on="0"/>
        <pt x="479" y="-15" on="0"/>
      </contour>
      <contour>
        <pt x="427" y="175" on="1"/>
        <pt x="501" y="175" on="0"/>
        <pt x="576" y="292" on="0"/>
        <pt x="576" y="444" on="1"/>
        <pt x="576" y="501" on="0"/>
        <pt x="557" y="581" on="0"/>
        <pt x="530" y="628" on="0"/>
        <pt x="474" y="664" on="0"/>
        <pt x="430" y="680" on="0"/>
        <pt x="344" y="709" on="0"/>
        <pt x="316" y="721" on="1"/>
        <pt x="298" y="683" on="0"/>
        <pt x="271" y="523" on="0"/>
        <pt x="271" y="457" on="1"/>
        <pt x="271" y="175" on="0"/>
      </contour>
    </TTGlyph>
    <TTGlyph name="ellipsis" xMin="94" yMin="0" xMax="1037" yMax="253">
      <component glyphName="period" x="0" y="0" flags="0x1004"/>
      <component glyphName="period" x="377" y="0" flags="0x1004"/>
      <component glyphName="period" x="753" y="0" flags="0x1004"/>
    </TTGlyph>
    <TTGlyph name="emacron" xMin="81" yMin="-11" xMax="631" yMax="1252">
      <component glyphName="macron" x="-97" y="433" flags="0x1004"/>
      <component glyphName="e" x="0" y="0" flags="0x1204"/>
    </TTGlyph>
    <TTGlyph name="emdash" xMin="92" yMin="532" xMax="1953" yMax="684">
      <contour>
        <pt x="118" y="532" on="1"/>
        <pt x="105" y="532" on="0"/>
        <pt x="92" y="553" on="0"/>
        <pt x="92" y="583" on="1"/>
        <pt x="92" y="634" on="1"/>
        <pt x="92" y="664" on="0"/>
        <pt x="105" y="684" on="0"/>
        <pt x="118" y="684" on="1"/>
        <pt x="1928" y="684" on="1"/>
        <pt x="1953" y="684" on="0"/>
        <pt x="1953" y="634" on="1"/>
        <pt x="1953" y="583" on="1"/>
        <pt x="1953" y="532" on="0"/>
        <pt x="1928" y="532" on="1"/>
      </contour>
    </TTGlyph>
    <TTGlyph name="endash" xMin="89" yMin="532" xMax="930" yMax="684">
      <contour>
        <pt x="115" y="532" on="1"/>
        <pt x="102" y="532" on="0"/>
        <pt x="89" y="553" on="0"/>
        <pt x="89" y="583" on="1"/>
        <pt x="89" y="634" on="1"/>
        <pt x="89" y="664" on="0"/>
        <pt x="102" y="684" on="0"/>
        <pt x="115" y="684" on="1"/>
        <pt x="905" y="684" on="1"/>
        <pt x="930" y="684" on="0"/>
        <pt x="930" y="634" on="1"/>
        <pt x="930" y="583" on="1"/>
        <pt x="930" y="532" on="0"/>
        <pt x="905" y="532" on="1"/>
      </contour>
    </TTGlyph>
    <TTGlyph name="eogonek" xMin="81" yMin="-350" xMax="631" yMax="1018">
      <component glyphName="e" x="0" y="0" flags="0x1004"/>
      <component glyphName="ogonek" x="33" y="2" flags="0x1004"/>
    </TTGlyph>
    <TTGlyph name="equal" xMin="48" yMin="338" xMax="512" yMax="750">
      <contour>
        <pt x="72" y="338" on="1"/>
        <pt x="59" y="338" on="0"/>
        <pt x="48" y="354" on="0"/>
        <pt x="48" y="384" on="1"/>
        <pt x="48" y="425" on="1"/>
        <pt x="48" y="455" on="0"/>
        <pt x="59" y="470" on="0"/>
        <pt x="72" y="470" on="1"/>
        <pt x="488" y="470" on="1"/>
        <pt x="501" y="470" on="0"/>
        <pt x="512" y="455" on="0"/>
        <pt x="512" y="425" on="1"/>
        <pt x="512" y="384" on="1"/>
        <pt x="512" y="354" on="0"/>
        <pt x="501" y="338" on="0"/>
        <pt x="488" y="338" on="1"/>
      </contour>
      <contour>
        <pt x="72" y="617" on="1"/>
        <pt x="59" y="617" on="0"/>
        <pt x="48" y="633" on="0"/>
        <pt x="48" y="663" on="1"/>
        <pt x="48" y="704" on="1"/>
        <pt x="48" y="734" on="0"/>
        <pt x="59" y="750" on="0"/>
        <pt x="72" y="750" on="1"/>
        <pt x="488" y="750" on="1"/>
        <pt x="501" y="750" on="0"/>
        <pt x="512" y="734" on="0"/>
        <pt x="512" y="704" on="1"/>
        <pt x="512" y="663" on="1"/>
        <pt x="512" y="633" on="0"/>
        <pt x="501" y="617" on="0"/>
        <pt x="488" y="617" on="1"/>
      </contour>
    </TTGlyph>
    <TTGlyph name="eth" xMin="74" yMin="-18" xMax="722" yMax="1364">
      <contour>
        <pt x="397" y="-18" on="1"/>
        <pt x="327" y="-18" on="0"/>
        <pt x="218" y="23" on="0"/>
        <pt x="125" y="121" on="0"/>
        <pt x="74" y="307" on="0"/>
        <pt x="74" y="440" on="1"/>
        <pt x="74" y="653" on="0"/>
        <pt x="230" y="894" on="0"/>
        <pt x="378" y="894" on="1"/>
        <pt x="463" y="894" on="0"/>
        <pt x="539" y="839" on="1"/>
        <pt x="529" y="965" on="0"/>
        <pt x="436" y="1099" on="1"/>
        <pt x="318" y="1018" on="1"/>
        <pt x="291" y="1001" on="0"/>
        <pt x="266" y="1034" on="1"/>
        <pt x="251" y="1050" on="1"/>
        <pt x="234" y="1081" on="0"/>
        <pt x="261" y="1104" on="1"/>
        <pt x="353" y="1164" on="1"/>
        <pt x="268" y="1220" on="0"/>
        <pt x="160" y="1251" on="1"/>
        <pt x="142" y="1254" on="0"/>
        <pt x="142" y="1282" on="1"/>
        <pt x="142" y="1288" on="0"/>
        <pt x="152" y="1325" on="0"/>
        <pt x="157" y="1325" on="1"/>
        <pt x="160" y="1364" on="0"/>
        <pt x="180" y="1364" on="1"/>
        <pt x="182" y="1364" on="1"/>
        <pt x="355" y="1325" on="0"/>
        <pt x="454" y="1255" on="1"/>
        <pt x="576" y="1340" on="1"/>
        <pt x="585" y="1349" on="0"/>
        <pt x="595" y="1349" on="1"/>
        <pt x="612" y="1349" on="0"/>
        <pt x="628" y="1325" on="1"/>
        <pt x="646" y="1305" on="1"/>
        <pt x="667" y="1278" on="0"/>
        <pt x="636" y="1251" on="1"/>
        <pt x="534" y="1185" on="1"/>
        <pt x="722" y="962" on="0"/>
        <pt x="722" y="580" on="1"/>
        <pt x="722" y="354" on="0"/>
        <pt x="655" y="94" on="0"/>
        <pt x="516" y="-18" on="0"/>
      </contour>
      <contour>
        <pt x="400" y="113" on="1"/>
        <pt x="437" y="113" on="0"/>
        <pt x="491" y="145" on="0"/>
        <pt x="537" y="223" on="0"/>
        <pt x="560" y="372" on="0"/>
        <pt x="560" y="480" on="1"/>
        <pt x="560" y="604" on="0"/>
        <pt x="475" y="763" on="0"/>
        <pt x="398" y="763" on="1"/>
        <pt x="241" y="763" on="0"/>
        <pt x="241" y="456" on="1"/>
        <pt x="241" y="272" on="0"/>
        <pt x="318" y="113" on="0"/>
      </contour>
    </TTGlyph>
    <TTGlyph name="exclam" xMin="105" yMin="0" xMax="295" yMax="1502">
      <contour>
        <pt x="132" y="0" on="1"/>
        <pt x="105" y="0" on="0"/>
        <pt x="105" y="51" on="1"/>
        <pt x="105" y="203" on="1"/>
        <pt x="105" y="253" on="0"/>
        <pt x="132" y="253" on="1"/>
        <pt x="269" y="253" on="1"/>
        <pt x="282" y="253" on="0"/>
        <pt x="295" y="233" on="0"/>
        <pt x="295" y="203" on="1"/>
        <pt x="295" y="51" on="1"/>
        <pt x="295" y="0" on="0"/>
        <pt x="269" y="0" on="1"/>
      </contour>
      <contour>
        <pt x="183" y="468" on="1"/>
        <pt x="163" y="468" on="0"/>
        <pt x="160" y="541" on="1"/>
        <pt x="116" y="1428" on="1"/>
        <pt x="116" y="1437" on="1"/>
        <pt x="116" y="1465" on="0"/>
        <pt x="131" y="1502" on="0"/>
        <pt x="142" y="1502" on="1"/>
        <pt x="260" y="1502" on="1"/>
        <pt x="271" y="1502" on="0"/>
        <pt x="286" y="1468" on="0"/>
        <pt x="286" y="1441" on="1"/>
        <pt x="286" y="1429" on="1"/>
        <pt x="243" y="541" on="1"/>
        <pt x="240" y="468" on="0"/>
        <pt x="221" y="468" on="1"/>
      </contour>
    </TTGlyph>
    <TTGlyph name="exclamdown" xMin="109" yMin="0" xMax="299" yMax="1502">
      <component glyphName="exclam" x="404" y="1502" scale="-1.0" flags="0x1004"/>
    </TTGlyph>
    <TTGlyph name="f" xMin="44" yMin="0" xMax="467" yMax="1459">
      <contour>
        <pt x="152" y="0" on="1"/>
        <pt x="126" y="0" on="0"/>
        <pt x="126" y="61" on="1"/>
        <pt x="126" y="825" on="1"/>
        <pt x="126" y="857" on="0"/>
        <pt x="119" y="857" on="1"/>
        <pt x="67" y="857" on="1"/>
        <pt x="55" y="857" on="0"/>
        <pt x="44" y="873" on="0"/>
        <pt x="44" y="898" on="1"/>
        <pt x="44" y="959" on="1"/>
        <pt x="44" y="1006" on="0"/>
        <pt x="67" y="1006" on="1"/>
        <pt x="119" y="1006" on="1"/>
        <pt x="126" y="1006" on="0"/>
        <pt x="126" y="1041" on="1"/>
        <pt x="126" y="1170" on="0"/>
        <pt x="155" y="1339" on="0"/>
        <pt x="217" y="1427" on="0"/>
        <pt x="292" y="1459" on="0"/>
        <pt x="347" y="1459" on="1"/>
        <pt x="416" y="1459" on="0"/>
        <pt x="444" y="1453" on="1"/>
        <pt x="467" y="1449" on="0"/>
        <pt x="467" y="1417" on="1"/>
        <pt x="467" y="1352" on="1"/>
        <pt x="467" y="1324" on="0"/>
        <pt x="463" y="1307" on="0"/>
        <pt x="454" y="1307" on="1"/>
        <pt x="391" y="1307" on="1"/>
        <pt x="338" y="1307" on="0"/>
        <pt x="294" y="1218" on="0"/>
        <pt x="294" y="1100" on="1"/>
        <pt x="294" y="1012" on="1"/>
        <pt x="294" y="1006" on="0"/>
        <pt x="297" y="1006" on="1"/>
        <pt x="438" y="1006" on="1"/>
        <pt x="460" y="1006" on="0"/>
        <pt x="460" y="964" on="1"/>
        <pt x="460" y="898" on="1"/>
        <pt x="460" y="874" on="0"/>
        <pt x="449" y="857" on="0"/>
        <pt x="438" y="857" on="1"/>
        <pt x="302" y="857" on="1"/>
        <pt x="294" y="857" on="0"/>
        <pt x="294" y="825" on="1"/>
        <pt x="294" y="61" on="1"/>
        <pt x="294" y="0" on="0"/>
        <pt x="268" y="0" on="1"/>
      </contour>
    </TTGlyph>
    <TTGlyph name="five" xMin="112" yMin="-15" xMax="761" yMax="1438">
      <contour>
        <pt x="399" y="-15" on="1"/>
        <pt x="356" y="-14" on="0"/>
        <pt x="165" y="31" on="0"/>
        <pt x="137" y="51" on="1"/>
        <pt x="118" y="64" on="0"/>
        <pt x="118" y="104" on="1"/>
        <pt x="118" y="112" on="0"/>
        <pt x="119" y="140" on="0"/>
        <pt x="123" y="182" on="0"/>
        <pt x="131" y="212" on="0"/>
        <pt x="137" y="212" on="1"/>
        <pt x="140" y="212" on="0"/>
        <pt x="145" y="209" on="1"/>
        <pt x="146" y="208" on="0"/>
        <pt x="170" y="197" on="0"/>
        <pt x="196" y="184" on="0"/>
        <pt x="239" y="168" on="0"/>
        <pt x="283" y="156" on="0"/>
        <pt x="340" y="148" on="0"/>
        <pt x="368" y="148" on="1"/>
        <pt x="494" y="148" on="0"/>
        <pt x="584" y="307" on="0"/>
        <pt x="584" y="477" on="1"/>
        <pt x="584" y="525" on="0"/>
        <pt x="578" y="600" on="0"/>
        <pt x="557" y="689" on="0"/>
        <pt x="521" y="748" on="0"/>
        <pt x="453" y="788" on="0"/>
        <pt x="407" y="788" on="1"/>
        <pt x="366" y="788" on="0"/>
        <pt x="303" y="758" on="0"/>
        <pt x="268" y="714" on="0"/>
        <pt x="242" y="671" on="0"/>
        <pt x="217" y="641" on="0"/>
        <pt x="203" y="641" on="1"/>
        <pt x="155" y="641" on="1"/>
        <pt x="141" y="641" on="0"/>
        <pt x="133" y="674" on="0"/>
        <pt x="132" y="709" on="1"/>
        <pt x="132" y="717" on="0"/>
        <pt x="132" y="721" on="1"/>
        <pt x="112" y="1345" on="1"/>
        <pt x="112" y="1358" on="1"/>
        <pt x="112" y="1438" on="0"/>
        <pt x="141" y="1438" on="1"/>
        <pt x="688" y="1438" on="1"/>
        <pt x="698" y="1438" on="0"/>
        <pt x="710" y="1413" on="0"/>
        <pt x="710" y="1393" on="1"/>
        <pt x="708" y="1310" on="1"/>
        <pt x="705" y="1267" on="0"/>
        <pt x="693" y="1267" on="1"/>
        <pt x="273" y="1267" on="1"/>
        <pt x="250" y="1267" on="0"/>
        <pt x="250" y="1217" on="1"/>
        <pt x="253" y="822" on="1"/>
        <pt x="327" y="938" on="0"/>
        <pt x="479" y="938" on="1"/>
        <pt x="624" y="938" on="0"/>
        <pt x="761" y="690" on="0"/>
        <pt x="761" y="464" on="1"/>
        <pt x="761" y="351" on="0"/>
        <pt x="726" y="183" on="0"/>
        <pt x="665" y="76" on="0"/>
        <pt x="572" y="10" on="0"/>
        <pt x="467" y="-15" on="0"/>
      </contour>
    </TTGlyph>
    <TTGlyph name="florin" xMin="-35" yMin="-139" xMax="523" yMax="1407">
      <contour>
        <pt x="5" y="-139" on="1"/>
        <pt x="-17" y="-139" on="0"/>
        <pt x="-35" y="-125" on="0"/>
        <pt x="-35" y="-104" on="1"/>
        <pt x="-35" y="-96" on="0"/>
        <pt x="-33" y="-60" on="0"/>
        <pt x="-33" y="-59" on="1"/>
        <pt x="-29" y="-13" on="0"/>
        <pt x="-21" y="-9" on="1"/>
        <pt x="-19" y="-7" on="0"/>
        <pt x="-15" y="-7" on="1"/>
        <pt x="1" y="-7" on="1"/>
        <pt x="56" y="-7" on="0"/>
        <pt x="110" y="79" on="0"/>
        <pt x="120" y="200" on="1"/>
        <pt x="166" y="766" on="1"/>
        <pt x="168" y="797" on="0"/>
        <pt x="162" y="797" on="1"/>
        <pt x="86" y="797" on="1"/>
        <pt x="74" y="797" on="0"/>
        <pt x="65" y="814" on="0"/>
        <pt x="68" y="839" on="1"/>
        <pt x="74" y="900" on="1"/>
        <pt x="80" y="947" on="0"/>
        <pt x="102" y="947" on="1"/>
        <pt x="178" y="947" on="1"/>
        <pt x="183" y="947" on="0"/>
        <pt x="189" y="1008" on="1"/>
        <pt x="200" y="1127" on="0"/>
        <pt x="245" y="1287" on="0"/>
        <pt x="314" y="1373" on="0"/>
        <pt x="394" y="1407" on="0"/>
        <pt x="448" y="1407" on="1"/>
        <pt x="480" y="1407" on="0"/>
        <pt x="522" y="1391" on="0"/>
        <pt x="522" y="1383" on="1"/>
        <pt x="523" y="1383" on="0"/>
        <pt x="523" y="1356" on="1"/>
        <pt x="523" y="1325" on="1"/>
        <pt x="520" y="1272" on="0"/>
        <pt x="505" y="1272" on="1"/>
        <pt x="478" y="1272" on="1"/>
        <pt x="425" y="1272" on="0"/>
        <pt x="372" y="1183" on="0"/>
        <pt x="360" y="1065" on="1"/>
        <pt x="348" y="953" on="1"/>
        <pt x="348" y="947" on="0"/>
        <pt x="350" y="947" on="1"/>
        <pt x="460" y="947" on="1"/>
        <pt x="482" y="947" on="0"/>
        <pt x="478" y="904" on="1"/>
        <pt x="472" y="839" on="1"/>
        <pt x="469" y="814" on="0"/>
        <pt x="456" y="797" on="0"/>
        <pt x="444" y="797" on="1"/>
        <pt x="346" y="797" on="1"/>
        <pt x="336" y="797" on="0"/>
        <pt x="334" y="766" on="1"/>
        <pt x="295" y="260" on="1"/>
        <pt x="263" y="-139" on="0"/>
        <pt x="31" y="-139" on="1"/>
      </contour>
    </TTGlyph>
    <TTGlyph name="four" xMin="87" yMin="-1" xMax="879" yMax="1438">
      <contour>
        <pt x="571" y="-1" on="1"/>
        <pt x="534" y="-1" on="0"/>
        <pt x="534" y="60" on="1"/>
        <pt x="534" y="285" on="1"/>
        <pt x="136" y="285" on="1"/>
        <pt x="115" y="285" on="0"/>
        <pt x="87" y="314" on="0"/>
        <pt x="87" y="338" on="1"/>
        <pt x="87" y="347" on="0"/>
        <pt x="88" y="352" on="1"/>
        <pt x="231" y="1370" on="1"/>
        <pt x="237" y="1407" on="0"/>
        <pt x="252" y="1438" on="0"/>
        <pt x="269" y="1438" on="1"/>
        <pt x="351" y="1438" on="1"/>
        <pt x="368" y="1438" on="0"/>
        <pt x="386" y="1409" on="0"/>
        <pt x="386" y="1387" on="1"/>
        <pt x="386" y="1376" on="0"/>
        <pt x="385" y="1370" on="1"/>
        <pt x="287" y="489" on="1"/>
        <pt x="286" y="482" on="0"/>
        <pt x="296" y="460" on="0"/>
        <pt x="305" y="460" on="1"/>
        <pt x="534" y="460" on="1"/>
        <pt x="534" y="1377" on="1"/>
        <pt x="534" y="1438" on="0"/>
        <pt x="571" y="1438" on="1"/>
        <pt x="668" y="1438" on="1"/>
        <pt x="705" y="1438" on="0"/>
        <pt x="705" y="1377" on="1"/>
        <pt x="705" y="460" on="1"/>
        <pt x="835" y="460" on="1"/>
        <pt x="879" y="460" on="0"/>
        <pt x="879" y="404" on="1"/>
        <pt x="879" y="341" on="1"/>
        <pt x="879" y="285" on="0"/>
        <pt x="835" y="285" on="1"/>
        <pt x="705" y="285" on="1"/>
        <pt x="705" y="60" on="1"/>
        <pt x="705" y="-1" on="0"/>
        <pt x="668" y="-1" on="1"/>
      </contour>
    </TTGlyph>
    <TTGlyph name="fraction" xMin="78" yMin="-206" xMax="496" yMax="1647">
      <contour>
        <pt x="86" y="-205" on="1"/>
        <pt x="78" y="-205" on="0"/>
        <pt x="78" y="-180" on="1"/>
        <pt x="78" y="-178" on="0"/>
        <pt x="79" y="-174" on="0"/>
        <pt x="79" y="-172" on="1"/>
        <pt x="381" y="1614" on="1"/>
        <pt x="386" y="1647" on="0"/>
        <pt x="399" y="1647" on="1"/>
        <pt x="488" y="1647" on="1"/>
        <pt x="496" y="1647" on="0"/>
        <pt x="496" y="1625" on="1"/>
        <pt x="496" y="1618" on="0"/>
        <pt x="495" y="1614" on="1"/>
        <pt x="194" y="-173" on="1"/>
        <pt x="189" y="-206" on="0"/>
        <pt x="176" y="-206" on="1"/>
      </contour>
    </TTGlyph>
    <TTGlyph name="g" xMin="127" yMin="-307" xMax="765" yMax="1324">
      <contour>
        <pt x="374" y="456" on="0"/>
        <pt x="498" y="456" on="0"/>
        <pt x="563" y="570" on="0"/>
        <pt x="563" y="670" on="1"/>
        <pt x="563" y="775" on="0"/>
        <pt x="488" y="908" on="0"/>
        <pt x="427" y="908" on="1"/>
        <pt x="368" y="908" on="0"/>
        <pt x="299" y="785" on="0"/>
        <pt x="299" y="682" on="1"/>
        <pt x="299" y="573" on="0"/>
      </contour>
      <contour>
        <pt x="425" y="-202" on="1"/>
        <pt x="524" y="-202" on="0"/>
        <pt x="624" y="-117" on="0"/>
        <pt x="624" y="-38" on="1"/>
        <pt x="624" y="27" on="0"/>
        <pt x="553" y="69" on="0"/>
        <pt x="488" y="69" on="1"/>
        <pt x="374" y="69" on="1"/>
        <pt x="365" y="69" on="0"/>
        <pt x="333" y="20" on="0"/>
        <pt x="305" y="-63" on="0"/>
        <pt x="305" y="-101" on="1"/>
        <pt x="305" y="-202" on="0"/>
      </contour>
      <contour>
        <pt x="411" y="-307" on="1"/>
        <pt x="287" y="-307" on="0"/>
        <pt x="151" y="-219" on="0"/>
        <pt x="151" y="-139" on="1"/>
        <pt x="151" y="-47" on="0"/>
        <pt x="236" y="80" on="1"/>
        <pt x="240" y="85" on="0"/>
        <pt x="240" y="94" on="1"/>
        <pt x="240" y="105" on="0"/>
        <pt x="234" y="109" on="1"/>
        <pt x="231" y="110" on="0"/>
        <pt x="204" y="121" on="0"/>
        <pt x="198" y="123" on="0"/>
        <pt x="176" y="133" on="0"/>
        <pt x="171" y="138" on="0"/>
        <pt x="154" y="149" on="0"/>
        <pt x="150" y="158" on="0"/>
        <pt x="140" y="173" on="0"/>
        <pt x="137" y="188" on="0"/>
        <pt x="134" y="208" on="0"/>
        <pt x="134" y="219" on="1"/>
        <pt x="134" y="266" on="0"/>
        <pt x="160" y="343" on="0"/>
        <pt x="181" y="374" on="0"/>
        <pt x="208" y="407" on="1"/>
        <pt x="215" y="417" on="0"/>
        <pt x="215" y="426" on="1"/>
        <pt x="215" y="437" on="0"/>
        <pt x="209" y="444" on="1"/>
        <pt x="177" y="479" on="0"/>
        <pt x="127" y="603" on="0"/>
        <pt x="127" y="674" on="1"/>
        <pt x="127" y="829" on="0"/>
        <pt x="274" y="1018" on="0"/>
        <pt x="418" y="1018" on="1"/>
        <pt x="444" y="1018" on="0"/>
        <pt x="488" y="1007" on="1"/>
        <pt x="498" y="1005" on="0"/>
        <pt x="506" y="1011" on="0"/>
        <pt x="507" y="1022" on="1"/>
        <pt x="517" y="1280" on="1"/>
        <pt x="518" y="1300" on="0"/>
        <pt x="528" y="1320" on="0"/>
        <pt x="538" y="1324" on="0"/>
        <pt x="548" y="1324" on="1"/>
        <pt x="629" y="1324" on="1"/>
        <pt x="636" y="1324" on="0"/>
        <pt x="644" y="1292" on="0"/>
        <pt x="641" y="1281" on="1"/>
        <pt x="575" y="997" on="1"/>
        <pt x="571" y="980" on="0"/>
        <pt x="578" y="966" on="0"/>
        <pt x="591" y="958" on="1"/>
        <pt x="721" y="862" on="0"/>
        <pt x="721" y="675" on="1"/>
        <pt x="721" y="518" on="0"/>
        <pt x="581" y="346" on="0"/>
        <pt x="442" y="346" on="1"/>
        <pt x="373" y="346" on="0"/>
        <pt x="314" y="380" on="1"/>
        <pt x="300" y="370" on="0"/>
        <pt x="272" y="307" on="0"/>
        <pt x="272" y="272" on="1"/>
        <pt x="272" y="188" on="0"/>
        <pt x="376" y="188" on="1"/>
        <pt x="483" y="188" on="1"/>
        <pt x="633" y="188" on="0"/>
        <pt x="765" y="86" on="0"/>
        <pt x="765" y="-25" on="1"/>
        <pt x="765" y="-91" on="0"/>
        <pt x="719" y="-194" on="0"/>
        <pt x="648" y="-254" on="0"/>
        <pt x="551" y="-293" on="0"/>
        <pt x="460" y="-307" on="0"/>
      </contour>
    </TTGlyph>
    <TTGlyph name="gbreve" xMin="127" yMin="-307" xMax="765" yMax="1641">
      <component glyphName="breve" x="-170" y="154" flags="0x1004"/>
      <component glyphName="g" x="0" y="0" flags="0x1204"/>
    </TTGlyph>
    <TTGlyph name="gcircumflex" xMin="127" yMin="-307" xMax="765" yMax="1782">
      <component glyphName="circumflex" x="290" y="221" flags="0x1004"/>
      <component glyphName="g" x="0" y="0" flags="0x1204"/>
    </TTGlyph>
    <TTGlyph name="gcommaaccent" xMin="127" yMin="-307" xMax="765" yMax="1922">
      <component glyphName="g" x="0" y="0" flags="0x1004"/>
      <component glyphName="comma" x="498" y="1604" scale="-1.0" flags="0x1004"/>
    </TTGlyph>
    <TTGlyph name="gdotaccent" xMin="127" yMin="-307" xMax="765" yMax="1685">
      <component glyphName="dotaccent" x="304" y="1403" flags="0x1004"/>
      <component glyphName="g" x="0" y="0" flags="0x1204"/>
    </TTGlyph>
    <TTGlyph name="germandbls" xMin="132" yMin="0" xMax="812" yMax="1438">
      <contour>
        <pt x="290" y="0" on="1"/>
        <pt x="159" y="0" on="1"/>
        <pt x="145" y="0" on="0"/>
        <pt x="132" y="16" on="0"/>
        <pt x="132" y="44" on="1"/>
        <pt x="132" y="1042" on="1"/>
        <pt x="132" y="1100" on="0"/>
        <pt x="149" y="1204" on="0"/>
        <pt x="197" y="1312" on="0"/>
        <pt x="271" y="1389" on="0"/>
        <pt x="396" y="1438" on="0"/>
        <pt x="477" y="1438" on="1"/>
        <pt x="607" y="1438" on="0"/>
        <pt x="762" y="1253" on="0"/>
        <pt x="762" y="1061" on="1"/>
        <pt x="762" y="1020" on="0"/>
        <pt x="760" y="972" on="0"/>
        <pt x="749" y="906" on="0"/>
        <pt x="729" y="863" on="0"/>
        <pt x="691" y="818" on="0"/>
        <pt x="663" y="802" on="1"/>
        <pt x="654" y="792" on="0"/>
        <pt x="655" y="786" on="0"/>
        <pt x="664" y="777" on="1"/>
        <pt x="733" y="748" on="0"/>
        <pt x="812" y="560" on="0"/>
        <pt x="812" y="434" on="1"/>
        <pt x="812" y="0" on="0"/>
        <pt x="432" y="0" on="1"/>
        <pt x="432" y="150" on="1"/>
        <pt x="532" y="150" on="0"/>
        <pt x="637" y="297" on="0"/>
        <pt x="637" y="435" on="1"/>
        <pt x="637" y="704" on="0"/>
        <pt x="438" y="704" on="1"/>
        <pt x="438" y="853" on="1"/>
        <pt x="525" y="853" on="0"/>
        <pt x="599" y="953" on="0"/>
        <pt x="599" y="1055" on="1"/>
        <pt x="599" y="1180" on="0"/>
        <pt x="539" y="1282" on="0"/>
        <pt x="467" y="1282" on="1"/>
        <pt x="432" y="1282" on="0"/>
        <pt x="378" y="1264" on="0"/>
        <pt x="345" y="1230" on="0"/>
        <pt x="324" y="1193" on="0"/>
        <pt x="314" y="1142" on="0"/>
        <pt x="311" y="1105" on="0"/>
        <pt x="311" y="1082" on="1"/>
        <pt x="311" y="1074" on="0"/>
        <pt x="311" y="1050" on="0"/>
        <pt x="311" y="1046" on="1"/>
        <pt x="311" y="50" on="1"/>
        <pt x="311" y="32" on="0"/>
        <pt x="304" y="8" on="0"/>
        <pt x="295" y="0" on="0"/>
      </contour>
    </TTGlyph>
    <TTGlyph name="grave" xMin="348" yMin="1169" xMax="487" yMax="1614">
      <contour>
        <pt x="434" y="1169" on="1"/>
        <pt x="422" y="1169" on="0"/>
        <pt x="415" y="1208" on="1"/>
        <pt x="352" y="1549" on="1"/>
        <pt x="348" y="1573" on="0"/>
        <pt x="348" y="1586" on="1"/>
        <pt x="348" y="1614" on="0"/>
        <pt x="358" y="1614" on="1"/>
        <pt x="440" y="1614" on="1"/>
        <pt x="451" y="1614" on="0"/>
        <pt x="462" y="1591" on="0"/>
        <pt x="464" y="1559" on="1"/>
        <pt x="486" y="1236" on="1"/>
        <pt x="487" y="1222" on="0"/>
        <pt x="487" y="1201" on="1"/>
        <pt x="487" y="1169" on="0"/>
        <pt x="472" y="1169" on="1"/>
      </contour>
    </TTGlyph>
    <TTGlyph name="greater" xMin="154" yMin="145" xMax="559" yMax="1122">
      <contour>
        <pt x="187" y="145" on="1"/>
        <pt x="172" y="145" on="0"/>
        <pt x="154" y="170" on="0"/>
        <pt x="154" y="189" on="1"/>
        <pt x="154" y="244" on="1"/>
        <pt x="154" y="251" on="0"/>
        <pt x="155" y="264" on="0"/>
        <pt x="157" y="274" on="0"/>
        <pt x="161" y="285" on="0"/>
        <pt x="164" y="292" on="0"/>
        <pt x="171" y="303" on="0"/>
        <pt x="174" y="308" on="0"/>
        <pt x="183" y="320" on="0"/>
        <pt x="187" y="324" on="0"/>
        <pt x="199" y="337" on="0"/>
        <pt x="201" y="340" on="1"/>
        <pt x="426" y="619" on="1"/>
        <pt x="434" y="628" on="0"/>
        <pt x="434" y="648" on="0"/>
        <pt x="425" y="655" on="1"/>
        <pt x="202" y="925" on="1"/>
        <pt x="199" y="929" on="0"/>
        <pt x="182" y="946" on="0"/>
        <pt x="177" y="953" on="0"/>
        <pt x="165" y="967" on="0"/>
        <pt x="162" y="976" on="0"/>
        <pt x="156" y="991" on="0"/>
        <pt x="154" y="1007" on="0"/>
        <pt x="154" y="1017" on="1"/>
        <pt x="154" y="1081" on="1"/>
        <pt x="154" y="1099" on="0"/>
        <pt x="172" y="1122" on="0"/>
        <pt x="187" y="1122" on="1"/>
        <pt x="197" y="1122" on="0"/>
        <pt x="212" y="1110" on="1"/>
        <pt x="503" y="768" on="1"/>
        <pt x="526" y="742" on="0"/>
        <pt x="542" y="722" on="0"/>
        <pt x="559" y="684" on="0"/>
        <pt x="559" y="662" on="1"/>
        <pt x="559" y="613" on="1"/>
        <pt x="559" y="605" on="0"/>
        <pt x="558" y="592" on="0"/>
        <pt x="553" y="578" on="0"/>
        <pt x="551" y="569" on="0"/>
        <pt x="541" y="555" on="0"/>
        <pt x="539" y="549" on="0"/>
        <pt x="525" y="532" on="0"/>
        <pt x="522" y="528" on="0"/>
        <pt x="504" y="508" on="0"/>
        <pt x="502" y="506" on="1"/>
        <pt x="213" y="156" on="1"/>
        <pt x="199" y="145" on="0"/>
      </contour>
    </TTGlyph>
    <TTGlyph name="greaterequal" xMin="75" yMin="1" xMax="504" yMax="1042">
      <contour>
        <pt x="477" y="1" on="1"/>
        <pt x="477" y="1" on="0"/>
        <pt x="100" y="1" on="1"/>
        <pt x="88" y="1" on="0"/>
        <pt x="75" y="22" on="0"/>
        <pt x="75" y="52" on="1"/>
        <pt x="75" y="111" on="1"/>
        <pt x="75" y="126" on="0"/>
        <pt x="79" y="147" on="0"/>
        <pt x="86" y="157" on="0"/>
        <pt x="94" y="161" on="0"/>
        <pt x="100" y="161" on="1"/>
        <pt x="477" y="161" on="1"/>
        <pt x="490" y="161" on="0"/>
        <pt x="503" y="141" on="0"/>
        <pt x="503" y="111" on="1"/>
        <pt x="503" y="52" on="1"/>
        <pt x="503" y="22" on="0"/>
        <pt x="490" y="1" on="0"/>
      </contour>
      <contour>
        <pt x="132" y="225" on="1"/>
        <pt x="117" y="225" on="0"/>
        <pt x="98" y="250" on="0"/>
        <pt x="98" y="267" on="1"/>
        <pt x="98" y="350" on="1"/>
        <pt x="98" y="360" on="0"/>
        <pt x="100" y="376" on="0"/>
        <pt x="106" y="392" on="0"/>
        <pt x="109" y="400" on="0"/>
        <pt x="122" y="416" on="0"/>
        <pt x="126" y="420" on="0"/>
        <pt x="144" y="439" on="0"/>
        <pt x="146" y="442" on="1"/>
        <pt x="340" y="612" on="1"/>
        <pt x="350" y="620" on="0"/>
        <pt x="350" y="640" on="0"/>
        <pt x="340" y="648" on="1"/>
        <pt x="146" y="828" on="1"/>
        <pt x="145" y="829" on="0"/>
        <pt x="128" y="849" on="0"/>
        <pt x="125" y="851" on="0"/>
        <pt x="112" y="867" on="0"/>
        <pt x="110" y="873" on="0"/>
        <pt x="102" y="888" on="0"/>
        <pt x="101" y="899" on="0"/>
        <pt x="98" y="914" on="0"/>
        <pt x="98" y="923" on="1"/>
        <pt x="98" y="999" on="1"/>
        <pt x="98" y="1017" on="0"/>
        <pt x="118" y="1042" on="0"/>
        <pt x="132" y="1042" on="1"/>
        <pt x="146" y="1042" on="0"/>
        <pt x="158" y="1032" on="1"/>
        <pt x="448" y="762" on="1"/>
        <pt x="450" y="760" on="0"/>
        <pt x="454" y="755" on="1"/>
        <pt x="473" y="733" on="0"/>
        <pt x="489" y="711" on="0"/>
        <pt x="504" y="676" on="0"/>
        <pt x="504" y="655" on="1"/>
        <pt x="504" y="606" on="1"/>
        <pt x="504" y="584" on="0"/>
        <pt x="488" y="546" on="0"/>
        <pt x="470" y="523" on="0"/>
        <pt x="448" y="499" on="1"/>
        <pt x="158" y="238" on="1"/>
        <pt x="139" y="225" on="0"/>
      </contour>
    </TTGlyph>
    <TTGlyph name="guillemotleft" xMin="90" yMin="217" xMax="754" yMax="1098">
      <contour>
        <pt x="396" y="218" on="1"/>
        <pt x="395" y="218" on="0"/>
        <pt x="357" y="257" on="0"/>
        <pt x="303" y="312" on="0"/>
        <pt x="249" y="368" on="0"/>
        <pt x="230" y="388" on="1"/>
        <pt x="210" y="408" on="1"/>
        <pt x="193" y="425" on="0"/>
        <pt x="98" y="556" on="0"/>
        <pt x="98" y="575" on="1"/>
        <pt x="90" y="584" on="0"/>
        <pt x="90" y="702" on="1"/>
        <pt x="90" y="781" on="0"/>
        <pt x="105" y="795" on="1"/>
        <pt x="105" y="804" on="0"/>
        <pt x="294" y="993" on="1"/>
        <pt x="305" y="1004" on="1"/>
        <pt x="316" y="1016" on="0"/>
        <pt x="344" y="1046" on="0"/>
        <pt x="374" y="1077" on="0"/>
        <pt x="394" y="1098" on="0"/>
        <pt x="395" y="1098" on="1"/>
        <pt x="397" y="1098" on="1"/>
        <pt x="407" y="1098" on="0"/>
        <pt x="410" y="1071" on="1"/>
        <pt x="413" y="1071" on="0"/>
        <pt x="413" y="964" on="1"/>
        <pt x="413" y="910" on="0"/>
        <pt x="398" y="888" on="1"/>
        <pt x="398" y="881" on="0"/>
        <pt x="342" y="824" on="0"/>
        <pt x="278" y="765" on="0"/>
        <pt x="277" y="764" on="1"/>
        <pt x="275" y="763" on="0"/>
        <pt x="191" y="667" on="0"/>
        <pt x="191" y="664" on="1"/>
        <pt x="189" y="656" on="0"/>
        <pt x="193" y="650" on="1"/>
        <pt x="193" y="649" on="0"/>
        <pt x="228" y="616" on="0"/>
        <pt x="270" y="577" on="0"/>
        <pt x="288" y="560" on="1"/>
        <pt x="306" y="543" on="1"/>
        <pt x="405" y="414" on="0"/>
        <pt x="405" y="390" on="1"/>
        <pt x="413" y="382" on="0"/>
        <pt x="413" y="265" on="1"/>
        <pt x="413" y="252" on="0"/>
        <pt x="407" y="226" on="0"/>
        <pt x="404" y="226" on="1"/>
        <pt x="403" y="217" on="0"/>
        <pt x="398" y="217" on="1"/>
        <pt x="397" y="217" on="0"/>
      </contour>
      <contour>
        <pt x="736" y="218" on="1"/>
        <pt x="717" y="238" on="1"/>
        <pt x="698" y="257" on="0"/>
        <pt x="643" y="312" on="0"/>
        <pt x="589" y="368" on="0"/>
        <pt x="570" y="388" on="1"/>
        <pt x="550" y="408" on="1"/>
        <pt x="533" y="425" on="0"/>
        <pt x="439" y="556" on="0"/>
        <pt x="439" y="575" on="1"/>
        <pt x="430" y="584" on="0"/>
        <pt x="430" y="702" on="1"/>
        <pt x="430" y="780" on="0"/>
        <pt x="445" y="795" on="1"/>
        <pt x="445" y="799" on="0"/>
        <pt x="535" y="892" on="0"/>
        <pt x="632" y="991" on="0"/>
        <pt x="634" y="993" on="1"/>
        <pt x="635" y="994" on="0"/>
        <pt x="685" y="1046" on="0"/>
        <pt x="710" y="1072" on="1"/>
        <pt x="735" y="1098" on="1"/>
        <pt x="737" y="1098" on="1"/>
        <pt x="748" y="1098" on="0"/>
        <pt x="750" y="1071" on="1"/>
        <pt x="754" y="1071" on="0"/>
        <pt x="754" y="964" on="1"/>
        <pt x="754" y="911" on="0"/>
        <pt x="738" y="888" on="1"/>
        <pt x="738" y="881" on="0"/>
        <pt x="682" y="824" on="0"/>
        <pt x="619" y="765" on="0"/>
        <pt x="618" y="764" on="1"/>
        <pt x="616" y="763" on="0"/>
        <pt x="532" y="667" on="0"/>
        <pt x="532" y="664" on="1"/>
        <pt x="530" y="655" on="0"/>
        <pt x="533" y="650" on="1"/>
        <pt x="533" y="649" on="0"/>
        <pt x="568" y="616" on="0"/>
        <pt x="611" y="577" on="0"/>
        <pt x="629" y="560" on="1"/>
        <pt x="647" y="543" on="1"/>
        <pt x="648" y="542" on="0"/>
        <pt x="684" y="495" on="0"/>
        <pt x="717" y="450" on="0"/>
        <pt x="746" y="400" on="0"/>
        <pt x="746" y="390" on="1"/>
        <pt x="754" y="382" on="0"/>
        <pt x="754" y="265" on="1"/>
        <pt x="754" y="252" on="0"/>
        <pt x="748" y="226" on="0"/>
        <pt x="744" y="226" on="1"/>
        <pt x="743" y="217" on="0"/>
        <pt x="739" y="217" on="1"/>
        <pt x="737" y="217" on="0"/>
      </contour>
    </TTGlyph>
    <TTGlyph name="guillemotright" xMin="90" yMin="214" xMax="754" yMax="1101">
      <contour>
        <pt x="103" y="214" on="1"/>
        <pt x="90" y="214" on="0"/>
        <pt x="90" y="255" on="1"/>
        <pt x="90" y="358" on="1"/>
        <pt x="90" y="423" on="0"/>
        <pt x="114" y="450" on="1"/>
        <pt x="309" y="632" on="1"/>
        <pt x="313" y="636" on="0"/>
        <pt x="313" y="658" on="0"/>
        <pt x="309" y="662" on="1"/>
        <pt x="113" y="854" on="1"/>
        <pt x="90" y="883" on="0"/>
        <pt x="90" y="948" on="1"/>
        <pt x="90" y="1057" on="1"/>
        <pt x="90" y="1101" on="0"/>
        <pt x="103" y="1101" on="1"/>
        <pt x="106" y="1101" on="0"/>
        <pt x="113" y="1094" on="1"/>
        <pt x="390" y="807" on="1"/>
        <pt x="413" y="783" on="0"/>
        <pt x="413" y="712" on="1"/>
        <pt x="413" y="587" on="1"/>
        <pt x="413" y="515" on="0"/>
        <pt x="390" y="493" on="1"/>
        <pt x="113" y="222" on="1"/>
        <pt x="105" y="214" on="0"/>
      </contour>
      <contour>
        <pt x="443" y="215" on="1"/>
        <pt x="430" y="215" on="0"/>
        <pt x="430" y="255" on="1"/>
        <pt x="430" y="358" on="1"/>
        <pt x="430" y="422" on="0"/>
        <pt x="454" y="450" on="1"/>
        <pt x="650" y="632" on="1"/>
        <pt x="653" y="635" on="0"/>
        <pt x="653" y="647" on="1"/>
        <pt x="653" y="658" on="0"/>
        <pt x="650" y="662" on="1"/>
        <pt x="454" y="854" on="1"/>
        <pt x="430" y="882" on="0"/>
        <pt x="430" y="948" on="1"/>
        <pt x="430" y="1057" on="1"/>
        <pt x="430" y="1101" on="0"/>
        <pt x="444" y="1101" on="1"/>
        <pt x="448" y="1101" on="0"/>
        <pt x="453" y="1094" on="1"/>
        <pt x="730" y="807" on="1"/>
        <pt x="754" y="782" on="0"/>
        <pt x="754" y="712" on="1"/>
        <pt x="754" y="587" on="1"/>
        <pt x="754" y="516" on="0"/>
        <pt x="730" y="493" on="1"/>
        <pt x="453" y="222" on="1"/>
        <pt x="447" y="215" on="0"/>
      </contour>
    </TTGlyph>
    <TTGlyph name="guilsinglleft" xMin="90" yMin="217" xMax="413" yMax="1098">
      <contour>
        <pt x="396" y="218" on="1"/>
        <pt x="395" y="218" on="0"/>
        <pt x="357" y="257" on="0"/>
        <pt x="303" y="312" on="0"/>
        <pt x="249" y="368" on="0"/>
        <pt x="230" y="388" on="1"/>
        <pt x="210" y="408" on="1"/>
        <pt x="193" y="425" on="0"/>
        <pt x="98" y="556" on="0"/>
        <pt x="98" y="575" on="1"/>
        <pt x="90" y="584" on="0"/>
        <pt x="90" y="702" on="1"/>
        <pt x="90" y="781" on="0"/>
        <pt x="105" y="795" on="1"/>
        <pt x="105" y="804" on="0"/>
        <pt x="294" y="993" on="1"/>
        <pt x="305" y="1004" on="1"/>
        <pt x="316" y="1016" on="0"/>
        <pt x="344" y="1046" on="0"/>
        <pt x="374" y="1077" on="0"/>
        <pt x="394" y="1098" on="0"/>
        <pt x="395" y="1098" on="1"/>
        <pt x="397" y="1098" on="1"/>
        <pt x="407" y="1098" on="0"/>
        <pt x="410" y="1071" on="1"/>
        <pt x="413" y="1071" on="0"/>
        <pt x="413" y="964" on="1"/>
        <pt x="413" y="910" on="0"/>
        <pt x="398" y="888" on="1"/>
        <pt x="398" y="881" on="0"/>
        <pt x="342" y="824" on="0"/>
        <pt x="278" y="765" on="0"/>
        <pt x="277" y="764" on="1"/>
        <pt x="275" y="763" on="0"/>
        <pt x="191" y="667" on="0"/>
        <pt x="191" y="664" on="1"/>
        <pt x="189" y="656" on="0"/>
        <pt x="193" y="650" on="1"/>
        <pt x="193" y="649" on="0"/>
        <pt x="228" y="616" on="0"/>
        <pt x="270" y="577" on="0"/>
        <pt x="288" y="560" on="1"/>
        <pt x="306" y="543" on="1"/>
        <pt x="405" y="414" on="0"/>
        <pt x="405" y="390" on="1"/>
        <pt x="413" y="382" on="0"/>
        <pt x="413" y="265" on="1"/>
        <pt x="413" y="252" on="0"/>
        <pt x="407" y="226" on="0"/>
        <pt x="404" y="226" on="1"/>
        <pt x="403" y="217" on="0"/>
        <pt x="398" y="217" on="1"/>
        <pt x="397" y="217" on="0"/>
      </contour>
    </TTGlyph>
    <TTGlyph name="guilsinglright" xMin="90" yMin="215" xMax="413" yMax="1101">
      <contour>
        <pt x="103" y="215" on="1"/>
        <pt x="90" y="215" on="0"/>
        <pt x="90" y="255" on="1"/>
        <pt x="90" y="358" on="1"/>
        <pt x="90" y="423" on="0"/>
        <pt x="114" y="450" on="1"/>
        <pt x="309" y="632" on="1"/>
        <pt x="313" y="636" on="0"/>
        <pt x="313" y="658" on="0"/>
        <pt x="309" y="662" on="1"/>
        <pt x="113" y="854" on="1"/>
        <pt x="90" y="883" on="0"/>
        <pt x="90" y="948" on="1"/>
        <pt x="90" y="1057" on="1"/>
        <pt x="90" y="1101" on="0"/>
        <pt x="103" y="1101" on="1"/>
        <pt x="106" y="1101" on="0"/>
        <pt x="113" y="1094" on="1"/>
        <pt x="390" y="807" on="1"/>
        <pt x="413" y="783" on="0"/>
        <pt x="413" y="712" on="1"/>
        <pt x="413" y="587" on="1"/>
        <pt x="413" y="515" on="0"/>
        <pt x="390" y="493" on="1"/>
        <pt x="113" y="222" on="1"/>
        <pt x="104" y="215" on="0"/>
      </contour>
    </TTGlyph>
</ttFont>
